<svg xmlns="http://www.w3.org/2000/svg" xmlns:xlink="http://www.w3.org/1999/xlink" width="1366" zoomAndPan="magnify" viewBox="0 0 1024.5 576" height="768" preserveAspectRatio="xMidYMid meet" version="1.0"><defs><clipPath id="871e8b7eaa"><path d="M 393 175 L 638 175 L 638 402.992188 L 393 402.992188 Z M 393 175 " clip-rule="nonzero"/></clipPath><clipPath id="12f6f950ca"><path d="M 398 177 L 637 177 L 637 402.992188 L 398 402.992188 Z M 398 177 " clip-rule="nonzero"/></clipPath><clipPath id="586c5cffec"><path d="M 391 172.855469 L 641 172.855469 L 641 402.992188 L 391 402.992188 Z M 391 172.855469 " clip-rule="nonzero"/></clipPath><clipPath id="651af8bf45"><path d="M 585 239 L 659.734375 239 L 659.734375 312 L 585 312 Z M 585 239 " clip-rule="nonzero"/></clipPath></defs><g clip-path="url(#871e8b7eaa)"><path fill="#ffffff" d="M 429.800781 402.882812 L 442.421875 374.660156 C 442.421875 374.660156 393.382812 362.910156 393.921875 308.074219 C 394.457031 253.234375 436.835938 232.523438 454.773438 224.367188 C 475.238281 187.128906 505.476562 174.789062 513.855469 175.003906 C 518.636719 184.664062 522.128906 214.441406 522.128906 214.441406 C 522.128906 214.441406 535.019531 217.824219 553.980469 222.4375 C 569.554688 202.691406 616.175781 191.101562 621.65625 194.265625 C 637.605469 224.90625 627.9375 276.628906 627.9375 276.628906 C 627.9375 276.628906 643.890625 295.035156 634.921875 335.277344 C 625.953125 375.464844 585.882812 380.832031 585.882812 380.832031 L 591.09375 402.882812 Z M 429.800781 402.882812 L 442.421875 374.660156 C 442.421875 374.660156 393.382812 362.910156 393.921875 308.074219 C 394.457031 253.234375 436.835938 232.523438 454.773438 224.367188 C 475.238281 187.128906 505.476562 174.789062 513.855469 175.003906 C 518.636719 184.664062 522.128906 214.441406 522.128906 214.441406 C 522.128906 214.441406 535.019531 217.824219 553.980469 222.4375 C 569.554688 202.691406 616.175781 191.101562 621.65625 194.265625 C 637.605469 224.90625 627.9375 276.628906 627.9375 276.628906 C 627.9375 276.628906 643.890625 295.035156 634.921875 335.277344 C 625.953125 375.464844 585.882812 380.832031 585.882812 380.832031 L 591.09375 402.882812 Z M 429.800781 402.882812 " fill-opacity="1" fill-rule="nonzero"/></g><path fill="#efb07d" d="M 532.117188 218.628906 C 532.117188 218.628906 543.453125 267.027344 487.539062 290.257812 C 434.632812 312.257812 402.085938 278.078125 404.714844 267.027344 C 409.820312 253.398438 432.644531 238.535156 432.644531 238.535156 C 432.644531 238.535156 443.925781 232.632812 461.917969 231.398438 C 465.410156 219.863281 477.546875 194.804688 511.976562 177.152344 C 517.402344 187.988281 522.128906 215.300781 522.128906 215.300781 Z M 593.886719 240.789062 C 593.886719 240.789062 606.078125 253.074219 612.09375 264.183594 C 625.683594 234.992188 613.492188 207.628906 613.492188 207.628906 Z M 593.886719 240.789062 " fill-opacity="1" fill-rule="nonzero"/><g clip-path="url(#12f6f950ca)"><path fill="#ef5454" d="M 634.0625 305.765625 C 634.0625 305.765625 638.894531 363.230469 572.886719 380.5625 C 573.960938 384.964844 576 395.695312 577.34375 402.832031 L 534.75 402.832031 C 534.75 402.832031 535.019531 394.03125 533.355469 384.425781 C 533.355469 384.425781 484.371094 388.34375 442.476562 374.609375 C 423.945312 368.542969 399.988281 343.648438 398.269531 321.539062 C 398.269531 321.539062 423.570312 369.027344 497.097656 367.632812 C 563.539062 366.398438 581.15625 356.3125 596.839844 340.964844 C 620.796875 317.625 617.25 284.625 613.492188 279.367188 C 626.757812 263.378906 628.367188 236.066406 628.367188 236.066406 C 634.222656 249.425781 626.703125 272.714844 626.703125 272.714844 C 626.703125 272.714844 634.0625 281.082031 636.15625 304.15625 Z M 634.0625 305.765625 C 634.0625 305.765625 638.894531 363.230469 572.886719 380.5625 C 573.960938 384.964844 576 395.695312 577.34375 402.832031 L 534.75 402.832031 C 534.75 402.832031 535.019531 394.03125 533.355469 384.425781 C 533.355469 384.425781 484.371094 388.34375 442.476562 374.609375 C 423.945312 368.542969 399.988281 343.648438 398.269531 321.539062 C 398.269531 321.539062 423.570312 369.027344 497.097656 367.632812 C 563.539062 366.398438 581.15625 356.3125 596.839844 340.964844 C 620.796875 317.625 617.25 284.625 613.492188 279.367188 C 626.757812 263.378906 628.367188 236.066406 628.367188 236.066406 C 634.222656 249.425781 626.703125 272.714844 626.703125 272.714844 C 626.703125 272.714844 634.0625 281.082031 636.15625 304.15625 Z M 511.921875 177.042969 C 511.921875 177.042969 510.367188 199.472656 502.039062 213.582031 C 516.113281 214.011719 522.128906 214.441406 522.128906 214.441406 C 522.128906 214.441406 517.5625 181.820312 511.921875 177.042969 Z M 511.921875 177.042969 " fill-opacity="0.3" fill-rule="nonzero"/></g><g clip-path="url(#586c5cffec)"><path fill="#2b0806" d="M 613.492188 207.628906 C 613.492188 210.417969 601.136719 234.507812 598.613281 242.613281 C 611.773438 251.304688 614.296875 264.988281 612.039062 264.183594 C 609.785156 261.390625 597.164062 245.722656 591.039062 244.007812 C 599.257812 218.84375 613.492188 207.628906 613.492188 207.628906 Z M 629.335938 272.605469 C 639.21875 242.828125 627.722656 193.460938 622.300781 190.566406 C 594.960938 191.800781 558.007812 210.738281 552.527344 218.679688 C 543.128906 215.785156 533.621094 214.386719 525.40625 213.746094 C 524.8125 207.519531 522.773438 189.546875 514.285156 172.964844 C 503.757812 172.964844 467.773438 189.222656 452.894531 222.492188 C 421.421875 232.363281 364.378906 286.71875 405.628906 351.160156 C 417.339844 368.277344 439.359375 377.128906 439.359375 377.128906 L 425.984375 402.882812 L 434.578125 402.882812 C 434.578125 402.882812 443.011719 383.945312 447.46875 373.265625 C 417.660156 364.359375 405.09375 339.945312 403.535156 336.726562 C 397.195312 323.257812 390.375 299.21875 404.769531 272.070312 C 425.984375 232.09375 457.300781 226.191406 457.300781 226.191406 C 457.300781 226.191406 466.753906 194 511.921875 177.042969 C 517.722656 196.789062 518.476562 208.324219 518.746094 212.886719 C 502.578125 211.0625 502.039062 213.582031 502.039062 213.582031 C 504.996094 216.535156 533.730469 218.628906 554.140625 224.636719 C 573.851562 204.570312 604.253906 195.5 620.203125 195.984375 C 635.511719 237.246094 625.09375 272.765625 624.179688 275.71875 C 624.179688 275.71875 641.367188 308.609375 632.988281 336.242188 C 624.609375 363.875 601.03125 377.878906 582.125 380.777344 C 583.789062 392.90625 585.882812 402.832031 585.882812 402.832031 L 594.476562 402.832031 L 588.835938 384.910156 C 588.835938 384.910156 628.90625 375.359375 638.25 336.1875 C 646.738281 300.613281 629.335938 272.605469 629.335938 272.605469 Z M 584.917969 255.222656 C 584.539062 254.792969 573.960938 260.371094 563.863281 265.308594 C 569.664062 260.800781 575.570312 255.597656 572.507812 256.1875 C 565.417969 257.691406 540.496094 275.609375 530.828125 282.746094 C 529.21875 283.820312 527.875 284.785156 526.910156 285.644531 C 525.886719 286.558594 525.242188 287.253906 525.191406 287.789062 C 524.222656 293.210938 538.941406 308.71875 560.960938 302.921875 C 586.257812 296.375 589.050781 259.890625 584.917969 255.222656 Z M 457.890625 241.484375 C 454.667969 239.285156 457.566406 246.207031 462.1875 252.753906 C 454.828125 245.402344 448.113281 239.230469 446.558594 239.070312 C 442.742188 238.585938 427.113281 278.9375 446.558594 290.742188 C 466 302.546875 482.597656 286.664062 484.800781 277.757812 C 486.140625 275.019531 462.402344 244.542969 457.890625 241.484375 Z M 525.941406 299.703125 C 521.859375 305.980469 516.648438 314.671875 514.984375 314.511719 C 513.265625 314.40625 510.3125 295.945312 510.3125 295.945312 C 506.550781 294.820312 500 294.496094 492.585938 296 C 491.621094 299.808594 488.128906 313.277344 486.140625 314.511719 C 484.636719 315.476562 481.414062 306.140625 479.859375 300.507812 C 474.59375 303.242188 469.492188 307.105469 465.300781 312.582031 C 451.660156 330.234375 450.15625 367.042969 482.488281 377.238281 C 510.582031 386.089844 533.785156 377.128906 543.613281 356.148438 C 553.441406 335.167969 543.183594 308.933594 525.941406 299.703125 Z M 525.941406 299.703125 " fill-opacity="1" fill-rule="nonzero"/></g><path fill="#ffffff" d="M 448.0625 246.582031 C 449.027344 245.886719 478.890625 276.199219 478.890625 278.292969 C 478.890625 280.386719 467.34375 297.878906 449.941406 286.984375 C 433.773438 276.898438 448.0625 246.582031 448.0625 246.582031 Z M 533.246094 289.023438 C 531.257812 293.050781 549.46875 305.121094 564.722656 295.625 C 578.472656 287.09375 582.230469 267.078125 579.8125 263.753906 C 578.632812 262.464844 534.429688 287.199219 533.246094 289.023438 Z M 533.246094 289.023438 " fill-opacity="1" fill-rule="nonzero"/><path fill="#ef5454" d="M 602.964844 252.644531 C 602.425781 249.695312 610.699219 247.710938 611.179688 250.445312 C 611.773438 253.558594 613.007812 256.347656 615.15625 258.761719 C 616.875 260.640625 619.238281 261.5 621.976562 261.605469 C 624.714844 261.714844 626.648438 258.386719 627.132812 256.292969 C 627.9375 252.699219 628.316406 248.996094 628.796875 245.347656 C 629.175781 242.613281 637.445312 241.164062 637.015625 244.273438 C 636.265625 249.480469 636.101562 255.328125 633.632812 260.050781 C 631.429688 264.289062 627.1875 267.078125 622.460938 267.722656 C 613.113281 269.117188 604.574219 261.5 602.964844 252.644531 Z M 654.742188 273.144531 C 651.949219 273.464844 649.207031 273.679688 646.414062 273.464844 C 644.535156 273.304688 642.117188 273.089844 641.421875 270.621094 C 640.078125 265.84375 645.234375 259.835938 648.777344 259.085938 C 650.121094 258.761719 651.949219 257.152344 651.570312 255.328125 C 651.140625 253.289062 648.832031 253.449219 647.597656 253.773438 C 641.367188 255.167969 633.363281 263.644531 634.492188 272.070312 C 635.78125 281.566406 648.726562 279.636719 654.097656 278.992188 C 655.546875 278.832031 657.695312 277.8125 657.855469 275.773438 C 658.070312 273.625 656.03125 272.980469 654.742188 273.144531 Z M 640.078125 286.128906 C 636.480469 282.855469 631.484375 281.351562 626.703125 282.53125 C 622.136719 283.660156 618.539062 286.933594 616.285156 290.902344 C 613.597656 295.625 613.167969 301.3125 611.71875 306.464844 C 611.179688 308.503906 614.136719 309.359375 615.53125 309.253906 C 617.625 309.144531 619.453125 307.914062 620.042969 305.875 C 621.011719 302.332031 621.441406 298.574219 622.730469 295.089844 C 623.589844 292.726562 625.199219 289.238281 627.832031 288.433594 C 630.355469 287.683594 633.148438 290.097656 634.597656 291.867188 C 636.910156 294.710938 638.035156 298.199219 639.21875 301.632812 C 640.507812 305.496094 648.726562 303.242188 647.4375 299.433594 C 645.769531 294.660156 643.945312 289.667969 640.078125 286.128906 Z M 612.953125 275.933594 C 611.609375 266.433594 597.914062 268.367188 592.222656 269.011719 C 590.71875 269.171875 588.460938 270.191406 588.246094 272.230469 C 588.03125 274.214844 590.179688 274.914062 591.523438 274.753906 C 594.476562 274.429688 597.378906 274.214844 600.332031 274.429688 C 602.320312 274.589844 604.84375 274.804688 605.59375 277.273438 C 606.992188 282.050781 601.566406 288.058594 597.808594 288.808594 C 596.410156 289.132812 594.421875 290.742188 594.851562 292.566406 C 595.28125 294.605469 597.753906 294.445312 599.097656 294.121094 C 605.648438 292.78125 614.136719 284.355469 612.953125 275.933594 Z M 537.542969 354.433594 C 543.34375 341.984375 541.035156 329 534.644531 318.859375 C 534.644531 318.859375 504.941406 322.722656 480.609375 370.421875 C 480.609375 370.421875 484.851562 372.355469 486.679688 372.945312 C 509.882812 380.296875 529.433594 371.765625 537.542969 354.433594 Z M 537.542969 354.433594 " fill-opacity="1" fill-rule="nonzero"/><g clip-path="url(#651af8bf45)"><path fill="#2b0806" d="M 641.421875 284.679688 C 637.230469 280.871094 631.539062 279.3125 626.21875 280.65625 C 621.441406 281.835938 617.304688 285.109375 614.566406 289.992188 C 612.523438 293.53125 611.71875 297.449219 610.914062 301.257812 C 610.589844 302.921875 610.214844 304.476562 609.839844 305.980469 C 609.515625 307.160156 609.730469 308.339844 610.535156 309.253906 C 611.773438 310.757812 614.027344 311.292969 615.425781 311.292969 C 615.53125 311.292969 615.640625 311.292969 615.691406 311.292969 C 618.753906 311.132812 621.226562 309.199219 621.976562 306.464844 C 622.40625 304.960938 622.730469 303.457031 622.996094 302.011719 C 623.480469 299.808594 623.910156 297.769531 624.609375 295.839844 C 625.683594 292.78125 627.078125 290.796875 628.421875 290.421875 C 629.710938 290.042969 631.753906 291.546875 633.09375 293.210938 C 635.082031 295.679688 636.15625 298.898438 637.230469 302.011719 L 637.339844 302.386719 C 637.929688 304.050781 639.324219 305.230469 641.207031 305.605469 C 643.785156 306.085938 646.792969 305.175781 648.347656 303.351562 C 649.476562 302.0625 649.800781 300.453125 649.261719 298.953125 C 647.867188 294.550781 645.878906 288.703125 641.421875 284.679688 Z M 645.394531 300.667969 C 644.75 301.417969 643.140625 301.902344 642.011719 301.632812 C 641.257812 301.472656 641.152344 301.152344 641.097656 301.042969 L 640.992188 300.667969 C 639.808594 297.234375 638.628906 293.691406 636.15625 290.6875 C 634.0625 288.058594 630.570312 285.644531 627.292969 286.558594 C 624.609375 287.308594 622.460938 289.992188 620.847656 294.445312 C 620.042969 296.644531 619.558594 298.953125 619.128906 301.152344 C 618.808594 302.601562 618.539062 303.996094 618.164062 305.390625 C 617.789062 306.730469 616.550781 307.269531 615.476562 307.320312 C 614.886719 307.375 614.027344 307.105469 613.707031 306.839844 C 614.136719 305.230469 614.457031 303.621094 614.832031 302.011719 C 615.585938 298.359375 616.335938 294.875 618.054688 291.867188 C 620.257812 288.003906 623.535156 285.324219 627.242188 284.410156 C 631.269531 283.445312 635.566406 284.570312 638.789062 287.523438 C 642.171875 290.632812 643.890625 295.035156 645.554688 300.023438 C 645.609375 300.238281 645.609375 300.347656 645.394531 300.667969 Z M 620.097656 269.117188 C 620.902344 269.117188 621.707031 269.066406 622.515625 268.957031 C 627.9375 268.207031 632.664062 264.933594 635.136719 260.210938 C 637.285156 256.078125 637.820312 251.464844 638.359375 247.011719 C 638.464844 245.886719 638.628906 244.8125 638.734375 243.792969 C 638.949219 242.074219 637.984375 240.199219 635.242188 239.820312 C 632.074219 239.390625 627.027344 241.054688 626.597656 244.273438 C 626.433594 245.242188 626.328125 246.261719 626.21875 247.226562 C 625.898438 249.800781 625.523438 252.484375 624.984375 255.058594 C 623.964844 259.566406 622.730469 260.535156 622.460938 260.535156 C 620.632812 260.425781 618.109375 258.546875 616.445312 256.671875 C 614.617188 254.632812 613.492188 252.269531 612.953125 249.320312 C 612.523438 247.066406 610.105469 245.9375 606.777344 246.582031 C 603.554688 247.171875 600.277344 249.210938 600.867188 252.269531 C 602.371094 260.800781 610.269531 269.117188 620.097656 269.117188 Z M 606.5625 250.660156 C 607.691406 250.285156 608.65625 250.285156 609.085938 250.390625 C 609.785156 253.824219 611.234375 256.832031 613.492188 259.300781 C 614.566406 260.480469 618.21875 262.949219 622.246094 263.164062 C 625.308594 263.324219 627.5625 261.765625 628.90625 255.972656 C 629.496094 253.234375 629.871094 250.5 630.195312 247.761719 C 630.300781 246.796875 630.410156 245.886719 630.570312 244.917969 C 631.054688 244.222656 633.632812 243.523438 634.761719 243.738281 C 634.652344 244.652344 634.867188 255.382812 633.09375 258.816406 C 631.214844 262.410156 626.433594 266.433594 622.246094 266.972656 C 613.652344 268.152344 606.1875 259.085938 604.734375 251.625 C 604.898438 251.410156 605.488281 250.980469 606.5625 250.660156 Z M 658.394531 272.714844 C 657.15625 271.53125 655.386719 271.265625 654.257812 271.425781 C 651.140625 271.800781 648.617188 271.910156 646.308594 271.746094 C 644.050781 271.585938 643.355469 271.265625 643.085938 270.351562 C 642.710938 269.011719 643.085938 267.292969 644.160156 265.523438 C 645.609375 263.109375 647.703125 261.554688 648.941406 261.230469 C 651.089844 260.746094 653.882812 258.28125 653.238281 255.113281 C 653.023438 253.988281 652.429688 253.128906 651.519531 252.539062 C 649.960938 251.519531 647.917969 251.789062 646.898438 252 C 640.183594 253.503906 630.945312 262.464844 632.289062 272.5 C 633.308594 280.171875 640.132812 281.726562 646.253906 281.726562 C 649.101562 281.726562 651.785156 281.40625 653.667969 281.136719 L 654.097656 281.082031 C 656.621094 280.761719 659.304688 278.9375 659.574219 276.09375 C 659.734375 274.804688 659.304688 273.570312 658.394531 272.714844 Z M 655.652344 275.71875 C 655.546875 276.578125 654.257812 277.058594 653.613281 277.167969 L 653.183594 277.21875 C 645.289062 278.238281 637.125 278.402344 636.210938 271.960938 C 635.191406 264.503906 642.546875 257.046875 647.757812 255.863281 C 648.132812 255.757812 648.511719 255.757812 648.777344 255.757812 C 649.101562 255.757812 649.316406 255.8125 649.371094 255.8125 C 649.371094 255.8125 649.371094 255.8125 649.371094 255.917969 C 649.476562 256.457031 648.617188 257.261719 648.082031 257.367188 C 645.554688 257.957031 642.601562 260.425781 640.777344 263.484375 C 639.164062 266.167969 638.628906 269.011719 639.273438 271.425781 C 640.347656 275.289062 644.160156 275.609375 646.039062 275.71875 C 648.617188 275.878906 651.355469 275.773438 654.792969 275.394531 C 655.171875 275.34375 655.601562 275.503906 655.652344 275.609375 C 655.652344 275.558594 655.652344 275.609375 655.652344 275.71875 Z M 614.671875 276.308594 C 613.0625 265.148438 598.453125 266.917969 592.167969 267.667969 L 591.683594 267.722656 C 589.160156 268.046875 586.257812 269.707031 585.9375 272.714844 C 585.828125 274 586.207031 275.179688 587.117188 276.039062 C 588.40625 277.273438 590.234375 277.542969 591.414062 277.433594 C 594.746094 277.058594 597.429688 276.953125 599.847656 277.113281 C 602.265625 277.273438 603.070312 277.597656 603.339844 278.5625 C 603.714844 279.796875 603.339844 281.40625 602.371094 283.070312 C 600.921875 285.539062 598.503906 287.308594 597.054688 287.628906 C 595.605469 287.953125 594.101562 288.972656 593.242188 290.3125 C 592.542969 291.386719 592.328125 292.566406 592.542969 293.746094 C 593.027344 295.839844 594.746094 297.074219 597.214844 297.074219 C 597.808594 297.074219 598.453125 297.019531 599.097656 296.859375 C 606.347656 295.25 616.121094 286.34375 614.671875 276.308594 Z M 598.453125 292.941406 C 597.429688 293.15625 596.734375 293.050781 596.570312 292.941406 C 596.570312 292.941406 596.570312 292.941406 596.570312 292.886719 C 596.519531 292.78125 596.570312 292.621094 596.734375 292.40625 C 597.054688 291.921875 597.699219 291.546875 598.023438 291.441406 C 600.761719 290.847656 604.039062 288.21875 605.917969 285.054688 C 607.476562 282.425781 607.957031 279.742188 607.261719 277.382812 C 606.132812 273.519531 602.15625 273.25 600.222656 273.089844 C 599.363281 273.035156 598.503906 272.980469 597.59375 272.980469 C 595.605469 272.980469 593.457031 273.144531 590.984375 273.410156 C 590.503906 273.464844 589.964844 273.25 589.910156 273.144531 C 589.910156 273.144531 589.910156 273.089844 589.910156 273.035156 C 589.964844 272.285156 591.308594 271.695312 592.167969 271.585938 L 592.652344 271.53125 C 601.082031 270.511719 609.839844 270.351562 610.75 276.792969 C 611.824219 284.304688 603.984375 291.707031 598.453125 292.941406 Z M 598.453125 292.941406 " fill-opacity="1" fill-rule="nonzero"/></g></svg>