<svg xmlns="http://www.w3.org/2000/svg" xmlns:xlink="http://www.w3.org/1999/xlink" width="1920" zoomAndPan="magnify" viewBox="0 0 1440 809.999993" height="1080" preserveAspectRatio="xMidYMid meet" version="1.0"><defs><filter x="0%" y="0%" width="100%" height="100%" id="85006ff911"><feColorMatrix values="0 0 0 0 1 0 0 0 0 1 0 0 0 0 1 0 0 0 1 0" color-interpolation-filters="sRGB"/></filter><clipPath id="b24537db8b"><path d="M 0 629 L 2 629 L 2 810 L 0 810 Z M 0 629 " clip-rule="nonzero"/></clipPath><clipPath id="a816a2c10c"><path d="M -80.855469 514.078125 L 47.976562 769.976562 L -241.417969 915.671875 L -370.25 659.773438 Z M -80.855469 514.078125 " clip-rule="nonzero"/></clipPath><clipPath id="eca9a9ef0c"><path d="M -80.855469 514.078125 L 47.976562 769.976562 L -241.417969 915.671875 L -370.25 659.773438 Z M -80.855469 514.078125 " clip-rule="nonzero"/></clipPath><mask id="f14f5bdbb0"><g filter="url(#85006ff911)"><rect x="-144" width="1728" fill="#000000" y="-80.999999" height="971.999992" fill-opacity="0.24"/></g></mask><clipPath id="cd53e51cd4"><path d="M 0 0.199219 L 1440 0.199219 L 1440 804.066406 L 0 804.066406 Z M 0 0.199219 " clip-rule="nonzero"/></clipPath><clipPath id="4c2105ef87"><rect x="0" width="1440" y="0" height="805"/></clipPath><clipPath id="f1d46272af"><path d="M 0 506 L 195 506 L 195 809 L 0 809 Z M 0 506 " clip-rule="nonzero"/></clipPath><clipPath id="b2f9f565e2"><path d="M 224.972656 462.367188 L 321.042969 732.277344 L 15.804688 840.925781 L -80.269531 571.011719 Z M 224.972656 462.367188 " clip-rule="nonzero"/></clipPath><clipPath id="fbd11c7d19"><path d="M 224.972656 462.367188 L 321.042969 732.277344 L 15.804688 840.925781 L -80.269531 571.011719 Z M 224.972656 462.367188 " clip-rule="nonzero"/></clipPath><clipPath id="07d2b03d8b"><path d="M 7 578 L 286 578 L 286 810 L 7 810 Z M 7 578 " clip-rule="nonzero"/></clipPath><clipPath id="05c8c18184"><path d="M 224.972656 462.367188 L 321.042969 732.277344 L 15.804688 840.925781 L -80.269531 571.011719 Z M 224.972656 462.367188 " clip-rule="nonzero"/></clipPath><clipPath id="55c07fe722"><path d="M 224.972656 462.367188 L 321.042969 732.277344 L 15.804688 840.925781 L -80.269531 571.011719 Z M 224.972656 462.367188 " clip-rule="nonzero"/></clipPath></defs><rect x="-144" width="1728" fill="#ffffff" y="-80.999999" height="971.999992" fill-opacity="1"/><rect x="-144" width="1728" fill="#807373" y="-80.999999" height="971.999992" fill-opacity="1"/><g clip-path="url(#b24537db8b)"><g clip-path="url(#a816a2c10c)"><g clip-path="url(#eca9a9ef0c)"><path fill="#c3b0b0" d="M -173.476562 800.007812 C -173.070312 799.789062 -172.652344 799.59375 -172.269531 799.347656 C -167.953125 796.617188 -163.269531 794.878906 -158.214844 794.25 C -153.792969 793.691406 -149.34375 793.34375 -144.917969 792.828125 C -142.570312 792.550781 -140.214844 792.210938 -137.898438 791.734375 C -134.441406 791.027344 -131.25 789.554688 -128.085938 788.027344 C -125.355469 786.707031 -122.625 785.363281 -119.789062 784.316406 C -110.890625 781.042969 -101.835938 780.6875 -92.691406 783.339844 C -92.332031 783.441406 -91.949219 783.503906 -91.59375 783.644531 C -87.945312 785.035156 -84.21875 785.117188 -80.390625 784.582031 C -68.101562 782.851562 -56.195312 784.585938 -44.5625 788.660156 C -42.691406 789.316406 -40.871094 790.140625 -39.054688 790.941406 C -38.371094 791.242188 -37.714844 791.65625 -37.113281 792.101562 C -36.570312 792.496094 -36.585938 793.503906 -37.15625 793.808594 C -37.808594 794.160156 -38.523438 794.488281 -39.242188 794.5625 C -40.554688 794.699219 -41.894531 794.714844 -43.21875 794.660156 C -47.046875 794.503906 -50.78125 795.089844 -54.492188 795.925781 C -59.875 797.132812 -65.058594 798.957031 -70.183594 800.941406 C -75.082031 802.835938 -80.121094 804.101562 -85.417969 804.066406 C -89.121094 804.046875 -92.8125 803.777344 -96.457031 803.09375 C -98.511719 802.714844 -100.550781 802.289062 -102.597656 801.894531 C -104.179688 801.597656 -105.761719 801.28125 -107.355469 801.050781 C -110.988281 800.527344 -114.53125 800.839844 -118.003906 802.101562 C -120.847656 803.140625 -123.722656 804.140625 -126.636719 804.964844 C -135.332031 807.433594 -144.152344 808.1875 -153.089844 806.574219 C -154.769531 806.273438 -156.441406 805.898438 -158.078125 805.4375 C -163.5 803.890625 -168.957031 803.890625 -174.40625 805.070312 C -177.429688 805.726562 -179.941406 807.226562 -181.914062 809.792969 C -188.273438 818.054688 -194.503906 826.429688 -201.410156 834.25 C -204.421875 837.660156 -207.714844 840.820312 -210.914062 844.046875 C -212.445312 845.597656 -214.058594 847.0625 -215.621094 848.582031 C -215.785156 848.742188 -215.851562 849.007812 -216.078125 849.445312 C -215.53125 849.425781 -215.171875 849.457031 -214.839844 849.394531 C -212.585938 848.933594 -210.542969 847.953125 -208.542969 846.84375 C -204.386719 844.542969 -200.5625 841.753906 -196.84375 838.808594 C -192.066406 835.011719 -186.933594 831.839844 -181.085938 829.914062 C -174.730469 827.816406 -168.308594 827.253906 -161.746094 828.765625 C -160.269531 829.109375 -158.785156 829.410156 -157.300781 829.726562 C -153.363281 830.589844 -149.394531 830.691406 -145.421875 830.042969 C -142.898438 829.628906 -140.382812 829.148438 -137.875 828.640625 C -130.414062 827.125 -122.898438 826.210938 -115.277344 826.328125 C -112.800781 826.367188 -110.351562 826.550781 -107.960938 827.242188 C -106.488281 827.671875 -105.011719 827.890625 -103.492188 827.992188 C -102.375 828.0625 -101.257812 828.34375 -100.164062 828.636719 C -99.742188 828.746094 -99.355469 829.109375 -99.03125 829.429688 C -98.671875 829.789062 -98.777344 830.757812 -99.230469 830.945312 C -100.003906 831.269531 -100.804688 831.59375 -101.632812 831.734375 C -102.464844 831.875 -103.332031 831.8125 -104.191406 831.8125 C -109.511719 831.863281 -114.515625 833.140625 -119.148438 835.761719 C -122.613281 837.710938 -126.042969 839.738281 -129.46875 841.75 C -135.898438 845.535156 -142.777344 847.65625 -150.296875 847.550781 C -153.648438 847.503906 -156.894531 846.914062 -160.105469 846.011719 C -161.289062 845.679688 -162.46875 845.3125 -163.667969 845.058594 C -168.40625 844.035156 -172.898438 844.738281 -177.144531 847.070312 C -177.894531 847.476562 -178.628906 847.910156 -179.339844 848.371094 C -186.238281 852.878906 -193.929688 855.121094 -202.007812 856.144531 C -204.539062 856.46875 -207.109375 856.601562 -209.660156 856.589844 C -211.148438 856.582031 -212.65625 856.191406 -214.125 855.84375 C -215.519531 855.519531 -216.777344 854.867188 -217.835938 853.839844 C -218.289062 853.394531 -218.867188 853.074219 -219.515625 852.597656 C -223.972656 856.28125 -227.996094 860.25 -231.839844 864.402344 C -231.464844 865.035156 -230.996094 864.75 -230.605469 864.609375 C -224.582031 862.363281 -218.535156 862.535156 -212.460938 864.402344 C -210.5625 864.988281 -208.636719 865.511719 -206.742188 866.109375 C -200.816406 867.96875 -194.828125 868.246094 -188.773438 866.832031 C -187.105469 866.449219 -185.4375 866.105469 -183.785156 865.671875 C -172.949219 862.871094 -162.03125 862.730469 -151.050781 864.699219 C -149.839844 864.917969 -148.617188 865.121094 -147.425781 865.402344 C -146.792969 865.550781 -146.179688 865.828125 -145.59375 866.125 C -145.089844 866.386719 -145.0625 867.253906 -145.535156 867.578125 C -145.917969 867.84375 -146.332031 868.117188 -146.773438 868.226562 C -147.597656 868.4375 -148.445312 868.570312 -149.296875 868.664062 C -154.652344 869.246094 -159.636719 870.945312 -164.332031 873.578125 C -168.304688 875.800781 -172.390625 877.816406 -176.71875 879.257812 C -179.140625 880.066406 -181.617188 880.742188 -184.105469 881.324219 C -186.886719 881.988281 -189.71875 882.199219 -192.582031 881.9375 C -193.625 881.84375 -194.667969 881.804688 -195.707031 881.699219 C -198.28125 881.429688 -200.804688 881.652344 -203.347656 882.128906 C -205.390625 882.515625 -207.460938 882.828125 -209.539062 883.007812 C -213.425781 883.351562 -217.0625 882.484375 -220.425781 880.488281 C -224.007812 878.367188 -227.578125 876.226562 -231.175781 874.132812 C -232.152344 873.5625 -233.191406 873.09375 -234.234375 872.648438 C -236.238281 871.789062 -236.335938 871.800781 -238.96875 872.140625 C -242.425781 875.738281 -245.613281 879.601562 -248.492188 883.734375 C -249.1875 884.746094 -250.007812 885.671875 -250.804688 886.613281 C -251.464844 887.390625 -252.226562 887.457031 -253.113281 886.71875 C -252.992188 886.40625 -252.929688 886.007812 -252.722656 885.730469 C -249.222656 880.890625 -245.984375 875.863281 -241.882812 871.484375 C -240.070312 869.546875 -238.347656 867.519531 -236.5625 865.558594 C -235.179688 864.035156 -235.03125 862.292969 -235.867188 860.550781 C -236.847656 858.511719 -237.945312 856.515625 -239.171875 854.605469 C -242.445312 849.507812 -245.847656 844.5 -249.109375 839.40625 C -251.101562 836.300781 -253.0625 833.164062 -254.8125 829.925781 C -259.578125 821.097656 -260.304688 811.855469 -256.890625 802.433594 C -254.277344 795.214844 -251.722656 787.980469 -249.050781 780.792969 C -246.289062 773.382812 -242.214844 766.644531 -237.371094 760.390625 C -237.140625 760.09375 -236.851562 759.84375 -236.601562 759.582031 C -235.082031 759.953125 -234.847656 760.179688 -235.011719 761.308594 C -235.144531 762.242188 -235.359375 763.167969 -235.582031 764.089844 C -236.203125 766.667969 -236.910156 769.230469 -237.5 771.816406 C -240.34375 784.34375 -241.878906 797.027344 -241.84375 809.890625 C -241.832031 814.300781 -241.023438 818.558594 -239.382812 822.65625 C -238.542969 824.765625 -237.726562 826.890625 -236.84375 828.980469 C -235.613281 831.878906 -234.796875 834.871094 -234.332031 837.988281 C -233.96875 840.425781 -233.359375 842.820312 -232.992188 845.257812 C -232.625 847.695312 -232.339844 850.148438 -232.136719 852.605469 C -231.933594 855.046875 -231.878906 857.503906 -231.75 860.132812 C -231.566406 860.277344 -231.257812 859.988281 -231.003906 859.734375 C -223.480469 852.378906 -215.972656 845 -208.433594 837.660156 C -205.515625 834.816406 -204.0625 831.328125 -203.460938 827.371094 C -202.4375 820.597656 -204.011719 814.375 -207.375 808.542969 C -209.265625 805.269531 -211.425781 802.144531 -213.265625 798.835938 C -215.199219 795.371094 -216.992188 791.816406 -218.691406 788.230469 C -223.585938 777.894531 -223.726562 767.375 -219.640625 756.757812 C -218.886719 754.8125 -218.117188 752.875 -217.359375 750.9375 C -215.929688 747.292969 -215.097656 743.515625 -214.734375 739.613281 C -214.453125 736.585938 -214.191406 733.554688 -213.703125 730.570312 C -211.867188 719.414062 -207.597656 709.324219 -200.425781 700.496094 C -198.214844 697.769531 -195.957031 695.109375 -193.667969 692.519531 C -191.9375 693.070312 -191.714844 693.355469 -192.238281 694.617188 C -196.269531 704.347656 -197.875 714.671875 -199.648438 724.9375 C -200.703125 731.046875 -200.671875 737.21875 -199.464844 743.339844 C -198.425781 748.609375 -198.347656 753.886719 -199.167969 759.191406 C -199.320312 760.222656 -199.417969 761.265625 -199.5 762.296875 C -199.847656 766.53125 -199.402344 770.667969 -197.488281 774.496094 C -194.132812 781.230469 -193.175781 788.339844 -193.582031 795.769531 C -193.890625 801.453125 -194.007812 807.152344 -195.320312 812.722656 C -196.277344 816.78125 -197.375 820.804688 -198.40625 824.84375 C -198.519531 825.28125 -198.644531 825.714844 -198.769531 826.175781 C -198.03125 826.425781 -197.851562 825.855469 -197.605469 825.566406 C -195.976562 823.597656 -194.367188 821.601562 -192.789062 819.59375 C -187.355469 812.644531 -181.945312 805.6875 -176.527344 798.734375 C -175.652344 797.609375 -174.757812 796.5 -173.949219 795.328125 C -173.472656 794.636719 -173.082031 793.867188 -172.769531 793.082031 C -171.484375 789.871094 -170.996094 786.488281 -170.925781 783.058594 C -170.738281 773.980469 -172.65625 765.371094 -176.835938 757.28125 C -178.4375 754.175781 -180.089844 751.082031 -181.605469 747.929688 C -183.539062 743.902344 -185.101562 739.742188 -185.9375 735.332031 C -187.492188 727.199219 -185.679688 719.910156 -180.488281 713.464844 C -179.300781 711.984375 -178.144531 710.480469 -176.855469 709.09375 C -173.957031 705.96875 -171.976562 702.402344 -171.03125 698.210938 C -169.664062 692.152344 -167.214844 686.5 -163.988281 681.207031 C -161.167969 676.585938 -157.988281 672.210938 -154.285156 668.257812 C -151.035156 664.800781 -147.800781 661.332031 -143.945312 658.507812 C -143.027344 657.839844 -142.121094 657.152344 -141.171875 656.523438 C -140.421875 656.027344 -139.632812 655.8125 -138.804688 656.429688 C -137.941406 657.074219 -137.625 657.90625 -137.9375 658.921875 C -138.304688 660.09375 -138.644531 661.289062 -139.167969 662.402344 C -140.785156 665.832031 -142.4375 669.242188 -144.164062 672.609375 C -147.238281 678.589844 -150.390625 684.527344 -153.476562 690.5 C -154.257812 692.011719 -154.96875 693.570312 -155.640625 695.132812 C -157.144531 698.574219 -157.78125 702.183594 -157.78125 705.933594 C -157.78125 708.300781 -157.816406 710.679688 -157.996094 713.042969 C -158.289062 716.96875 -159.425781 720.65625 -161.371094 724.101562 C -162.351562 725.832031 -163.296875 727.582031 -164.242188 729.335938 C -164.597656 730 -164.921875 730.683594 -165.25 731.375 C -166.660156 734.347656 -166.832031 737.382812 -165.679688 740.488281 C -165.253906 741.640625 -164.863281 742.8125 -164.492188 743.988281 C -162.289062 751.0625 -161.476562 758.257812 -162.699219 765.617188 C -163.507812 770.480469 -164.324219 775.347656 -165.210938 780.199219 C -165.53125 781.957031 -166.066406 783.671875 -166.511719 785.4375 C -165.757812 785.738281 -165.550781 785.015625 -165.25 784.675781 C -162.613281 781.695312 -160.097656 778.601562 -157.382812 775.683594 C -151.308594 769.164062 -145.148438 762.71875 -139 756.261719 C -138.214844 755.4375 -137.3125 754.738281 -136.5 753.9375 C -133.046875 750.539062 -130.808594 746.402344 -129.242188 741.863281 C -127.359375 736.441406 -126.253906 730.910156 -126.414062 725.128906 C -126.574219 719.539062 -126.65625 713.9375 -126.628906 708.339844 C -126.601562 700.757812 -126.523438 693.167969 -126.320312 685.582031 C -126.164062 679.539062 -124.761719 673.753906 -122.023438 668.332031 C -120.519531 665.351562 -118.597656 662.683594 -116.339844 660.214844 C -112.40625 655.910156 -107.894531 652.308594 -103.054688 649.125 C -98.214844 645.941406 -93.710938 642.3125 -89.222656 638.679688 C -84.757812 635.066406 -79.824219 632.304688 -74.480469 630.25 C -73.953125 630.046875 -73.398438 629.886719 -72.851562 629.761719 C -72.214844 629.617188 -71.738281 629.949219 -71.402344 630.441406 C -71.105469 630.878906 -71.226562 631.359375 -71.535156 631.753906 C -72.707031 633.25 -73.878906 634.738281 -75.078125 636.207031 C -78.960938 640.992188 -82.851562 645.765625 -86.757812 650.53125 C -88.980469 653.25 -91.257812 655.910156 -93.476562 658.632812 C -96.167969 661.933594 -98.914062 665.207031 -101.476562 668.609375 C -103.875 671.796875 -105.753906 675.324219 -107.273438 679.011719 C -108.433594 681.835938 -109.15625 684.785156 -109.421875 687.824219 C -109.730469 691.332031 -110.367188 694.769531 -111.332031 698.152344 C -112.378906 701.816406 -112.921875 705.570312 -113.03125 709.375 C -113.167969 714.28125 -114.34375 718.917969 -116.339844 723.394531 C -119.394531 730.238281 -122.847656 736.871094 -126.589844 743.355469 C -127.011719 744.082031 -127.488281 744.777344 -128.195312 745.878906 C -126.472656 744.972656 -125.40625 743.957031 -124.292969 743.011719 C -119.035156 738.496094 -114.242188 733.492188 -109.367188 728.582031 C -103.15625 722.328125 -96.847656 716.164062 -90.476562 710.070312 C -86.371094 706.136719 -81.964844 702.539062 -77.308594 699.253906 C -68.886719 693.324219 -59.886719 688.523438 -50.039062 685.425781 C -36.695312 681.222656 -23.097656 678.296875 -9.082031 677.539062 C -6.625 677.40625 -4.15625 677.324219 -1.691406 677.304688 C -0.960938 677.304688 -0.183594 677.492188 0.484375 677.78125 C 1.414062 678.191406 1.472656 679.296875 0.59375 679.808594 C -0.378906 680.386719 -1.398438 680.917969 -2.457031 681.324219 C -9.378906 683.957031 -16.007812 687.214844 -22.601562 690.566406 C -30.03125 694.347656 -37.421875 698.210938 -44.496094 702.636719 C -48.523438 705.160156 -52.226562 708.109375 -55.726562 711.320312 C -59.074219 714.394531 -62.382812 717.523438 -66.179688 720.0625 C -72.582031 724.339844 -79.664062 726.9375 -87.148438 728.519531 C -90.488281 729.222656 -93.84375 729.890625 -97.226562 730.320312 C -102.40625 730.972656 -107.121094 732.933594 -111.707031 735.203125 C -113.355469 736.015625 -114.65625 737.546875 -116.070312 738.796875 C -119.820312 742.140625 -123.574219 745.484375 -127.277344 748.875 C -131.261719 752.523438 -135.394531 756.011719 -139.066406 759.996094 C -141.25 762.367188 -143.527344 764.640625 -145.777344 766.972656 C -145.136719 767.644531 -144.648438 767.058594 -144.261719 766.863281 C -140.617188 765.027344 -137.171875 762.855469 -133.898438 760.414062 C -128.882812 756.679688 -123.792969 753.0625 -118.339844 749.960938 C -112.992188 746.917969 -107.335938 745.414062 -101.167969 746.003906 C -99.476562 746.164062 -97.765625 746.265625 -96.054688 746.300781 C -93.5 746.359375 -90.9375 746.378906 -88.378906 746.339844 C -85.609375 746.296875 -82.917969 745.742188 -80.28125 744.902344 C -78.566406 744.347656 -76.855469 743.785156 -75.15625 743.203125 C -61.714844 738.574219 -47.9375 737.523438 -33.886719 739.171875 C -29.269531 739.714844 -24.675781 740.4375 -20.222656 741.792969 C -18.507812 742.3125 -16.828125 742.992188 -15.15625 743.660156 C -14.191406 744.050781 -13.265625 744.550781 -13.019531 745.714844 C -13.757812 746.976562 -14.988281 747.183594 -16.234375 747.222656 C -18.605469 747.292969 -20.972656 747.304688 -23.34375 747.273438 C -26.386719 747.238281 -29.40625 747.457031 -32.402344 747.988281 C -37.808594 748.945312 -42.722656 751.070312 -47.242188 754.175781 C -52.496094 757.773438 -58.023438 760.863281 -63.871094 763.394531 C -70.785156 766.382812 -77.976562 767.691406 -85.492188 767.425781 C -89.285156 767.292969 -93.074219 767.230469 -96.867188 767.191406 C -100.519531 767.15625 -104.015625 767.851562 -107.308594 769.535156 C -113.617188 772.75 -120.421875 773.753906 -127.417969 773.984375 C -132.269531 774.148438 -137.085938 774.015625 -141.828125 772.835938 C -142.746094 772.605469 -143.695312 772.496094 -144.636719 772.429688 C -146.617188 772.28125 -148.601562 772.207031 -150.644531 772.09375 C -158.863281 780.917969 -166.527344 790.140625 -173.863281 799.640625 C -173.730469 799.773438 -173.601562 799.90625 -173.472656 800.03125 Z M -173.476562 800.007812 " fill-opacity="1" fill-rule="nonzero"/></g></g></g><g mask="url(#f14f5bdbb0)"><g transform="matrix(1, 0, 0, 1, 0, 0.000000000000039746)"><g clip-path="url(#4c2105ef87)"><g clip-path="url(#cd53e51cd4)"><path fill="#c3b0b0" d="M 0 0.199219 L 1441.3125 0.199219 L 1441.3125 804.066406 L 0 804.066406 Z M 0 0.199219 " fill-opacity="1" fill-rule="nonzero"/></g></g></g></g><g clip-path="url(#f1d46272af)"><g clip-path="url(#b2f9f565e2)"><g clip-path="url(#fbd11c7d19)"><path fill="#5b4b4b" d="M -18.957031 741.835938 C -20.351562 737.917969 -20.984375 733.707031 -20.863281 729.203125 C -20.789062 726.738281 -20.726562 724.269531 -20.664062 721.796875 C -20.535156 716.683594 -20.394531 711.390625 -20.203125 706.191406 C -19.921875 698.773438 -18.371094 691.171875 -15.464844 682.941406 C -15.363281 682.652344 -15.222656 682.390625 -15.105469 682.152344 C -15.058594 682.050781 -15.007812 681.957031 -14.957031 681.867188 L -14.777344 681.5 L -14.367188 681.46875 C -12.835938 681.351562 -11.875 681.402344 -11.5625 683.195312 C -11.378906 684.191406 -11.296875 685.210938 -11.226562 686.089844 C -11.144531 687.121094 -11.070312 688.148438 -10.996094 689.183594 C -10.882812 690.773438 -10.773438 692.414062 -10.617188 694.015625 C -9.367188 707.066406 -6.757812 719.632812 -2.847656 731.378906 C -1.484375 735.480469 0.605469 739.21875 3.363281 742.5 C 3.769531 742.988281 4.175781 743.476562 4.585938 743.96875 C 5.613281 745.203125 6.675781 746.472656 7.742188 747.699219 C 9.835938 750.078125 11.570312 752.667969 13.046875 755.617188 C 13.605469 756.71875 14.234375 757.824219 14.835938 758.886719 C 15.433594 759.925781 16.042969 761.003906 16.597656 762.09375 C 17.660156 764.1875 18.714844 766.464844 19.726562 768.851562 C 20.390625 770.425781 20.988281 772.003906 21.621094 773.667969 C 21.746094 774.023438 21.882812 774.367188 22.019531 774.726562 C 23.734375 771.417969 25.445312 768.105469 27.160156 764.789062 C 30.191406 758.921875 33.230469 753.050781 36.28125 747.1875 C 37.945312 743.988281 38.414062 740.433594 37.703125 736.304688 C 36.632812 730.0625 33.570312 724.75 28.3125 720.0625 C 27.023438 718.917969 25.667969 717.789062 24.359375 716.699219 C 22.800781 715.410156 21.199219 714.074219 19.675781 712.683594 C 16.964844 710.1875 14.179688 707.4375 11.164062 704.277344 C 3.324219 696.042969 -0.367188 685.914062 0.203125 674.164062 C 0.269531 672.738281 0.359375 671.316406 0.441406 669.894531 L 0.550781 667.917969 C 0.753906 664.199219 0.417969 660.476562 -0.492188 656.546875 L -0.648438 655.847656 C -1.269531 653.15625 -1.917969 650.363281 -2.355469 647.585938 C -4.167969 636.042969 -3.085938 624.90625 0.863281 614.5 C 2.097656 611.253906 3.417969 607.988281 4.792969 604.78125 L 4.972656 604.355469 L 5.4375 604.347656 C 6.457031 604.339844 7.277344 604.371094 7.773438 604.902344 C 8.222656 605.382812 8.214844 606.054688 8.164062 606.652344 C 7.4375 616.378906 8.90625 626.136719 10.316406 635.570312 L 10.617188 637.609375 C 11.53125 643.734375 13.5 649.511719 16.476562 654.785156 C 19.109375 659.453125 20.90625 664.566406 21.804688 669.96875 C 21.972656 670.996094 22.21875 672.015625 22.453125 672.976562 C 23.535156 677.457031 25.351562 680.933594 27.996094 683.597656 C 32.941406 688.582031 36.402344 694.894531 38.5625 702.886719 C 38.765625 703.65625 38.980469 704.425781 39.195312 705.199219 C 40.480469 709.863281 41.8125 714.691406 42.25 719.660156 C 42.5 722.566406 42.6875 725.527344 42.867188 728.386719 C 42.9375 729.425781 43 730.464844 43.066406 731.5 C 43.929688 729.273438 44.707031 727.199219 45.425781 725.203125 C 48.042969 717.914062 50.644531 710.621094 53.246094 703.332031 L 54.613281 699.523438 C 54.988281 698.46875 55.386719 697.378906 55.703125 696.304688 C 55.910156 695.597656 56.039062 694.8125 56.09375 693.957031 C 56.28125 690.921875 55.832031 687.699219 54.730469 684.117188 C 52.082031 675.484375 47.53125 667.96875 41.222656 661.785156 C 40.621094 661.195312 40.011719 660.605469 39.410156 660.011719 C 37.535156 658.1875 35.597656 656.300781 33.746094 654.378906 C 30.242188 650.742188 27.574219 647.21875 25.574219 643.628906 C 21.464844 636.234375 20.886719 628.472656 23.855469 620.5625 L 24.25 619.496094 C 24.773438 618.082031 25.308594 616.625 25.945312 615.222656 C 27.722656 611.328125 28.398438 607.464844 28.003906 603.417969 C 27.429688 597.484375 27.890625 591.226562 29.382812 584.835938 C 30.722656 579.078125 32.429688 574.011719 34.589844 569.355469 L 34.699219 569.128906 C 36.640625 564.945312 38.65625 560.617188 41.417969 556.75 L 41.828125 556.175781 C 42.347656 555.449219 42.882812 554.691406 43.449219 553.972656 C 44.296875 552.886719 45.304688 552.527344 46.449219 552.902344 C 47.773438 553.34375 48.519531 554.320312 48.539062 555.664062 L 48.546875 556.15625 C 48.570312 557.234375 48.589844 558.347656 48.457031 559.449219 C 47.894531 563.972656 47.417969 567.449219 46.90625 570.734375 C 46.328125 574.445312 45.71875 578.148438 45.109375 581.851562 C 44.625 584.789062 44.144531 587.714844 43.675781 590.65625 C 43.398438 592.410156 43.214844 594.183594 43.082031 595.6875 C 42.757812 599.175781 43.1875 602.652344 44.402344 606.324219 C 45.070312 608.347656 45.832031 610.742188 46.449219 613.191406 C 47.417969 617.078125 47.507812 621.074219 46.710938 625.058594 C 46.320312 627.011719 45.964844 629 45.625 630.914062 C 45.507812 631.5625 45.425781 632.242188 45.34375 632.902344 L 45.320312 633.128906 C 44.929688 636.257812 45.679688 638.96875 47.621094 641.386719 C 48.367188 642.328125 49.125 643.328125 49.871094 644.367188 C 54.5625 650.929688 57.375 657.558594 58.46875 664.648438 L 58.492188 664.804688 C 59.222656 669.546875 59.984375 674.449219 60.65625 679.289062 C 60.8125 680.421875 60.886719 681.585938 60.949219 682.707031 C 61.460938 681.503906 61.957031 680.292969 62.453125 679.085938 C 63.363281 676.863281 64.304688 674.570312 65.328125 672.351562 C 68.414062 665.652344 71.621094 658.875 74.71875 652.328125 L 76.703125 648.140625 C 76.984375 647.535156 77.320312 646.964844 77.644531 646.410156 C 77.886719 645.992188 78.136719 645.566406 78.359375 645.132812 C 80.324219 641.308594 81.3125 636.910156 81.390625 631.710938 C 81.476562 625.609375 80.675781 620.261719 78.941406 615.386719 C 78.914062 615.320312 78.890625 615.253906 78.867188 615.1875 C 76.921875 609.808594 75.082031 604.460938 73.390625 599.292969 C 70.664062 590.929688 68.492188 584.027344 66.550781 577.570312 C 64.753906 571.621094 64.304688 565.550781 65.199219 559.539062 C 65.683594 556.308594 66.636719 553.136719 68.105469 549.859375 C 70.332031 544.902344 73.347656 540.046875 77.332031 535.011719 C 81.023438 530.355469 84.28125 525.285156 87.15625 520.8125 C 90.1875 516.085938 94.066406 511.785156 98.660156 508.023438 C 99.09375 507.667969 99.59375 507.324219 100.140625 506.996094 C 100.890625 506.539062 101.734375 506.625 102.519531 507.222656 C 103.148438 507.699219 103.34375 508.484375 103.046875 509.320312 C 102.429688 511.03125 101.765625 512.855469 101.078125 514.667969 C 98.886719 520.425781 96.691406 526.1875 94.480469 531.929688 C 93.886719 533.480469 93.269531 535.027344 92.660156 536.570312 C 91.980469 538.285156 91.296875 540.007812 90.636719 541.726562 C 90.320312 542.554688 90 543.382812 89.675781 544.214844 C 88.488281 547.304688 87.253906 550.5 86.175781 553.675781 C 84.996094 557.171875 84.273438 560.9375 83.964844 565.195312 C 83.75 568.167969 83.992188 571.136719 84.667969 574.023438 C 85.480469 577.476562 85.96875 581.023438 86.105469 584.566406 C 86.257812 588.203125 86.882812 591.914062 87.984375 595.582031 C 89.371094 600.214844 89.789062 605.003906 89.261719 610.207031 C 88.558594 617.183594 87.4375 624.324219 85.863281 632.023438 C 86 631.792969 86.140625 631.570312 86.269531 631.34375 L 86.542969 630.886719 C 89.550781 625.898438 92.183594 620.582031 94.730469 615.445312 C 95.210938 614.484375 95.6875 613.515625 96.167969 612.554688 C 99.902344 605.078125 103.875 597.390625 108.3125 589.039062 C 110.960938 584.058594 114.046875 579.179688 117.488281 574.542969 C 124.140625 565.578125 131.238281 558.433594 139.203125 552.707031 C 151.71875 543.703125 163.6875 537.023438 175.78125 532.296875 C 178.175781 531.363281 180.527344 530.503906 182.761719 529.746094 C 183.507812 529.496094 184.390625 529.398438 185.269531 529.476562 C 186.011719 529.546875 186.605469 529.964844 186.855469 530.609375 C 187.101562 531.25 186.972656 531.976562 186.476562 532.542969 C 185.589844 533.550781 184.773438 534.363281 183.964844 535.019531 C 178.023438 539.84375 172.507812 545.3125 167.792969 550.0625 C 162.496094 555.40625 156.375 561.65625 150.824219 568.339844 C 148.046875 571.6875 145.46875 575.496094 142.953125 580 L 142.394531 580.996094 C 140.386719 584.597656 138.316406 588.324219 135.703125 591.671875 C 131.265625 597.355469 125.550781 602.191406 118.246094 606.449219 C 115.40625 608.101562 112.351562 609.835938 109.1875 611.347656 C 104.320312 613.667969 100.378906 617.214844 97.160156 620.386719 C 96.273438 621.261719 95.652344 622.429688 95 623.671875 C 94.757812 624.128906 94.519531 624.582031 94.269531 625.015625 C 91.582031 629.65625 89.167969 633.835938 86.785156 638.089844 C 86.144531 639.230469 85.5 640.363281 84.851562 641.496094 C 82.851562 644.980469 80.792969 648.582031 79.105469 652.292969 C 78.1875 654.324219 77.191406 656.355469 76.230469 658.328125 C 76.152344 658.488281 76.074219 658.648438 75.996094 658.808594 C 78.441406 656.28125 80.714844 653.507812 82.921875 650.363281 C 86.339844 645.492188 90.105469 640.328125 94.480469 635.492188 C 98.960938 630.539062 104.011719 627.484375 109.914062 626.144531 C 111.523438 625.78125 113.175781 625.335938 114.8125 624.835938 C 117.46875 624.027344 119.851562 623.253906 122.082031 622.476562 C 124.425781 621.65625 126.734375 620.414062 129.132812 618.671875 C 130.699219 617.523438 132.121094 616.476562 133.460938 615.457031 C 144.429688 607.109375 156.929688 601.582031 171.675781 598.566406 C 175.472656 597.785156 180.484375 596.882812 185.597656 596.757812 C 187.367188 596.714844 189.164062 596.828125 190.890625 596.9375 L 191.050781 596.949219 C 192.230469 597.019531 193.53125 597.269531 194.296875 598.574219 L 194.433594 598.808594 L 194.378906 599.078125 C 194.003906 600.84375 192.632812 601.566406 191.347656 602.03125 C 189.253906 602.792969 187.042969 603.542969 184.582031 604.320312 C 181.648438 605.25 178.867188 606.414062 176.328125 607.785156 C 171.757812 610.246094 167.746094 613.722656 164.394531 618.109375 C 160.453125 623.28125 156.082031 628.015625 151.402344 632.179688 C 145.777344 637.179688 139.203125 640.800781 131.859375 642.933594 C 127.917969 644.078125 123.984375 645.320312 121 646.269531 C 117.4375 647.402344 114.523438 649.148438 112.109375 651.589844 C 107.699219 656.042969 102.160156 659.339844 94.15625 662.28125 C 90.089844 663.773438 85.21875 665.355469 79.910156 665.746094 C 79.140625 665.800781 78.3125 665.953125 77.230469 666.21875 C 75.882812 666.554688 74.566406 666.917969 73.171875 667.300781 L 71.753906 667.695312 C 67.363281 677.261719 63.257812 687.4375 59.226562 698.71875 C 62.472656 694.941406 66.324219 691.972656 70.703125 689.886719 C 72.9375 688.820312 75.242188 687.804688 77.460938 686.820312 C 79.242188 686.027344 81.089844 685.210938 82.886719 684.375 C 85.253906 683.277344 87.304688 682.222656 89.15625 681.164062 C 92.117188 679.472656 94.640625 677.125 97.171875 674.671875 L 97.644531 674.21875 C 99.648438 672.277344 101.714844 670.277344 103.941406 668.511719 C 111.5 662.515625 120.199219 659.292969 129.78125 658.933594 C 129.90625 658.925781 130.039062 658.917969 130.167969 658.90625 C 130.425781 658.882812 130.695312 658.863281 130.980469 658.875 C 134.355469 659.027344 137.722656 658.222656 141.566406 656.328125 C 152.175781 651.089844 163.828125 648.660156 177.195312 648.902344 C 178.984375 648.9375 180.777344 649.109375 182.519531 649.28125 L 183.1875 649.34375 C 183.890625 649.410156 184.660156 649.582031 185.542969 649.863281 C 186.085938 650.039062 186.523438 650.53125 186.679688 651.136719 C 186.824219 651.710938 186.699219 652.285156 186.328125 652.664062 C 185.796875 653.222656 185.148438 653.835938 184.363281 654.191406 C 183.234375 654.699219 181.976562 655.148438 180.511719 655.5625 C 177.394531 656.453125 174.269531 657.890625 170.371094 660.226562 C 165.375 663.226562 160.867188 666.773438 157.128906 669.851562 C 152.5 673.652344 148.011719 676.230469 143.414062 677.722656 C 139.515625 678.984375 135.949219 679.820312 132.5 680.289062 C 131.402344 680.4375 130.296875 680.574219 129.195312 680.710938 C 128.226562 680.832031 127.261719 680.957031 126.296875 681.082031 L 125.460938 681.191406 C 124.171875 681.355469 122.835938 681.53125 121.546875 681.761719 C 118.003906 682.390625 114.824219 683.800781 112.078125 685.953125 C 109.808594 687.742188 107.351562 689.640625 104.738281 691.40625 C 96.6875 696.863281 88.535156 700.109375 79.820312 701.335938 C 77.933594 701.601562 76.25 701.765625 74.652344 701.828125 C 69.402344 702.039062 64.261719 703.613281 59.371094 706.5 C 56.761719 708.039062 55.019531 710.148438 54.03125 712.957031 C 53.492188 714.496094 52.957031 716.035156 52.421875 717.574219 C 49.578125 725.757812 46.632812 734.222656 43.15625 742.339844 C 41.796875 745.503906 40.222656 748.625 38.695312 751.644531 C 38.1875 752.648438 37.683594 753.648438 37.183594 754.65625 C 36.585938 755.855469 35.945312 757.054688 35.316406 758.210938 C 35.023438 758.761719 34.726562 759.304688 34.4375 759.851562 C 36.320312 758.707031 37.878906 757.148438 39.15625 755.769531 C 41.914062 752.789062 44.539062 749.332031 47.671875 744.566406 C 51.480469 738.765625 55.519531 734.328125 60.019531 730.996094 C 65.828125 726.699219 71.832031 724.3125 78.386719 723.703125 C 79.359375 723.617188 80.328125 723.511719 81.300781 723.398438 C 81.835938 723.335938 82.367188 723.285156 82.902344 723.226562 C 86.808594 722.816406 90.550781 721.695312 94.027344 719.878906 C 96.082031 718.800781 98.28125 717.59375 100.734375 716.195312 C 108.066406 712.011719 114.894531 708.957031 121.613281 706.859375 C 123.734375 706.195312 126.277344 705.507812 129.03125 705.398438 C 130.386719 705.355469 131.804688 705.128906 133.359375 704.726562 C 134.503906 704.433594 135.714844 704.339844 136.859375 704.277344 C 137.457031 704.246094 138.019531 704.492188 138.539062 704.75 C 139.078125 705.011719 139.332031 705.621094 139.394531 706.09375 C 139.46875 706.640625 139.316406 707.125 138.984375 707.417969 C 138.363281 707.960938 137.632812 708.574219 136.816406 709.007812 C 136.210938 709.332031 135.566406 709.535156 134.941406 709.730469 C 134.734375 709.796875 134.523438 709.863281 134.308594 709.933594 C 129.335938 711.625 125.070312 714.394531 121.632812 718.171875 C 119.105469 720.949219 116.585938 723.816406 114.148438 726.597656 L 113.714844 727.089844 C 108.414062 733.128906 102.433594 737.132812 95.4375 739.335938 C 92.445312 740.28125 89.1875 740.816406 85.464844 740.980469 L 84.585938 741.015625 C 83.671875 741.046875 82.730469 741.085938 81.824219 741.183594 C 77.238281 741.679688 73.289062 743.664062 70.097656 747.097656 C 69.476562 747.761719 68.945312 748.382812 68.457031 748.984375 C 63.714844 754.921875 57.390625 759.726562 49.117188 763.671875 C 46.894531 764.734375 44.472656 765.6875 41.898438 766.527344 C 40.542969 766.964844 39.105469 767.09375 37.714844 767.210938 L 37.269531 767.25 C 35.664062 767.390625 34.140625 767.117188 32.746094 766.441406 C 32.417969 766.277344 32.035156 766.171875 31.589844 766.046875 C 31.523438 766.023438 31.457031 766.003906 31.378906 765.984375 C 28.953125 769.890625 26.707031 774.097656 24.382812 779.066406 C 29.15625 775.414062 34.746094 773.578125 41.453125 773.441406 C 42.351562 773.421875 43.25 773.390625 44.152344 773.363281 C 45.238281 773.324219 46.332031 773.285156 47.417969 773.269531 C 53.527344 773.1875 59.230469 771.558594 64.351562 768.433594 C 64.859375 768.121094 65.375 767.8125 65.890625 767.507812 C 66.824219 766.949219 67.792969 766.371094 68.710938 765.78125 C 77.796875 759.925781 88.25 756.128906 99.769531 754.492188 L 100.414062 754.398438 C 101.410156 754.253906 102.441406 754.105469 103.472656 754.019531 C 104.085938 753.964844 104.761719 754.003906 105.609375 754.136719 C 106.113281 754.214844 106.535156 754.578125 106.742188 755.09375 C 106.953125 755.609375 106.890625 756.214844 106.574219 756.636719 C 106.265625 757.039062 105.902344 757.5 105.410156 757.808594 C 104.722656 758.242188 103.957031 758.652344 103.066406 759.058594 C 98.429688 761.175781 94.21875 764.269531 90.558594 768.269531 C 86.898438 772.269531 83.695312 775.242188 80.480469 777.636719 C 78.539062 779.078125 76.433594 780.492188 74.0625 781.953125 C 71.539062 783.5 68.824219 784.617188 65.988281 785.277344 C 65.542969 785.382812 65.09375 785.5 64.652344 785.609375 C 64.082031 785.761719 63.515625 785.902344 62.941406 786.03125 C 60.726562 786.511719 58.460938 787.40625 56.019531 788.757812 C 54.03125 789.859375 52.175781 790.78125 50.351562 791.566406 C 46.675781 793.152344 42.789062 793.507812 38.785156 792.625 L 35.480469 791.898438 C 32.523438 791.242188 29.554688 790.585938 26.589844 789.957031 C 25.488281 789.722656 24.363281 789.601562 23.304688 789.511719 C 21.394531 789.347656 21.324219 789.34375 19.242188 790.332031 C 17.117188 794.792969 15.351562 799.394531 13.984375 803.992188 C 13.660156 805.078125 13.230469 806.136719 12.808594 807.152344 L 12.660156 807.515625 C 12.121094 808.835938 11 809.28125 9.589844 808.726562 L 9.117188 808.542969 L 9.140625 808.035156 C 9.144531 807.945312 9.144531 807.855469 9.140625 807.757812 C 9.132812 807.480469 9.121094 807.132812 9.230469 806.785156 C 9.640625 805.484375 10.039062 804.175781 10.433594 802.867188 C 11.753906 798.519531 13.121094 794.019531 15.089844 789.777344 C 15.742188 788.371094 16.367188 786.910156 16.972656 785.5 C 17.40625 784.492188 17.832031 783.492188 18.28125 782.488281 C 18.96875 780.949219 18.707031 779.535156 17.511719 778.296875 C 15.914062 776.636719 14.25 775.101562 12.578125 773.738281 C 10.246094 771.84375 7.84375 769.949219 5.519531 768.117188 C 3.171875 766.257812 0.742188 764.34375 -1.628906 762.414062 C -4.847656 759.800781 -7.515625 757.566406 -10.054688 755.164062 C -14.222656 751.222656 -17.199219 746.753906 -18.960938 741.800781 Z M -13.859375 682.859375 C -13.960938 683.054688 -14.054688 683.238281 -14.117188 683.421875 C -16.976562 691.511719 -18.5 698.972656 -18.773438 706.25 C -18.96875 711.441406 -19.105469 716.722656 -19.234375 721.839844 C -19.296875 724.308594 -19.359375 726.78125 -19.4375 729.253906 C -19.714844 739.027344 -16.226562 747.410156 -9.074219 754.171875 C -6.566406 756.542969 -3.925781 758.757812 -0.726562 761.355469 C 1.636719 763.269531 4.058594 765.1875 6.40625 767.042969 C 8.730469 768.878906 11.128906 770.773438 13.472656 772.675781 C 15.191406 774.074219 16.894531 775.644531 18.53125 777.34375 C 20.117188 778.996094 20.492188 781.039062 19.574219 783.097656 C 19.132812 784.089844 18.703125 785.085938 18.277344 786.089844 C 17.667969 787.511719 17.042969 788.976562 16.378906 790.402344 C 14.449219 794.554688 13.097656 799.003906 11.789062 803.3125 C 11.390625 804.621094 10.992188 805.9375 10.578125 807.246094 C 10.550781 807.324219 10.546875 807.4375 10.546875 807.566406 C 10.984375 807.636719 11.179688 807.414062 11.339844 807.003906 L 11.488281 806.636719 C 11.890625 805.648438 12.308594 804.625 12.609375 803.609375 C 14.023438 798.855469 15.851562 794.117188 18.054688 789.511719 L 18.164062 789.285156 L 18.386719 789.175781 C 20.847656 788 21.046875 787.90625 23.410156 788.113281 C 24.511719 788.207031 25.695312 788.332031 26.867188 788.574219 C 29.839844 789.203125 32.804688 789.859375 35.773438 790.519531 L 39.070312 791.25 C 42.773438 792.066406 46.375 791.734375 49.773438 790.273438 C 51.546875 789.507812 53.363281 788.613281 55.3125 787.535156 C 57.878906 786.109375 60.273438 785.175781 62.621094 784.664062 C 63.179688 784.539062 63.730469 784.394531 64.285156 784.257812 C 64.742188 784.140625 65.195312 784.023438 65.652344 783.914062 C 68.339844 783.289062 70.914062 782.230469 73.304688 780.761719 C 75.648438 779.324219 77.707031 777.9375 79.621094 776.515625 C 82.765625 774.179688 85.90625 771.257812 89.503906 767.335938 C 93.289062 763.199219 97.652344 759.992188 102.46875 757.796875 C 103.296875 757.417969 104.007812 757.035156 104.640625 756.636719 C 104.929688 756.453125 105.199219 756.113281 105.429688 755.808594 C 105.457031 755.757812 105.414062 755.59375 105.355469 755.5625 C 104.648438 755.453125 104.078125 755.414062 103.582031 755.464844 C 102.59375 755.542969 101.582031 755.691406 100.605469 755.835938 L 99.953125 755.933594 C 88.632812 757.546875 78.371094 761.265625 69.457031 767.007812 C 68.515625 767.613281 67.539062 768.195312 66.59375 768.761719 C 66.085938 769.066406 65.578125 769.375 65.070312 769.683594 C 59.730469 772.941406 53.789062 774.640625 47.417969 774.730469 C 46.339844 774.746094 45.261719 774.78125 44.183594 774.820312 C 43.273438 774.851562 42.367188 774.886719 41.460938 774.898438 C 34.832031 775.03125 29.355469 776.90625 24.722656 780.625 L 24.628906 780.703125 C 24.359375 780.933594 23.523438 781.640625 22.578125 780.800781 L 22.183594 780.453125 L 22.402344 779.972656 C 25.082031 774.101562 27.636719 769.285156 30.445312 764.820312 L 30.738281 764.351562 L 31.265625 764.519531 C 31.511719 764.597656 31.738281 764.660156 31.957031 764.726562 C 32.441406 764.863281 32.902344 764.992188 33.34375 765.210938 C 34.5 765.773438 35.777344 765.996094 37.121094 765.878906 L 37.566406 765.839844 C 38.882812 765.726562 40.230469 765.605469 41.433594 765.214844 C 43.945312 764.398438 46.316406 763.464844 48.480469 762.429688 C 56.554688 758.582031 62.714844 753.90625 67.320312 748.136719 C 67.828125 747.507812 68.386719 746.863281 69.03125 746.167969 C 72.464844 742.480469 76.710938 740.34375 81.644531 739.808594 C 82.601562 739.710938 83.566406 739.667969 84.503906 739.636719 L 85.371094 739.597656 C 88.964844 739.433594 92.109375 738.914062 94.984375 738.015625 C 101.730469 735.890625 107.5 732.023438 112.621094 726.183594 L 113.058594 725.691406 C 115.496094 722.910156 118.015625 720.03125 120.558594 717.242188 C 124.160156 713.289062 128.621094 710.382812 133.824219 708.613281 C 134.042969 708.535156 134.261719 708.472656 134.484375 708.398438 C 135.074219 708.214844 135.628906 708.039062 136.117188 707.78125 C 136.777344 707.433594 137.394531 706.921875 137.960938 706.417969 C 137.972656 706.308594 137.917969 706.085938 137.847656 706.019531 C 137.628906 705.917969 137.183594 705.691406 136.902344 705.710938 C 135.789062 705.773438 134.699219 705.851562 133.679688 706.113281 C 132.023438 706.542969 130.507812 706.773438 129.050781 706.824219 C 126.460938 706.917969 124.039062 707.582031 122.007812 708.21875 C 115.386719 710.289062 108.648438 713.304688 101.410156 717.429688 C 98.945312 718.84375 96.730469 720.054688 94.65625 721.136719 C 91.027344 723.03125 87.109375 724.214844 83.027344 724.636719 C 82.496094 724.691406 81.96875 724.75 81.433594 724.8125 C 80.457031 724.917969 79.476562 725.027344 78.492188 725.121094 C 72.207031 725.703125 66.433594 727.996094 60.839844 732.132812 C 56.417969 735.410156 52.605469 739.601562 48.835938 745.339844 C 45.65625 750.179688 42.988281 753.6875 40.175781 756.730469 C 38.757812 758.269531 37.011719 760.003906 34.828125 761.257812 C 34.570312 761.398438 34.316406 761.492188 34.019531 761.589844 C 33.886719 761.636719 33.738281 761.6875 33.566406 761.75 L 32.425781 762.171875 L 32.617188 760.972656 C 32.644531 760.8125 32.65625 760.679688 32.667969 760.5625 C 32.695312 760.296875 32.714844 760.042969 32.851562 759.789062 C 33.246094 759.03125 33.648438 758.285156 34.054688 757.539062 C 34.671875 756.394531 35.3125 755.207031 35.898438 754.027344 C 36.398438 753.019531 36.90625 752.011719 37.417969 751.007812 C 38.929688 748.007812 40.5 744.902344 41.839844 741.785156 C 45.292969 733.714844 48.222656 725.273438 51.066406 717.113281 C 51.601562 715.574219 52.140625 714.035156 52.675781 712.496094 C 53.773438 709.359375 55.722656 707 58.628906 705.285156 C 63.726562 702.28125 69.09375 700.644531 74.582031 700.414062 C 76.125 700.355469 77.765625 700.199219 79.601562 699.9375 C 88.09375 698.746094 96.054688 695.574219 103.925781 690.234375 C 106.496094 688.488281 108.933594 686.613281 111.1875 684.839844 C 114.109375 682.535156 117.503906 681.03125 121.28125 680.367188 C 122.609375 680.132812 123.960938 679.953125 125.261719 679.785156 L 126.097656 679.675781 C 127.070312 679.546875 128.039062 679.429688 129.007812 679.300781 C 130.105469 679.167969 131.210938 679.03125 132.300781 678.882812 C 135.664062 678.433594 139.152344 677.605469 142.964844 676.375 C 147.394531 674.941406 151.726562 672.453125 156.21875 668.757812 C 160 665.648438 164.558594 662.054688 169.636719 659.011719 C 173.648438 656.613281 176.878906 655.125 180.121094 654.203125 C 181.515625 653.804688 182.703125 653.382812 183.769531 652.902344 C 184.335938 652.648438 184.855469 652.148438 185.289062 651.691406 C 185.300781 651.679688 185.320312 651.605469 185.289062 651.480469 C 185.242188 651.347656 185.160156 651.242188 185.097656 651.21875 C 184.316406 650.960938 183.636719 650.820312 183.039062 650.761719 L 182.367188 650.691406 C 180.648438 650.527344 178.878906 650.351562 177.148438 650.320312 C 164.019531 650.082031 152.582031 652.464844 142.179688 657.601562 C 138.109375 659.605469 134.527344 660.464844 130.898438 660.296875 C 130.691406 660.289062 130.480469 660.304688 130.269531 660.324219 C 130.121094 660.339844 129.96875 660.347656 129.820312 660.355469 C 120.542969 660.699219 112.125 663.824219 104.808594 669.628906 C 102.640625 671.347656 100.59375 673.328125 98.613281 675.246094 L 98.140625 675.699219 C 95.539062 678.214844 92.949219 680.621094 89.84375 682.398438 C 87.953125 683.476562 85.867188 684.550781 83.464844 685.660156 C 81.65625 686.5 79.804688 687.324219 78.015625 688.121094 C 75.804688 689.105469 73.515625 690.121094 71.292969 691.175781 C 66.867188 693.277344 63 696.328125 59.789062 700.234375 C 59.582031 700.488281 59.34375 700.730469 59.113281 700.972656 C 59.011719 701.074219 58.910156 701.171875 58.820312 701.277344 L 58.457031 701.671875 L 56.941406 700.886719 L 57.148438 700.300781 C 61.46875 688.039062 65.859375 677.082031 70.585938 666.804688 L 70.726562 666.507812 L 72.78125 665.941406 C 74.179688 665.558594 75.503906 665.191406 76.871094 664.847656 C 78.03125 664.554688 78.933594 664.398438 79.792969 664.335938 C 84.921875 663.957031 89.675781 662.414062 93.652344 660.953125 C 101.453125 658.085938 106.835938 654.890625 111.09375 650.59375 C 113.675781 647.988281 116.773438 646.132812 120.5625 644.925781 C 123.558594 643.972656 127.5 642.730469 131.457031 641.578125 C 138.597656 639.503906 144.992188 635.984375 150.453125 631.125 C 155.0625 627.019531 159.378906 622.359375 163.261719 617.253906 C 166.730469 612.707031 170.898438 609.101562 175.652344 606.542969 C 178.265625 605.128906 181.132812 603.929688 184.152344 602.972656 C 186.589844 602.203125 188.78125 601.460938 190.855469 600.710938 C 191.894531 600.332031 192.617188 599.90625 192.90625 599.074219 C 192.488281 598.574219 191.84375 598.429688 190.957031 598.375 L 190.796875 598.363281 C 189.089844 598.253906 187.335938 598.148438 185.625 598.1875 C 180.621094 598.308594 175.6875 599.199219 171.949219 599.964844 C 157.421875 602.9375 145.109375 608.382812 134.308594 616.59375 C 132.960938 617.617188 131.539062 618.679688 129.960938 619.824219 C 127.445312 621.652344 125.019531 622.960938 122.539062 623.820312 C 120.289062 624.605469 117.890625 625.382812 115.214844 626.199219 C 113.542969 626.710938 111.863281 627.160156 110.214844 627.535156 C 104.605469 628.808594 99.796875 631.726562 95.515625 636.457031 C 91.199219 641.234375 87.464844 646.359375 84.070312 651.191406 C 81.566406 654.757812 78.984375 657.851562 76.167969 660.652344 C 76.128906 660.691406 76.089844 660.75 76.050781 660.800781 C 75.796875 661.125 75.117188 661.992188 73.9375 661.363281 L 73.332031 661.042969 L 73.625 660.429688 C 74.0625 659.519531 74.503906 658.617188 74.949219 657.714844 C 75.910156 655.753906 76.898438 653.726562 77.808594 651.714844 C 79.523438 647.941406 81.605469 644.308594 83.617188 640.800781 C 84.261719 639.671875 84.914062 638.539062 85.550781 637.40625 C 87.9375 633.152344 90.355469 628.964844 93.042969 624.324219 C 93.289062 623.898438 93.519531 623.460938 93.753906 623.023438 C 94.4375 621.742188 95.132812 620.417969 96.175781 619.390625 C 99.476562 616.136719 103.523438 612.488281 108.585938 610.078125 C 111.703125 608.589844 114.730469 606.871094 117.542969 605.238281 C 124.695312 601.074219 130.273438 596.355469 134.601562 590.816406 C 137.148438 587.558594 139.1875 583.878906 141.171875 580.328125 L 141.726562 579.328125 C 144.285156 574.75 146.90625 570.875 149.738281 567.453125 C 155.328125 560.726562 161.476562 554.449219 166.792969 549.085938 C 171.527344 544.3125 177.078125 538.8125 183.070312 533.941406 C 183.8125 533.339844 184.578125 532.585938 185.40625 531.636719 C 185.542969 531.472656 185.589844 531.300781 185.539062 531.160156 C 185.488281 531.019531 185.339844 530.9375 185.136719 530.917969 C 184.449219 530.855469 183.765625 530.925781 183.210938 531.113281 C 181 531.863281 178.671875 532.714844 176.300781 533.640625 C 164.316406 538.320312 152.453125 544.945312 140.035156 553.878906 C 132.195312 559.515625 125.199219 566.554688 118.632812 575.410156 C 115.230469 579.984375 112.183594 584.804688 109.574219 589.71875 C 105.140625 598.0625 101.167969 605.742188 97.445312 613.207031 C 96.96875 614.167969 96.488281 615.128906 96.007812 616.089844 C 93.445312 621.25 90.800781 626.589844 87.757812 631.636719 L 87.488281 632.085938 C 86.804688 633.230469 86.097656 634.417969 84.855469 635.710938 L 82.996094 637.636719 L 83.660156 635.035156 C 83.773438 634.597656 83.875 634.207031 83.96875 633.855469 C 84.144531 633.199219 84.277344 632.6875 84.386719 632.171875 C 86.003906 624.359375 87.136719 617.128906 87.851562 610.074219 C 88.363281 605.058594 87.960938 600.457031 86.628906 595.996094 C 85.5 592.210938 84.84375 588.382812 84.691406 584.632812 C 84.550781 581.191406 84.078125 577.726562 83.289062 574.363281 C 82.570312 571.335938 82.328125 568.21875 82.546875 565.105469 C 82.863281 560.722656 83.605469 556.84375 84.828125 553.230469 C 85.914062 550.019531 87.152344 546.8125 88.34375 543.707031 C 88.667969 542.878906 88.984375 542.050781 89.296875 541.222656 C 89.964844 539.496094 90.636719 537.769531 91.320312 536.050781 C 91.933594 534.507812 92.539062 532.972656 93.132812 531.429688 C 95.347656 525.675781 97.542969 519.925781 99.734375 514.167969 C 100.417969 512.363281 101.082031 510.546875 101.695312 508.84375 C 101.816406 508.492188 101.695312 508.398438 101.644531 508.359375 C 101.1875 508.007812 100.953125 508.152344 100.851562 508.210938 C 100.363281 508.503906 99.921875 508.8125 99.542969 509.128906 C 95.0625 512.792969 91.289062 516.984375 88.332031 521.582031 C 85.445312 526.082031 82.164062 531.183594 78.429688 535.894531 C 74.519531 540.835938 71.558594 545.59375 69.378906 550.4375 C 67.960938 553.601562 67.046875 556.644531 66.585938 559.746094 C 65.722656 565.550781 66.15625 571.40625 67.886719 577.164062 C 69.828125 583.605469 72.003906 590.5 74.726562 598.855469 C 76.410156 604.007812 78.25 609.34375 80.191406 614.707031 C 82.054688 619.820312 82.886719 625.371094 82.792969 631.738281 C 82.714844 637.164062 81.671875 641.761719 79.609375 645.789062 C 79.371094 646.242188 79.113281 646.6875 78.859375 647.132812 C 78.535156 647.683594 78.230469 648.207031 77.976562 648.757812 L 75.992188 652.941406 C 72.894531 659.492188 69.6875 666.265625 66.609375 672.960938 C 65.597656 675.15625 64.660156 677.433594 63.757812 679.636719 C 63.167969 681.074219 62.574219 682.515625 61.960938 683.945312 C 61.929688 684.007812 61.914062 684.082031 61.898438 684.164062 C 61.792969 684.546875 61.523438 685.570312 60.304688 685.492188 L 59.6875 685.453125 L 59.644531 684.839844 C 59.605469 684.265625 59.574219 683.6875 59.542969 683.117188 C 59.476562 681.871094 59.410156 680.6875 59.242188 679.503906 C 58.570312 674.675781 57.816406 669.777344 57.085938 665.035156 L 57.058594 664.878906 C 56 658.015625 53.265625 651.578125 48.710938 645.210938 C 47.976562 644.191406 47.238281 643.210938 46.507812 642.289062 C 44.351562 639.589844 43.480469 636.449219 43.914062 632.96875 L 43.9375 632.738281 C 44.023438 632.0625 44.105469 631.371094 44.230469 630.679688 C 44.570312 628.757812 44.925781 626.769531 45.324219 624.796875 C 46.078125 621.019531 45.996094 617.230469 45.078125 613.550781 C 44.476562 611.144531 43.726562 608.78125 43.070312 606.785156 C 41.792969 602.925781 41.339844 599.257812 41.683594 595.574219 C 41.828125 594.046875 42.007812 592.25 42.292969 590.453125 C 42.761719 587.515625 43.246094 584.578125 43.734375 581.648438 C 44.34375 577.949219 44.949219 574.25 45.535156 570.546875 C 46.046875 567.28125 46.519531 563.816406 47.078125 559.308594 C 47.203125 558.304688 47.179688 557.246094 47.164062 556.21875 L 47.152344 555.726562 C 47.136719 554.984375 46.796875 554.542969 46.03125 554.292969 C 45.570312 554.140625 45.152344 554.1875 44.59375 554.890625 C 44.050781 555.585938 43.523438 556.324219 43.019531 557.039062 L 42.605469 557.617188 C 39.914062 561.375 37.9375 565.640625 36.015625 569.769531 L 35.910156 569.996094 C 33.789062 574.558594 32.117188 579.53125 30.796875 585.191406 C 29.34375 591.433594 28.890625 597.527344 29.449219 603.3125 C 29.867188 607.613281 29.15625 611.707031 27.265625 615.839844 C 26.644531 617.1875 26.117188 618.625 25.605469 620.015625 L 25.203125 621.089844 C 22.390625 628.59375 22.9375 635.953125 26.835938 642.96875 C 28.769531 646.453125 31.375 649.875 34.792969 653.425781 C 36.625 655.335938 38.554688 657.207031 40.421875 659.027344 C 41.03125 659.617188 41.636719 660.207031 42.242188 660.796875 C 48.722656 667.144531 53.386719 674.855469 56.113281 683.722656 C 57.269531 687.476562 57.734375 690.859375 57.535156 694.070312 C 57.480469 695.03125 57.332031 695.925781 57.089844 696.730469 C 56.757812 697.847656 56.363281 698.960938 55.976562 700.03125 L 54.617188 703.835938 C 52.015625 711.128906 49.414062 718.417969 46.796875 725.707031 C 45.976562 727.980469 45.097656 730.335938 44.089844 732.914062 C 44.074219 732.957031 44.0625 733.007812 44.042969 733.058594 C 43.945312 733.402344 43.683594 734.316406 42.507812 734.308594 L 41.839844 734.304688 L 41.78125 733.179688 C 41.769531 732.867188 41.75 732.566406 41.726562 732.265625 C 41.640625 731.007812 41.5625 729.753906 41.484375 728.496094 C 41.304688 725.644531 41.121094 722.6875 40.867188 719.796875 C 40.449219 714.960938 39.128906 710.195312 37.859375 705.59375 C 37.644531 704.824219 37.429688 704.050781 37.222656 703.273438 C 35.125 695.523438 31.785156 689.414062 27.027344 684.617188 C 24.183594 681.753906 22.25 678.058594 21.109375 673.328125 C 20.871094 672.34375 20.625 671.289062 20.441406 670.222656 C 19.5625 664.976562 17.828125 660.019531 15.269531 655.5 C 12.207031 650.074219 10.183594 644.128906 9.246094 637.835938 L 8.941406 635.796875 C 7.515625 626.289062 6.039062 616.449219 6.773438 606.5625 C 6.8125 606.035156 6.765625 605.902344 6.75 605.875 C 6.699219 605.84375 6.503906 605.796875 5.933594 605.785156 C 4.628906 608.832031 3.382812 611.933594 2.214844 615.015625 C -1.652344 625.1875 -2.703125 636.078125 -0.929688 647.378906 C -0.5 650.109375 0.136719 652.875 0.753906 655.542969 L 0.914062 656.242188 C 1.847656 660.308594 2.199219 664.152344 1.984375 668.011719 L 1.875 669.992188 C 1.792969 671.414062 1.710938 672.828125 1.644531 674.253906 C 1.097656 685.597656 4.652344 695.378906 12.210938 703.324219 C 15.207031 706.46875 17.960938 709.195312 20.65625 711.664062 C 22.144531 713.03125 23.742188 714.351562 25.285156 715.632812 C 26.609375 716.730469 27.976562 717.863281 29.277344 719.027344 C 34.777344 723.9375 38 729.515625 39.125 736.082031 C 39.882812 740.527344 39.371094 744.378906 37.5625 747.863281 C 34.511719 753.722656 31.480469 759.59375 28.4375 765.464844 C 26.640625 768.945312 24.84375 772.421875 23.039062 775.898438 C 22.847656 776.269531 22.402344 777.132812 21.59375 776.851562 L 21.28125 776.742188 L 21.171875 776.433594 C 20.875 775.675781 20.59375 774.929688 20.316406 774.195312 C 19.691406 772.542969 19.105469 770.980469 18.445312 769.429688 C 17.449219 767.070312 16.410156 764.828125 15.359375 762.761719 C 14.824219 761.703125 14.210938 760.640625 13.628906 759.613281 C 13.007812 758.53125 12.378906 757.414062 11.800781 756.277344 C 10.371094 753.445312 8.699219 750.949219 6.691406 748.660156 C 5.613281 747.425781 4.539062 746.140625 3.511719 744.902344 C 3.105469 744.414062 2.695312 743.925781 2.289062 743.441406 C -0.582031 740.027344 -2.761719 736.125 -4.175781 731.851562 C -8.117188 720.003906 -10.75 707.332031 -12.011719 694.179688 C -12.167969 692.554688 -12.28125 690.910156 -12.390625 689.3125 C -12.460938 688.285156 -12.53125 687.261719 -12.613281 686.230469 C -12.679688 685.386719 -12.765625 684.40625 -12.933594 683.472656 C -13.015625 683.027344 -13.074219 682.941406 -13.085938 682.933594 C -13.136719 682.898438 -13.3125 682.863281 -13.832031 682.890625 Z M -13.859375 682.859375 " fill-opacity="1" fill-rule="nonzero"/></g></g></g><g clip-path="url(#07d2b03d8b)"><g clip-path="url(#05c8c18184)"><g clip-path="url(#55c07fe722)"><path fill="#c3b0b0" d="M 97.574219 734.589844 C 98.003906 734.421875 98.445312 734.28125 98.855469 734.082031 C 103.476562 731.910156 108.339844 730.765625 113.433594 730.769531 C 117.890625 730.765625 122.347656 730.96875 126.804688 731.011719 C 129.167969 731.027344 131.546875 730.980469 133.90625 730.796875 C 137.425781 730.523438 140.773438 729.457031 144.101562 728.332031 C 146.972656 727.363281 149.851562 726.371094 152.792969 725.683594 C 162.03125 723.539062 171.058594 724.3125 179.804688 728.078125 C 180.148438 728.222656 180.519531 728.332031 180.855469 728.515625 C 184.300781 730.347656 187.992188 730.894531 191.859375 730.835938 C 204.261719 730.644531 215.863281 733.84375 226.902344 739.332031 C 228.675781 740.214844 230.378906 741.257812 232.085938 742.277344 C 232.726562 742.660156 233.324219 743.15625 233.867188 743.667969 C 234.355469 744.128906 234.214844 745.128906 233.609375 745.359375 C 232.921875 745.625 232.171875 745.863281 231.449219 745.847656 C 230.128906 745.820312 228.796875 745.671875 227.488281 745.449219 C 223.710938 744.820312 219.933594 744.9375 216.148438 745.304688 C 210.65625 745.835938 205.289062 747.003906 199.953125 748.335938 C 194.855469 749.609375 189.703125 750.238281 184.449219 749.546875 C 180.777344 749.070312 177.148438 748.339844 173.613281 747.210938 C 171.625 746.578125 169.652344 745.902344 167.671875 745.261719 C 166.136719 744.765625 164.609375 744.257812 163.054688 743.828125 C 159.515625 742.859375 155.960938 742.730469 152.359375 743.554688 C 149.40625 744.230469 146.433594 744.867188 143.4375 745.320312 C 134.503906 746.695312 125.660156 746.347656 116.988281 743.632812 C 115.363281 743.128906 113.746094 742.550781 112.179688 741.886719 C 106.996094 739.679688 101.578125 739.003906 96.023438 739.496094 C 92.941406 739.773438 90.265625 740.949219 87.988281 743.253906 C 80.65625 750.660156 73.429688 758.195312 65.609375 765.101562 C 62.195312 768.105469 58.535156 770.835938 54.960938 773.640625 C 53.25 774.988281 51.464844 776.242188 49.726562 777.554688 C 49.542969 777.695312 49.445312 777.949219 49.167969 778.355469 C 49.710938 778.402344 50.0625 778.480469 50.402344 778.457031 C 52.699219 778.28125 54.84375 777.5625 56.964844 776.710938 C 61.375 774.945312 65.515625 772.648438 69.574219 770.1875 C 74.785156 767.015625 80.273438 764.503906 86.3125 763.320312 C 92.878906 762.027344 99.320312 762.265625 105.644531 764.582031 C 107.066406 765.105469 108.503906 765.589844 109.9375 766.085938 C 113.738281 767.429688 117.664062 768.023438 121.683594 767.871094 C 124.242188 767.777344 126.796875 767.613281 129.347656 767.417969 C 136.9375 766.839844 144.507812 766.867188 152.058594 767.929688 C 154.507812 768.277344 156.917969 768.761719 159.207031 769.746094 C 160.609375 770.355469 162.050781 770.753906 163.546875 771.042969 C 164.644531 771.253906 165.71875 771.667969 166.765625 772.09375 C 167.171875 772.257812 167.511719 772.664062 167.792969 773.023438 C 168.105469 773.425781 167.878906 774.371094 167.40625 774.503906 C 166.597656 774.730469 165.765625 774.953125 164.925781 774.988281 C 164.082031 775.023438 163.230469 774.851562 162.378906 774.75 C 157.09375 774.136719 151.96875 774.785156 147.046875 776.808594 C 143.363281 778.316406 139.710938 779.902344 136.058594 781.472656 C 129.210938 784.429688 122.125 785.679688 114.675781 784.640625 C 111.355469 784.179688 108.207031 783.191406 105.132812 781.898438 C 104 781.421875 102.875 780.910156 101.71875 780.507812 C 97.140625 778.90625 92.597656 779.046875 88.09375 780.832031 C 87.300781 781.140625 86.519531 781.480469 85.753906 781.851562 C 78.347656 785.464844 70.441406 786.738281 62.296875 786.75 C 59.742188 786.757812 57.175781 786.570312 54.648438 786.242188 C 53.171875 786.050781 51.726562 785.476562 50.308594 784.945312 C 48.964844 784.453125 47.796875 783.648438 46.878906 782.5 C 46.480469 782 45.949219 781.609375 45.363281 781.058594 C 40.484375 784.15625 36 787.597656 31.671875 791.242188 C 31.964844 791.914062 32.464844 791.691406 32.867188 791.597656 C 39.128906 790.117188 45.105469 791.039062 50.898438 793.648438 C 52.710938 794.464844 54.554688 795.222656 56.363281 796.046875 C 62.011719 798.632812 67.917969 799.648438 74.101562 799 C 75.804688 798.824219 77.503906 798.691406 79.195312 798.46875 C 90.296875 797.03125 101.148438 798.246094 111.796875 801.566406 C 112.972656 801.929688 114.160156 802.28125 115.308594 802.710938 C 115.914062 802.9375 116.492188 803.289062 117.035156 803.65625 C 117.503906 803.976562 117.421875 804.84375 116.914062 805.105469 C 116.5 805.320312 116.058594 805.539062 115.601562 805.59375 C 114.757812 805.699219 113.902344 805.726562 113.046875 805.714844 C 107.660156 805.628906 102.503906 806.695312 97.519531 808.726562 C 93.300781 810.4375 88.996094 811.933594 84.523438 812.824219 C 82.019531 813.324219 79.476562 813.6875 76.933594 813.957031 C 74.09375 814.269531 71.253906 814.128906 68.445312 813.515625 C 67.425781 813.289062 66.394531 813.125 65.378906 812.890625 C 62.855469 812.304688 60.324219 812.210938 57.742188 812.367188 C 55.664062 812.5 53.574219 812.550781 51.488281 812.46875 C 47.589844 812.328125 44.085938 811.015625 40.996094 808.621094 C 37.710938 806.070312 34.429688 803.5 31.125 800.980469 C 30.222656 800.292969 29.25 799.695312 28.269531 799.125 C 26.386719 798.027344 26.289062 798.023438 23.632812 798.035156 C 19.757812 801.175781 16.117188 804.613281 12.75 808.355469 C 11.929688 809.273438 11.003906 810.09375 10.09375 810.929688 C 9.34375 811.617188 8.582031 811.585938 7.792969 810.746094 C 7.949219 810.449219 8.0625 810.0625 8.304688 809.808594 C 12.375 805.445312 16.210938 800.855469 20.828125 797.023438 C 22.867188 795.324219 24.824219 793.527344 26.839844 791.800781 C 28.402344 790.460938 28.765625 788.75 28.152344 786.921875 C 27.433594 784.773438 26.589844 782.65625 25.613281 780.609375 C 22.996094 775.144531 20.242188 769.753906 17.636719 764.292969 C 16.042969 760.964844 14.488281 757.613281 13.152344 754.175781 C 9.523438 744.828125 9.949219 735.570312 14.507812 726.640625 C 17.992188 719.804688 21.425781 712.941406 24.972656 706.140625 C 28.628906 699.132812 33.511719 692.949219 39.09375 687.347656 C 39.359375 687.078125 39.675781 686.867188 39.957031 686.640625 C 41.417969 687.199219 41.621094 687.449219 41.320312 688.550781 C 41.074219 689.460938 40.742188 690.351562 40.410156 691.238281 C 39.472656 693.71875 38.453125 696.175781 37.546875 698.667969 C 33.171875 710.75 30.074219 723.140625 28.507812 735.90625 C 27.972656 740.285156 28.246094 744.609375 29.367188 748.878906 C 29.941406 751.078125 30.484375 753.289062 31.105469 755.472656 C 31.964844 758.5 32.402344 761.570312 32.476562 764.722656 C 32.53125 767.1875 32.839844 769.636719 32.902344 772.101562 C 32.964844 774.566406 32.941406 777.035156 32.839844 779.5 C 32.738281 781.945312 32.488281 784.390625 32.289062 787.015625 C 32.457031 787.183594 32.796875 786.933594 33.078125 786.710938 C 41.457031 780.347656 49.824219 773.957031 58.214844 767.609375 C 61.460938 765.152344 63.335938 761.871094 64.429688 758.019531 C 66.285156 751.421875 65.492188 745.054688 62.878906 738.851562 C 61.410156 735.367188 59.65625 732 58.242188 728.488281 C 56.75 724.808594 55.414062 721.058594 54.171875 717.289062 C 50.597656 706.429688 51.765625 695.972656 57.136719 685.941406 C 58.125 684.105469 59.132812 682.277344 60.121094 680.449219 C 61.996094 677.011719 63.289062 673.367188 64.132812 669.539062 C 64.785156 666.574219 65.421875 663.597656 66.277344 660.695312 C 69.484375 649.851562 74.976562 640.371094 83.1875 632.5 C 85.71875 630.070312 88.289062 627.710938 90.882812 625.425781 C 92.53125 626.1875 92.714844 626.496094 92.039062 627.6875 C 86.832031 636.839844 83.960938 646.882812 80.925781 656.851562 C 79.117188 662.78125 78.386719 668.910156 78.824219 675.132812 C 79.199219 680.492188 78.621094 685.738281 77.152344 690.898438 C 76.867188 691.902344 76.644531 692.925781 76.433594 693.941406 C 75.5625 698.097656 75.492188 702.261719 76.914062 706.296875 C 79.410156 713.390625 79.476562 720.566406 78.152344 727.886719 C 77.140625 733.488281 76.316406 739.128906 74.324219 744.492188 C 72.867188 748.402344 71.28125 752.257812 69.753906 756.136719 C 69.585938 756.558594 69.410156 756.976562 69.230469 757.417969 C 69.929688 757.753906 70.183594 757.214844 70.460938 756.957031 C 72.320312 755.203125 74.164062 753.421875 75.980469 751.625 C 82.234375 745.40625 88.464844 739.171875 94.707031 732.945312 C 95.714844 731.941406 96.738281 730.949219 97.6875 729.886719 C 98.246094 729.261719 98.730469 728.546875 99.136719 727.804688 C 100.808594 724.777344 101.714844 721.480469 102.207031 718.089844 C 103.523438 709.101562 102.6875 700.324219 99.546875 691.777344 C 98.339844 688.492188 97.085938 685.21875 95.972656 681.902344 C 94.554688 677.667969 93.519531 673.34375 93.238281 668.867188 C 92.707031 660.605469 95.410156 653.59375 101.363281 647.84375 C 102.722656 646.523438 104.058594 645.175781 105.507812 643.960938 C 108.769531 641.214844 111.179688 637.925781 112.636719 633.882812 C 114.746094 628.039062 117.875 622.738281 121.738281 617.882812 C 125.109375 613.648438 128.804688 609.703125 132.972656 606.238281 C 136.625 603.214844 140.265625 600.171875 144.441406 597.847656 C 145.433594 597.300781 146.421875 596.730469 147.441406 596.222656 C 148.246094 595.824219 149.054688 595.710938 149.800781 596.421875 C 150.578125 597.171875 150.789062 598.039062 150.351562 599.007812 C 149.84375 600.121094 149.355469 601.265625 148.699219 602.304688 C 146.667969 605.507812 144.609375 608.6875 142.472656 611.8125 C 138.679688 617.367188 134.816406 622.867188 131.011719 628.410156 C 130.050781 629.816406 129.152344 631.273438 128.289062 632.738281 C 126.375 635.96875 125.292969 639.46875 124.824219 643.191406 C 124.53125 645.539062 124.203125 647.894531 123.734375 650.214844 C 122.953125 654.078125 121.367188 657.597656 119.007812 660.769531 C 117.820312 662.367188 116.664062 663.984375 115.511719 665.609375 C 115.074219 666.222656 114.667969 666.863281 114.257812 667.507812 C 112.488281 670.285156 111.941406 673.273438 112.699219 676.5 C 112.980469 677.695312 113.222656 678.902344 113.445312 680.121094 C 114.753906 687.414062 114.664062 694.652344 112.539062 701.804688 C 111.132812 706.527344 109.71875 711.257812 108.238281 715.957031 C 107.699219 717.664062 106.957031 719.296875 106.292969 720.996094 C 107.007812 721.390625 107.300781 720.695312 107.640625 720.394531 C 110.628906 717.765625 113.511719 715.007812 116.5625 712.453125 C 123.398438 706.734375 130.3125 701.101562 137.214844 695.460938 C 138.097656 694.738281 139.078125 694.15625 139.984375 693.464844 C 143.832031 690.519531 146.566406 686.691406 148.6875 682.382812 C 151.222656 677.238281 153.011719 671.890625 153.566406 666.132812 C 154.101562 660.5625 154.71875 654.996094 155.4375 649.445312 C 156.40625 641.921875 157.429688 634.402344 158.570312 626.902344 C 159.476562 620.921875 161.585938 615.359375 164.976562 610.320312 C 166.835938 607.546875 169.074219 605.140625 171.621094 602.96875 C 176.0625 599.1875 180.984375 596.171875 186.179688 593.613281 C 191.378906 591.054688 196.300781 588.015625 201.203125 584.964844 C 206.082031 581.933594 211.320312 579.804688 216.878906 578.429688 C 217.425781 578.296875 217.996094 578.207031 218.554688 578.148438 C 219.203125 578.085938 219.636719 578.472656 219.90625 579.003906 C 220.148438 579.472656 219.96875 579.9375 219.609375 580.289062 C 218.265625 581.628906 216.914062 582.960938 215.542969 584.269531 C 211.097656 588.53125 206.648438 592.789062 202.175781 597.03125 C 199.632812 599.453125 197.046875 601.8125 194.503906 604.238281 C 191.425781 607.179688 188.292969 610.085938 185.332031 613.144531 C 182.554688 616.007812 180.25 619.277344 178.285156 622.746094 C 176.785156 625.40625 175.699219 628.238281 175.058594 631.222656 C 174.320312 634.667969 173.257812 637.996094 171.882812 641.234375 C 170.386719 644.742188 169.382812 648.398438 168.804688 652.160156 C 168.058594 657.011719 166.316406 661.464844 163.777344 665.660156 C 159.898438 672.074219 155.648438 678.226562 151.132812 684.195312 C 150.625 684.863281 150.066406 685.492188 149.226562 686.5 C 151.046875 685.816406 152.234375 684.941406 153.453125 684.136719 C 159.230469 680.308594 164.605469 675.941406 170.054688 671.675781 C 176.992188 666.238281 184.019531 660.90625 191.097656 655.652344 C 195.660156 652.257812 200.480469 649.230469 205.507812 646.554688 C 214.597656 641.710938 224.125 638.066406 234.28125 636.214844 C 248.046875 633.703125 261.898438 632.484375 275.898438 633.472656 C 278.355469 633.644531 280.816406 633.871094 283.261719 634.160156 C 283.988281 634.25 284.734375 634.53125 285.363281 634.902344 C 286.234375 635.421875 286.152344 636.527344 285.21875 636.929688 C 284.183594 637.378906 283.105469 637.777344 282.003906 638.050781 C 274.808594 639.804688 267.828125 642.214844 260.871094 644.722656 C 253.027344 647.550781 245.214844 650.464844 237.644531 653.980469 C 233.335938 655.984375 229.296875 658.453125 225.421875 661.203125 C 221.722656 663.835938 218.046875 666.53125 213.964844 668.578125 C 207.082031 672.03125 199.730469 673.726562 192.109375 674.367188 C 188.710938 674.652344 185.292969 674.898438 181.886719 674.90625 C 176.667969 674.910156 171.742188 676.269531 166.910156 677.953125 C 165.175781 678.554688 163.691406 679.914062 162.136719 680.980469 C 158 683.828125 153.863281 686.679688 149.765625 689.585938 C 145.359375 692.710938 140.824219 695.660156 136.6875 699.160156 C 134.226562 701.238281 131.683594 703.214844 129.160156 705.25 C 129.710938 705.996094 130.269531 705.472656 130.679688 705.324219 C 134.523438 703.957031 138.210938 702.230469 141.761719 700.214844 C 147.203125 697.132812 152.703125 694.171875 158.5 691.769531 C 164.183594 689.417969 169.980469 688.625 176.027344 689.976562 C 177.6875 690.347656 179.375 690.660156 181.066406 690.910156 C 183.59375 691.28125 186.132812 691.621094 188.679688 691.898438 C 191.429688 692.199219 194.171875 691.984375 196.890625 691.476562 C 198.660156 691.140625 200.429688 690.796875 202.1875 690.425781 C 216.097656 687.5 229.898438 688.167969 243.636719 691.550781 C 248.152344 692.660156 252.617188 693.949219 256.871094 695.847656 C 258.507812 696.574219 260.089844 697.460938 261.664062 698.328125 C 262.574219 698.835938 263.433594 699.449219 263.53125 700.632812 C 262.640625 701.792969 261.394531 701.84375 260.15625 701.730469 C 257.792969 701.507812 255.441406 701.222656 253.09375 700.898438 C 250.078125 700.488281 247.054688 700.328125 244.015625 700.484375 C 238.53125 700.761719 233.394531 702.261719 228.519531 704.777344 C 222.863281 707.695312 216.992188 710.078125 210.878906 711.863281 C 203.644531 713.972656 196.347656 714.378906 188.925781 713.179688 C 185.179688 712.578125 181.425781 712.042969 177.667969 711.535156 C 174.042969 711.046875 170.488281 711.304688 167.015625 712.5625 C 160.355469 714.972656 153.476562 715.121094 146.511719 714.484375 C 141.675781 714.042969 136.910156 713.3125 132.355469 711.554688 C 131.472656 711.210938 130.539062 710.988281 129.617188 710.804688 C 127.667969 710.410156 125.710938 710.09375 123.695312 709.726562 C 114.445312 717.460938 105.695312 725.660156 97.238281 734.175781 C 97.351562 734.324219 97.464844 734.472656 97.574219 734.613281 Z M 97.574219 734.589844 " fill-opacity="1" fill-rule="nonzero"/></g></g></g></svg>