<svg xmlns="http://www.w3.org/2000/svg" xmlns:xlink="http://www.w3.org/1999/xlink" width="1366" zoomAndPan="magnify" viewBox="0 0 1024.5 576" height="768" preserveAspectRatio="xMidYMid meet" version="1.0"><defs><clipPath id="47377528ac"><path d="M 394.65625 220 L 629.292969 220 L 629.292969 315 L 394.65625 315 Z M 394.65625 220 " clip-rule="nonzero"/></clipPath></defs><path fill="#38a1f4" d="M 437.769531 354.273438 C 419.636719 343.789062 409.417969 321.4375 404.710938 298.34375 C 396.3125 215.863281 468.484375 184.957031 508.402344 183.144531 C 548.324219 181.328125 614.046875 203.792969 621.53125 268.882812 C 629.015625 333.972656 589.582031 353.105469 589.582031 353.105469 C 521.648438 386.390625 455.902344 364.757812 437.769531 354.273438 Z M 437.769531 354.273438 C 419.636719 343.789062 409.417969 321.4375 404.710938 298.34375 C 396.3125 215.863281 468.484375 184.957031 508.402344 183.144531 C 548.324219 181.328125 614.046875 203.792969 621.53125 268.882812 C 629.015625 333.972656 589.582031 353.105469 589.582031 353.105469 C 533.050781 388.46875 455.902344 364.757812 437.769531 354.273438 Z M 437.769531 354.273438 " fill-opacity="0.2" fill-rule="nonzero"/><path fill="#f4f7f0" d="M 439.445312 302.859375 C 426.054688 268.128906 452.820312 221.417969 460.289062 221.359375 C 466.84375 223.621094 484.613281 241.066406 493.9375 261.203125 C 507.097656 258.214844 524.472656 255.445312 533.675781 260.898438 C 538.292969 248.6875 549.820312 228.765625 567.976562 220.53125 C 580.449219 233.402344 600.332031 265.28125 588.804688 301.707031 C 594.886719 308.277344 595.421875 322.722656 596.5 322.546875 C 599.382812 334.519531 597.074219 347.773438 586.316406 355.75 C 575.5625 363.726562 543.292969 369.773438 524.925781 371.328125 C 506.558594 372.886719 480.46875 371.265625 451.761719 360.945312 C 423.050781 350.621094 432.066406 323.0625 432.066406 323.0625 C 433.007812 319.46875 436.640625 305.453125 439.445312 302.859375 Z M 439.445312 302.859375 C 426.054688 268.128906 452.820312 221.417969 460.289062 221.359375 C 466.84375 223.621094 484.613281 241.066406 493.9375 261.203125 C 507.097656 258.214844 524.472656 255.445312 533.675781 260.898438 C 538.292969 248.6875 549.820312 228.765625 567.976562 220.53125 C 580.449219 233.402344 600.332031 265.28125 588.804688 301.707031 C 594.886719 308.277344 595.421875 322.722656 596.5 322.546875 C 599.382812 334.519531 597.074219 347.773438 586.316406 355.75 C 575.5625 363.726562 543.292969 369.773438 524.925781 371.328125 C 506.558594 372.886719 480.46875 371.265625 451.761719 360.945312 C 423.050781 350.621094 432.066406 323.0625 432.066406 323.0625 C 433.007812 319.46875 436.640625 305.453125 439.445312 302.859375 Z M 439.445312 302.859375 " fill-opacity="1" fill-rule="nonzero"/><path fill="#e49d5b" d="M 588.804688 301.707031 C 597.515625 259.089844 579.03125 231.175781 566.707031 220.539062 C 542.351562 237.859375 537.925781 250.285156 533.675781 260.898438 C 527.136719 258.464844 517.113281 258.746094 513.789062 258.917969 C 510.464844 258.796875 500.4375 258.671875 493.9375 261.203125 C 489.523438 250.65625 484.90625 238.304688 460.289062 221.359375 C 448.128906 232.183594 430.074219 260.378906 439.445312 302.859375 C 433.902344 315.578125 432.058594 322.308594 432.066406 323.0625 C 432.070312 323.816406 432.070312 323.816406 432.070312 323.816406 C 432.070312 323.816406 441.988281 339.050781 467.757812 330.820312 C 492.9375 322.777344 498.589844 314.828125 514.21875 314.347656 C 529.851562 314.585938 535.625 322.449219 560.925781 330.101562 C 586.820312 337.9375 596.5 322.546875 596.5 322.546875 C 596.5 322.546875 596.5 322.546875 596.496094 321.796875 C 596.488281 321.042969 594.542969 314.339844 588.804688 301.707031 Z M 470.523438 268.792969 C 463.773438 271.855469 452.800781 284.242188 450.769531 289.496094 C 443.398438 282.96875 445.972656 270.046875 445.972656 270.046875 C 445.972656 270.046875 447.867188 270.753906 448.691406 272.222656 C 448.765625 249.378906 460.964844 235.851562 460.964844 235.851562 C 465.476562 241.527344 470.945312 259.75 470.523438 268.792969 Z M 578.511719 288.511719 C 576.398438 283.289062 565.238281 271.074219 558.441406 268.113281 C 557.878906 259.082031 563.066406 240.777344 567.488281 235.03125 C 567.488281 235.03125 579.898438 248.367188 580.324219 271.207031 C 581.125 269.730469 583.007812 268.992188 583.007812 268.992188 C 583.007812 268.992188 585.78125 281.871094 578.511719 288.511719 Z M 545.390625 280.191406 C 544.496094 283.101562 539.21875 283.820312 534.738281 282.46875 C 530.253906 281.121094 526.652344 277.394531 527.542969 274.488281 C 528.4375 271.582031 533.492188 270.589844 537.972656 271.941406 C 542.457031 273.292969 546.285156 277.285156 545.390625 280.191406 Z M 491.183594 272.039062 C 495.652344 270.636719 500.714844 271.570312 501.640625 274.46875 C 502.570312 277.363281 499.007812 281.128906 494.539062 282.53125 C 490.074219 283.929688 484.789062 283.269531 483.863281 280.375 C 482.9375 277.476562 486.71875 273.4375 491.183594 272.039062 Z M 491.183594 272.039062 " fill-opacity="1" fill-rule="nonzero"/><path fill="#38a1f4" d="M 516.484375 384.167969 C 443.039062 386.742188 451.761719 360.945312 451.761719 360.945312 C 451.761719 360.945312 471.566406 372.714844 516.394531 372.425781 C 564.726562 371.101562 577.707031 360.351562 577.707031 360.351562 C 577.707031 360.351562 589.925781 381.59375 516.484375 384.167969 Z M 516.484375 384.167969 C 443.039062 386.742188 451.761719 360.945312 451.761719 360.945312 C 451.761719 360.945312 471.566406 372.714844 516.394531 372.425781 C 564.726562 371.101562 577.707031 360.351562 577.707031 360.351562 C 577.707031 360.351562 589.925781 381.59375 516.484375 384.167969 Z M 516.484375 384.167969 " fill-opacity="1" fill-rule="nonzero"/><path fill="#180447" d="M 577.707031 360.351562 C 577.570312 375.164062 557.296875 384.105469 509.070312 383.472656 C 460.84375 382.839844 453.0625 369.316406 453.0625 369.316406 C 453.0625 369.316406 466.785156 376.03125 493.710938 378.507812 C 554.855469 384.132812 561.675781 365.996094 561.675781 365.996094 C 561.675781 365.996094 572.199219 362.902344 577.707031 360.351562 Z M 577.707031 360.351562 C 577.570312 375.164062 557.296875 384.105469 509.070312 383.472656 C 460.84375 382.839844 453.0625 369.316406 453.0625 369.316406 C 453.0625 369.316406 466.785156 376.03125 493.710938 378.507812 C 554.855469 384.132812 561.675781 365.996094 561.675781 365.996094 C 561.675781 365.996094 572.199219 362.902344 577.707031 360.351562 Z M 577.707031 360.351562 " fill-opacity="0.4" fill-rule="nonzero"/><path fill="#180447" d="M 588.804688 301.707031 C 607.101562 327.199219 592.355469 349.597656 592.355469 349.597656 C 592.355469 349.597656 584.375 362.179688 540.964844 369.703125 C 497.554688 377.222656 469.890625 367.207031 451.761719 360.945312 C 433.628906 354.683594 431.242188 338.507812 433.210938 333.417969 C 441.386719 352.003906 474.257812 363.335938 522.726562 362.964844 C 577.722656 362.539062 585.550781 318.867188 580.273438 304.597656 C 593.820312 288.679688 588.480469 259.347656 588.480469 259.347656 C 596.074219 267.195312 593.484375 290.707031 588.804688 301.707031 Z M 588.804688 301.707031 C 607.101562 327.199219 592.355469 349.597656 592.355469 349.597656 C 592.355469 349.597656 584.375 362.179688 540.964844 369.703125 C 497.554688 377.222656 469.890625 367.207031 451.761719 360.945312 C 433.628906 354.683594 431.242188 338.507812 433.210938 333.417969 C 441.386719 352.003906 474.257812 363.335938 522.726562 362.964844 C 577.722656 362.539062 585.550781 318.867188 580.273438 304.597656 C 593.820312 288.679688 588.480469 259.347656 588.480469 259.347656 C 596.074219 267.195312 593.484375 290.707031 588.804688 301.707031 Z M 588.804688 301.707031 " fill-opacity="0.3" fill-rule="nonzero"/><path fill="#f4f7f0" d="M 504.792969 200.621094 C 505.808594 203.992188 502.03125 208.109375 496.355469 209.816406 C 490.679688 211.523438 485.253906 210.171875 484.238281 206.800781 C 483.226562 203.425781 487.003906 199.308594 492.679688 197.605469 C 498.355469 195.898438 503.777344 197.25 504.792969 200.621094 Z M 582.96875 206.570312 C 564.304688 192.609375 540.070312 184.582031 512.925781 184.792969 C 453.179688 185.253906 408.140625 225.378906 405.828125 280.199219 C 405.277344 293.222656 407.257812 305.734375 411.28125 316.902344 C 411.039062 315.558594 403.453125 272.429688 423.40625 237.015625 C 423.382812 238.894531 423.859375 240.507812 424.890625 241.738281 C 429.640625 247.417969 444.363281 242.9375 457.765625 231.730469 C 471.171875 220.519531 478.1875 206.832031 473.433594 201.152344 C 472.347656 199.851562 470.730469 199.089844 468.734375 198.8125 C 532.507812 172.839844 581.492188 205.566406 582.96875 206.570312 Z M 538.246094 266.699219 C 544.550781 241.703125 557.21875 229.875 557.253906 229.839844 C 545.835938 239.84375 537.605469 252.671875 535.722656 261.257812 C 535.625 261.703125 535.351562 262.089844 534.960938 262.328125 C 534.574219 262.570312 534.101562 262.640625 533.660156 262.527344 C 523.113281 259.839844 519.089844 259.871094 514 259.910156 C 509.800781 259.941406 506.324219 259.972656 499.347656 261.578125 C 523.492188 258.8125 537.773438 269.296875 538.246094 266.699219 Z M 538.246094 266.699219 " fill-opacity="0.7" fill-rule="nonzero"/><path fill="#180447" d="M 625.5625 278.304688 C 623.980469 250.859375 611.742188 225.902344 591.09375 208.027344 C 570.480469 190.175781 542.707031 180.472656 512.890625 180.703125 C 512.574219 180.707031 512.257812 180.710938 511.941406 180.714844 C 482.503906 181.148438 455.222656 191.277344 435.121094 209.230469 C 414.753906 227.421875 402.898438 252.5625 401.738281 280.027344 C 400.125 318.320312 419.53125 352.5 448.945312 363.191406 C 448.882812 365.105469 449.28125 367.796875 451.210938 370.660156 C 456.027344 377.816406 471.003906 386.277344 514.96875 385.9375 C 515.761719 385.933594 516.550781 385.921875 517.324219 385.910156 C 559.546875 385.289062 573.890625 376.742188 578.488281 369.679688 C 580.480469 366.625 580.777344 363.789062 580.613281 361.800781 C 587.554688 359.011719 594 354.863281 599.777344 349.46875 C 605.539062 344.085938 610.511719 337.578125 614.550781 330.132812 C 618.589844 322.695312 621.589844 314.511719 623.46875 305.8125 C 625.398438 296.898438 626.101562 287.644531 625.5625 278.304688 Z M 441.5 304.113281 C 441.875 303.496094 441.957031 302.753906 441.71875 302.070312 C 434.707031 281.847656 439.570312 262.058594 444.882812 249.015625 C 450.359375 235.578125 457.613281 226.339844 460.238281 224.121094 C 476.445312 233.90625 489.109375 251.207031 491.59375 261.757812 C 491.742188 262.386719 492.148438 262.941406 492.707031 263.273438 C 493.089844 263.5 493.527344 263.617188 493.972656 263.609375 C 494.175781 263.605469 494.375 263.578125 494.566406 263.527344 C 503.996094 260.96875 508.183594 260.710938 512.320312 260.648438 C 512.875 260.640625 513.429688 260.636719 514 260.632812 C 519.046875 260.59375 523.027344 260.5625 533.480469 263.226562 C 533.6875 263.277344 533.898438 263.304688 534.113281 263.300781 C 534.546875 263.292969 534.972656 263.171875 535.339844 262.941406 C 535.890625 262.601562 536.289062 262.042969 536.429688 261.410156 C 538.75 250.824219 551.144531 233.332031 567.199219 223.296875 C 569.859375 225.472656 577.253906 234.597656 582.9375 247.953125 C 588.453125 260.910156 593.621094 280.625 586.917969 300.953125 C 586.691406 301.636719 586.785156 302.378906 587.171875 302.988281 C 593.636719 313.226562 597.8125 330.109375 593.28125 342.570312 C 590.578125 350.011719 585.117188 355.09375 577.050781 357.683594 C 577.007812 357.695312 576.96875 357.714844 576.929688 357.730469 C 576.886719 357.75 576.84375 357.765625 576.800781 357.789062 C 576.6875 357.839844 576.601562 357.882812 576.527344 357.929688 C 576.488281 357.949219 576.453125 357.96875 576.417969 357.992188 C 576.265625 358.097656 560.375 368.515625 516.863281 369.160156 C 516.191406 369.167969 515.523438 369.175781 514.839844 369.183594 C 471.296875 369.519531 453.1875 358.992188 453.007812 358.886719 L 452.960938 358.859375 L 452.925781 358.84375 C 452.839844 358.796875 452.757812 358.761719 452.691406 358.734375 L 452.660156 358.722656 C 452.621094 358.703125 452.582031 358.6875 452.542969 358.671875 C 452.515625 358.660156 452.488281 358.652344 452.460938 358.640625 C 444.355469 356.179688 438.816406 351.179688 436 343.78125 C 431.277344 331.390625 435.191406 314.445312 441.5 304.113281 Z M 597.804688 344.210938 C 600.191406 337.652344 600.664062 329.757812 599.171875 321.386719 C 597.910156 314.28125 595.308594 307.195312 591.832031 301.386719 C 601.722656 269.582031 584.878906 239.503906 579.460938 231.023438 C 577.609375 228.117188 571.253906 218.601562 567.386719 218.148438 C 567.28125 218.132812 567.175781 218.128906 567.074219 218.132812 C 566.648438 218.136719 566.234375 218.253906 565.871094 218.46875 C 550.757812 227.484375 536.480469 244.355469 532.351562 257.992188 C 522.957031 255.75 518.78125 255.78125 513.96875 255.820312 C 513.394531 255.824219 512.828125 255.828125 512.261719 255.835938 C 508.300781 255.894531 504.039062 256.128906 495.617188 258.273438 C 491.277344 244.703125 476.746094 228.054688 461.492188 219.273438 C 461.113281 219.058594 460.6875 218.949219 460.253906 218.953125 C 460.160156 218.957031 460.066406 218.960938 459.972656 218.972656 C 456.109375 219.488281 449.90625 229.101562 448.097656 232.035156 C 442.8125 240.601562 426.433594 270.933594 436.8125 302.582031 C 433.429688 308.441406 430.9375 315.566406 429.78125 322.691406 C 428.421875 331.085938 429.015625 338.972656 431.5 345.492188 C 431.800781 346.28125 432.128906 347.050781 432.488281 347.804688 C 415.285156 332.660156 405.414062 307.171875 406.550781 280.230469 C 408.828125 226.230469 453.167969 186.398438 511.984375 185.523438 C 512.308594 185.519531 512.613281 185.515625 512.929688 185.515625 C 572.273438 185.058594 617.625 224.195312 620.757812 278.578125 C 622.269531 304.816406 613.621094 329.34375 597.503906 345.003906 C 597.609375 344.742188 597.710938 344.476562 597.804688 344.210938 Z M 514.878906 373.992188 C 515.582031 373.988281 516.285156 373.980469 516.976562 373.96875 C 551.367188 373.460938 568.929688 367.117188 575.75 363.835938 C 575.59375 364.773438 575.210938 365.917969 574.390625 367.152344 C 571.09375 372.09375 559.285156 380.480469 517.261719 381.101562 C 516.492188 381.113281 515.722656 381.121094 514.933594 381.125 C 495.589844 381.277344 480.398438 379.730469 469.777344 376.527344 C 460.722656 373.800781 456.890625 370.421875 455.269531 368.070312 C 454.394531 366.804688 454 365.628906 453.839844 364.671875 C 461.191406 367.933594 480.003906 374.261719 514.878906 373.992188 Z M 556.894531 269.917969 L 556.921875 269.941406 C 557.847656 270.648438 558.78125 271.335938 559.683594 272.003906 C 560.679688 272.742188 561.707031 273.503906 562.691406 274.261719 C 564.726562 275.820312 566.476562 277.289062 568.039062 278.761719 C 569.75 280.363281 571.34375 282.070312 572.777344 283.828125 C 574.175781 285.542969 575.542969 287.445312 576.84375 289.488281 C 577.203125 290.050781 577.800781 290.371094 578.453125 290.363281 C 578.769531 290.359375 579.085938 290.269531 579.363281 290.109375 C 580.25 289.589844 580.546875 288.449219 580.03125 287.5625 C 578.730469 285.339844 577.347656 283.25 575.917969 281.359375 C 574.445312 279.40625 572.796875 277.503906 571.023438 275.710938 C 569.414062 274.078125 567.613281 272.441406 565.527344 270.714844 C 564.519531 269.875 563.488281 269.050781 562.492188 268.253906 C 561.929688 267.804688 561.371094 267.355469 560.816406 266.90625 C 560.820312 264.804688 560.878906 262.355469 561.1875 259.867188 C 561.4375 257.371094 561.90625 254.730469 562.617188 251.777344 C 563.214844 249.257812 564.042969 246.617188 565.074219 243.929688 C 565.515625 242.773438 566.027344 241.570312 566.683594 240.140625 C 567.128906 239.203125 567.8125 237.800781 568.550781 236.570312 L 568.582031 236.519531 C 569.085938 235.671875 568.832031 234.589844 567.996094 234.054688 C 567.695312 233.863281 567.347656 233.765625 566.992188 233.773438 C 566.378906 233.78125 565.8125 234.097656 565.484375 234.613281 C 564.035156 236.886719 562.75 239.378906 561.433594 242.449219 C 560.238281 245.261719 559.261719 248.039062 558.527344 250.707031 C 557.664062 253.816406 557.066406 256.625 556.703125 259.289062 C 556.222656 262.328125 556.078125 265.417969 556.003906 268.042969 C 555.980469 268.777344 556.3125 269.476562 556.894531 269.917969 Z M 449.851562 291.070312 C 450.152344 291.257812 450.5 291.351562 450.851562 291.347656 C 451.492188 291.335938 452.078125 291.003906 452.410156 290.460938 C 453.6875 288.386719 455.027344 286.460938 456.398438 284.726562 C 457.804688 282.945312 459.371094 281.214844 461.058594 279.589844 C 462.597656 278.089844 464.324219 276.59375 466.335938 275.003906 C 467.308594 274.230469 468.328125 273.453125 469.308594 272.703125 C 470.203125 272.019531 471.125 271.316406 472.039062 270.597656 L 472.074219 270.570312 C 472.648438 270.109375 472.964844 269.40625 472.925781 268.675781 C 472.808594 266.039062 472.621094 262.960938 472.089844 259.925781 C 471.6875 257.28125 471.046875 254.484375 470.132812 251.386719 C 469.359375 248.734375 468.339844 245.972656 467.105469 243.179688 C 465.742188 240.125 464.414062 237.65625 462.933594 235.402344 C 462.589844 234.882812 462.007812 234.578125 461.382812 234.585938 C 461.058594 234.589844 460.734375 234.683594 460.457031 234.859375 C 459.605469 235.386719 459.339844 236.507812 459.867188 237.359375 L 459.894531 237.40625 C 460.652344 238.628906 461.359375 240.019531 461.824219 240.957031 C 462.496094 242.367188 463.023438 243.5625 463.484375 244.710938 C 464.558594 247.382812 465.425781 250.011719 466.0625 252.519531 C 466.820312 255.464844 467.328125 258.097656 467.617188 260.570312 C 467.964844 263.074219 468.058594 265.519531 468.097656 267.621094 C 467.550781 268.078125 467 268.535156 466.441406 268.996094 C 465.460938 269.808594 464.441406 270.648438 463.445312 271.503906 C 461.386719 273.261719 459.613281 274.921875 458.027344 276.582031 C 456.28125 278.402344 454.664062 280.328125 453.222656 282.308594 C 451.820312 284.21875 450.46875 286.328125 449.203125 288.570312 C 448.710938 289.445312 448.996094 290.542969 449.851562 291.070312 Z M 494.609375 304.8125 C 494.03125 298.113281 487.679688 293.316406 480.417969 294.097656 C 473.15625 294.878906 467.738281 300.945312 468.316406 307.648438 C 468.894531 314.347656 475.246094 319.144531 482.507812 318.363281 C 489.769531 317.582031 495.1875 311.515625 494.609375 304.8125 Z M 532.777344 304.8125 C 533.355469 298.113281 539.707031 293.316406 546.96875 294.097656 C 554.226562 294.878906 559.644531 300.945312 559.066406 307.648438 C 558.492188 314.347656 552.136719 319.144531 544.878906 318.363281 C 537.617188 317.582031 532.199219 311.515625 532.777344 304.8125 Z M 513.859375 359.820312 L 514.019531 359.820312 C 525.664062 359.902344 533.394531 356.898438 536.996094 350.894531 C 542.714844 341.351562 535.621094 328.078125 535.3125 327.519531 C 535.054688 327.039062 534.578125 326.71875 534.035156 326.652344 C 533.496094 326.585938 532.953125 326.789062 532.585938 327.191406 C 532.550781 327.230469 528.828125 331.238281 524.191406 330.738281 C 520.191406 330.304688 518.117188 328.347656 517.050781 326.597656 C 520.769531 323.800781 525.605469 317.605469 524.917969 316.382812 C 524.03125 314.804688 517.015625 313.710938 514.269531 313.691406 C 511.523438 313.671875 504.492188 314.664062 503.582031 316.230469 C 502.871094 317.449219 507.671875 323.773438 511.363281 326.605469 C 510.21875 328.328125 508.074219 330.222656 504.101562 330.59375 C 499.464844 331.035156 495.796875 326.96875 495.761719 326.933594 C 495.402344 326.523438 494.863281 326.3125 494.320312 326.367188 C 493.777344 326.425781 493.296875 326.742188 493.027344 327.21875 C 492.714844 327.773438 485.429688 340.945312 491.015625 350.570312 C 494.53125 356.625 502.214844 359.738281 513.859375 359.820312 Z M 513.859375 359.820312 " fill-opacity="1" fill-rule="nonzero"/><path fill="#e49d5b" d="M 431.554688 248.128906 C 431.554688 248.128906 416.667969 251.34375 414.296875 273.421875 C 411.929688 251.34375 397.042969 248.128906 397.042969 248.128906 C 397.042969 248.128906 411.929688 244.914062 414.296875 222.835938 C 416.667969 244.914062 431.554688 248.128906 431.554688 248.128906 Z M 421.023438 281.851562 C 419.605469 295.058594 410.699219 296.984375 410.699219 296.984375 C 410.699219 296.984375 419.605469 298.90625 421.023438 312.117188 C 422.441406 298.90625 431.347656 296.984375 431.347656 296.984375 C 431.347656 296.984375 422.441406 295.058594 421.023438 281.851562 Z M 617.046875 234.796875 C 615.628906 248.003906 606.71875 249.929688 606.71875 249.929688 C 606.71875 249.929688 615.628906 251.855469 617.046875 265.0625 C 618.464844 251.855469 627.371094 249.929688 627.371094 249.929688 C 627.371094 249.929688 618.464844 248.003906 617.046875 234.796875 Z M 617.046875 234.796875 " fill-opacity="1" fill-rule="nonzero"/><g clip-path="url(#47377528ac)"><path fill="#180447" d="M 414.296875 275.726562 C 413.117188 275.726562 412.128906 274.839844 412.003906 273.667969 C 409.855469 253.660156 397.082031 250.507812 396.539062 250.382812 C 395.484375 250.140625 394.734375 249.195312 394.738281 248.117188 C 394.746094 247.035156 395.496094 246.101562 396.554688 245.871094 C 397.082031 245.75 409.855469 242.597656 412.003906 222.589844 C 412.128906 221.417969 413.117188 220.53125 414.296875 220.53125 C 415.476562 220.53125 416.46875 221.417969 416.59375 222.589844 C 418.742188 242.597656 431.515625 245.75 432.058594 245.875 C 433.109375 246.117188 433.863281 247.0625 433.855469 248.140625 C 433.847656 249.222656 433.101562 250.15625 432.042969 250.382812 C 431.515625 250.507812 418.742188 253.660156 416.59375 273.667969 C 416.46875 274.839844 415.476562 275.726562 414.296875 275.726562 Z M 402.773438 248.128906 C 406.503906 250.375 411.351562 254.714844 414.296875 262.859375 C 417.242188 254.714844 422.09375 250.375 425.824219 248.128906 C 422.09375 245.878906 417.242188 241.542969 414.296875 233.398438 C 411.351562 241.542969 406.503906 245.878906 402.773438 248.128906 Z M 421.023438 314.421875 C 419.84375 314.421875 418.855469 313.535156 418.726562 312.363281 C 417.519531 301.117188 410.484375 299.304688 410.1875 299.234375 C 409.125 299.003906 408.375 298.066406 408.375 296.980469 C 408.375 295.894531 409.148438 294.957031 410.210938 294.726562 C 410.484375 294.660156 417.519531 292.851562 418.726562 281.605469 C 418.855469 280.429688 419.84375 279.542969 421.023438 279.542969 C 422.203125 279.542969 423.191406 280.429688 423.320312 281.605469 C 424.546875 293.023438 431.765625 294.710938 431.835938 294.726562 C 432.898438 294.957031 433.65625 295.894531 433.65625 296.984375 C 433.65625 298.070312 432.898438 299.007812 431.835938 299.238281 C 431.5625 299.304688 424.527344 301.117188 423.320312 312.363281 C 423.191406 313.535156 422.203125 314.421875 421.023438 314.421875 Z M 415.777344 296.984375 C 417.554688 298.292969 419.519531 300.316406 421.023438 303.414062 C 422.527344 300.316406 424.492188 298.292969 426.269531 296.984375 C 424.492188 295.675781 422.527344 293.648438 421.023438 290.550781 C 419.519531 293.648438 417.554688 295.675781 415.777344 296.984375 Z M 616.542969 268.285156 C 615.363281 268.285156 614.375 267.398438 614.246094 266.226562 C 613.039062 254.980469 606.003906 253.167969 605.707031 253.097656 C 604.644531 252.867188 603.898438 251.929688 603.898438 250.84375 C 603.898438 249.757812 604.667969 248.820312 605.730469 248.589844 C 606.003906 248.523438 613.039062 246.714844 614.246094 235.46875 C 614.375 234.292969 615.363281 233.40625 616.542969 233.40625 C 617.722656 233.40625 618.714844 234.292969 618.839844 235.46875 C 620.046875 246.714844 627.082031 248.523438 627.378906 248.59375 C 628.445312 248.824219 629.191406 249.761719 629.191406 250.847656 C 629.191406 251.9375 628.417969 252.871094 627.355469 253.101562 C 627.082031 253.167969 620.046875 254.980469 618.839844 266.226562 C 618.714844 267.398438 617.722656 268.285156 616.542969 268.285156 Z M 611.300781 250.847656 C 613.074219 252.15625 615.039062 254.179688 616.542969 257.277344 C 618.046875 254.179688 620.011719 252.15625 621.789062 250.847656 C 620.011719 249.539062 618.046875 247.511719 616.542969 244.414062 C 615.039062 247.511719 613.074219 249.539062 611.300781 250.847656 Z M 611.300781 250.847656 " fill-opacity="1" fill-rule="nonzero"/></g><path fill="#fc615f" d="M 521.191406 355.226562 C 505.0625 357.996094 496.152344 353.035156 494.242188 348.125 C 512.335938 335.425781 534.09375 336.800781 534.09375 336.800781 C 535.535156 344.152344 536.539062 352.585938 521.191406 355.226562 Z M 521.191406 355.226562 C 505.0625 357.996094 496.152344 353.035156 494.242188 348.125 C 512.335938 335.425781 534.09375 336.800781 534.09375 336.800781 C 535.535156 344.152344 536.539062 352.585938 521.191406 355.226562 Z M 521.191406 355.226562 " fill-opacity="1" fill-rule="nonzero"/><path fill="#f4f7f0" d="M 492.757812 306.230469 C 492.757812 306.230469 482.835938 308.457031 481.253906 323.75 C 479.675781 308.457031 469.753906 306.230469 469.753906 306.230469 C 469.753906 306.230469 479.675781 304.003906 481.253906 288.710938 C 482.835938 304.003906 492.757812 306.230469 492.757812 306.230469 Z M 557.421875 306.230469 C 557.421875 306.230469 547.503906 308.457031 545.921875 323.75 C 544.34375 308.457031 534.421875 306.230469 534.421875 306.230469 C 534.421875 306.230469 544.34375 304.003906 545.921875 288.710938 C 547.503906 304.003906 557.421875 306.230469 557.421875 306.230469 Z M 557.421875 306.230469 " fill-opacity="1" fill-rule="nonzero"/><path fill="#f4f7f0" d="M 551.699219 398.304688 C 558.652344 400.863281 570.445312 387.484375 577.066406 371.5 C 583.691406 355.519531 588.523438 333.042969 577.359375 330.144531 C 564.328125 326.761719 552.167969 360.429688 551.070312 363.824219 C 544.710938 383.546875 544.75 395.746094 551.699219 398.304688 Z M 478.257812 363.824219 C 477.164062 360.429688 463.152344 327.304688 451.972656 330.144531 C 439.699219 333.261719 445.640625 355.519531 452.261719 371.5 C 458.882812 387.484375 470.679688 400.863281 477.628906 398.304688 C 484.578125 395.746094 484.617188 383.546875 478.257812 363.824219 Z M 478.257812 363.824219 " fill-opacity="1" fill-rule="nonzero"/><path fill="#180447" d="M 554.167969 398.242188 C 567.863281 399.226562 580.796875 362.128906 579.496094 358.210938 C 561.648438 384.550781 549.789062 373.964844 549.789062 373.964844 C 549.789062 373.964844 540.46875 397.253906 554.167969 398.242188 Z M 479.539062 373.964844 C 479.539062 373.964844 467.679688 384.546875 449.832031 358.210938 C 448.53125 362.128906 461.464844 399.226562 475.164062 398.242188 C 488.859375 397.253906 479.539062 373.964844 479.539062 373.964844 Z M 479.539062 373.964844 " fill-opacity="0.3" fill-rule="nonzero"/><path fill="#180447" d="M 551.984375 399.417969 C 564.410156 402.957031 575.09375 381.589844 581.054688 364.675781 C 581.058594 364.671875 581.058594 364.664062 581.0625 364.65625 C 583.433594 358.671875 585.683594 351.644531 586.3125 345.371094 C 586.3125 345.363281 586.316406 345.351562 586.316406 345.351562 C 586.316406 345.351562 586.316406 345.347656 586.316406 345.34375 C 587.089844 337.578125 585.378906 330.976562 578.3125 328.964844 C 562.253906 324.390625 550.6875 357.367188 546.652344 370.960938 C 546.070312 372.804688 545.542969 374.671875 545.105469 376.53125 C 545.089844 376.59375 545.078125 376.636719 545.078125 376.636719 C 545.054688 376.726562 545.035156 376.824219 545.015625 376.921875 C 542.679688 387.136719 543.117188 396.894531 551.984375 399.417969 Z M 554.59375 359.230469 C 560.339844 346.113281 568.855469 330.671875 577.015625 332.207031 C 586.546875 334 580.894531 354.992188 575.707031 369.144531 C 569.960938 382.257812 561.441406 397.230469 553.28125 395.695312 C 543.753906 393.902344 549.40625 373.382812 554.59375 359.230469 Z M 484.316406 376.921875 C 484.292969 376.824219 484.273438 376.726562 484.25 376.636719 C 484.25 376.636719 484.238281 376.59375 484.222656 376.53125 C 483.785156 374.671875 483.261719 372.804688 482.679688 370.960938 C 478.640625 357.367188 467.074219 324.390625 451.015625 328.964844 C 443.953125 330.976562 442.238281 337.578125 443.015625 345.34375 C 443.015625 345.347656 443.011719 345.351562 443.011719 345.351562 C 443.011719 345.351562 443.015625 345.363281 443.015625 345.371094 C 443.648438 351.644531 445.898438 358.671875 448.269531 364.65625 C 448.269531 364.664062 448.273438 364.671875 448.273438 364.675781 C 454.234375 381.589844 464.917969 402.957031 477.34375 399.417969 C 486.210938 396.894531 486.648438 387.136719 484.316406 376.921875 Z M 476.113281 396.234375 C 467.890625 397.78125 459.308594 382.695312 453.515625 369.476562 C 448.289062 355.21875 442.59375 334.0625 452.195312 332.257812 C 460.417969 330.707031 469 346.269531 474.792969 359.488281 C 480.019531 373.746094 485.714844 394.425781 476.113281 396.234375 Z M 476.113281 396.234375 " fill-opacity="1" fill-rule="nonzero"/></svg>