<svg xmlns="http://www.w3.org/2000/svg" xmlns:xlink="http://www.w3.org/1999/xlink" width="1366" zoomAndPan="magnify" viewBox="0 0 1024.5 576" height="768" preserveAspectRatio="xMidYMid meet" version="1.0"><defs><clipPath id="32b971ec82"><path d="M 379 172.855469 L 644 172.855469 L 644 402.992188 L 379 402.992188 Z M 379 172.855469 " clip-rule="nonzero"/></clipPath><clipPath id="c842715981"><path d="M 404 175 L 625 175 L 625 402.992188 L 404 402.992188 Z M 404 175 " clip-rule="nonzero"/></clipPath><clipPath id="cd3a6e590b"><path d="M 391 176 L 626 176 L 626 402.992188 L 391 402.992188 Z M 391 176 " clip-rule="nonzero"/></clipPath><clipPath id="54e9d33754"><path d="M 377 173 L 647 173 L 647 402.992188 L 377 402.992188 Z M 377 173 " clip-rule="nonzero"/></clipPath></defs><g clip-path="url(#32b971ec82)"><path fill="#ffffff" d="M 614.09375 402.070312 L 611.816406 401.746094 C 611.816406 401.746094 614.257812 398.007812 621.632812 381.710938 C 629.007812 365.410156 621.902344 360.917969 615.289062 363.191406 C 619.570312 353.769531 606.449219 354.203125 604.007812 356.585938 C 601.675781 349.058594 603.574219 348.949219 593.109375 349.925781 C 582.640625 350.84375 537.035156 401.691406 537.035156 401.691406 C 537.035156 401.691406 434.328125 402.015625 395.175781 402.015625 C 385.792969 390.753906 376.410156 373.695312 379.71875 365.574219 C 383.082031 357.503906 393.003906 354.09375 393.003906 354.09375 C 393.003906 354.09375 391.433594 353.011719 389.265625 337.253906 C 388.722656 285.109375 412.472656 268.8125 434.652344 250.292969 C 441.484375 216.503906 467.246094 181.089844 481.777344 172.96875 C 500.757812 186.667969 524.5625 227.117188 524.5625 227.117188 L 555.203125 235.128906 C 555.203125 235.128906 592.023438 194.628906 608.453125 186.503906 C 623.746094 200.855469 629.007812 222.675781 631.339844 236.160156 C 636.707031 267.671875 631.339844 284.675781 631.339844 284.675781 C 631.339844 284.675781 643.917969 304.820312 643.917969 333.464844 C 643.917969 349.4375 641.96875 365.574219 632.53125 381.222656 C 627.867188 388.964844 614.09375 402.070312 614.09375 402.070312 Z M 558.671875 281.480469 C 553.574219 279.75 543.054688 296.480469 552.546875 294.152344 C 562.089844 291.824219 563.769531 283.214844 558.671875 281.480469 Z M 558.671875 281.480469 " fill-opacity="1" fill-rule="nonzero"/></g><path fill="#ef5454" d="M 625.644531 225.277344 C 625.644531 225.277344 635.351562 267.945312 611.652344 296.316406 C 620.820312 308.828125 617.511719 360.863281 548.152344 377.703125 C 489.640625 394.328125 433.515625 383.496094 402.277344 354.257812 C 406.941406 364.816406 414.535156 379.652344 424.296875 389.074219 C 413.070312 382.523438 398.863281 368.929688 393.441406 353.660156 C 394.578125 367.46875 403.039062 388.316406 423.265625 401.90625 C 454.773438 401.960938 592.078125 401.90625 592.078125 401.90625 C 592.078125 401.90625 631.449219 382.738281 641.425781 348.570312 C 647.824219 309.691406 631.394531 286.570312 631.394531 286.570312 C 631.394531 286.570312 635.351562 263.289062 634.050781 250.617188 C 632.53125 237.027344 625.644531 225.277344 625.644531 225.277344 Z M 586.003906 384.253906 C 580.90625 386.800781 581.394531 378.785156 586.003906 377.8125 C 590.613281 376.890625 591.101562 381.816406 586.003906 384.253906 Z M 586.003906 384.253906 " fill-opacity="0.3" fill-rule="nonzero"/><path fill="#2b0806" d="M 430.804688 210.003906 C 414.75 210.980469 410.628906 231.339844 410.085938 234.695312 C 410.085938 235.023438 410.085938 235.183594 410.085938 235.183594 C 410.085938 235.183594 410.085938 235.078125 410.035156 234.96875 C 410.035156 235.128906 409.980469 235.183594 409.980469 235.183594 C 409.980469 235.183594 409.980469 235.023438 409.980469 234.695312 C 409.4375 231.339844 405.53125 211.089844 389.265625 210.003906 C 405.371094 209.03125 409.492188 188.671875 410.035156 185.3125 C 410.035156 184.988281 410.035156 184.828125 410.035156 184.828125 C 410.035156 184.828125 410.035156 184.933594 410.085938 185.097656 C 410.085938 184.933594 410.140625 184.828125 410.140625 184.828125 C 410.140625 184.828125 410.140625 184.988281 410.140625 185.3125 C 410.628906 188.671875 414.535156 208.921875 430.804688 210.003906 Z M 391.867188 230.960938 C 391.867188 230.796875 391.867188 230.746094 391.867188 230.746094 C 391.867188 230.746094 391.867188 230.796875 391.867188 230.851562 C 391.867188 230.796875 391.867188 230.746094 391.867188 230.746094 C 391.867188 230.746094 391.867188 230.851562 391.867188 230.960938 C 391.542969 232.585938 389.535156 242.710938 381.5625 243.199219 C 389.589844 243.738281 391.542969 253.757812 391.8125 255.4375 C 391.8125 255.597656 391.8125 255.652344 391.8125 255.652344 C 391.8125 255.652344 391.8125 255.597656 391.8125 255.542969 C 391.8125 255.597656 391.8125 255.652344 391.8125 255.652344 C 391.8125 255.652344 391.8125 255.542969 391.8125 255.4375 C 392.082031 253.8125 394.144531 243.6875 402.0625 243.199219 C 394.089844 242.710938 392.191406 232.640625 391.867188 230.960938 Z M 391.867188 230.960938 " fill-opacity="1" fill-rule="nonzero"/><g clip-path="url(#c842715981)"><path fill="#efb07d" d="M 434.542969 250.398438 Z M 434.542969 250.347656 C 434.597656 250.347656 434.597656 250.347656 434.542969 250.347656 C 434.597656 250.347656 434.597656 250.347656 434.542969 250.347656 Z M 616.316406 273.523438 C 629.0625 250.183594 604.820312 202.371094 604.820312 202.371094 C 597.988281 210.167969 590.722656 240.273438 589.636719 247.3125 C 598.855469 250.238281 611.980469 258.523438 616.316406 273.523438 Z M 434.597656 250.347656 C 434.597656 250.347656 434.652344 250.292969 434.597656 250.347656 C 434.652344 250.292969 434.597656 250.347656 434.597656 250.347656 Z M 524.5625 227.171875 C 524.5625 227.171875 499.183594 188.726562 481.34375 175.078125 C 473.804688 179.738281 467.296875 185.585938 461.226562 194.628906 C 465.238281 189.808594 469.683594 185.855469 474.402344 183.527344 C 474.402344 183.527344 453.089844 206.917969 444.578125 241.738281 C 450.597656 241.085938 465.238281 242.222656 465.238281 242.222656 C 465.238281 242.222656 443.816406 243.253906 426.84375 259.660156 C 419.847656 262.800781 414.425781 265.832031 405.152344 278.71875 C 402.171875 287.980469 431.453125 329.890625 489.152344 306.550781 C 543.976562 284.351562 528.902344 228.363281 528.902344 228.363281 Z M 621.792969 362.433594 C 618.867188 361.890625 615.339844 363.246094 615.339844 363.246094 C 615.339844 363.246094 617.023438 356.261719 611.816406 355.175781 C 606.609375 354.09375 601.894531 358.316406 601.894531 358.316406 C 601.894531 358.316406 605.417969 350.140625 596.796875 348.679688 C 584.703125 346.730469 536.820312 402.015625 536.820312 402.015625 L 614.09375 402.015625 C 614.09375 402.070312 630.632812 368.335938 621.792969 362.433594 Z M 621.792969 362.433594 " fill-opacity="1" fill-rule="nonzero"/></g><path fill="#fcc85e" d="M 391.867188 237.835938 C 391.867188 237.785156 391.867188 237.730469 391.867188 237.730469 C 391.867188 237.730469 391.867188 237.730469 391.867188 237.835938 C 391.867188 237.730469 391.867188 237.730469 391.867188 237.730469 C 391.867188 237.730469 391.867188 237.785156 391.867188 237.835938 C 391.703125 238.542969 390.835938 242.980469 387.3125 243.199219 C 390.890625 243.46875 391.703125 247.855469 391.8125 248.558594 C 391.8125 248.613281 391.8125 248.667969 391.8125 248.667969 C 391.8125 248.667969 391.8125 248.667969 391.8125 248.613281 C 391.8125 248.667969 391.8125 248.667969 391.8125 248.667969 C 391.8125 248.667969 391.8125 248.613281 391.8125 248.558594 C 391.921875 247.855469 392.84375 243.414062 396.3125 243.199219 C 392.84375 242.929688 391.976562 238.597656 391.867188 237.835938 Z M 410.085938 225.167969 C 410.085938 225.167969 410.085938 225.113281 410.085938 225.003906 C 410.085938 225.113281 410.085938 225.167969 410.085938 225.167969 C 410.140625 225.167969 410.140625 225.058594 410.140625 224.894531 C 410.46875 222.894531 412.90625 210.65625 422.613281 210.003906 C 412.800781 209.355469 410.519531 197.171875 410.140625 195.113281 C 410.140625 194.953125 410.140625 194.84375 410.140625 194.84375 C 410.140625 194.84375 410.140625 194.898438 410.140625 195.007812 C 410.140625 194.898438 410.140625 194.84375 410.140625 194.84375 C 410.140625 194.84375 410.140625 194.953125 410.140625 195.113281 C 409.816406 197.117188 407.375 209.355469 397.667969 210.003906 C 407.484375 210.65625 409.761719 222.839844 410.140625 224.894531 C 410.085938 225.058594 410.085938 225.167969 410.085938 225.167969 Z M 410.085938 225.167969 " fill-opacity="1" fill-rule="nonzero"/><g clip-path="url(#cd3a6e590b)"><path fill="#ef5454" d="M 524.183594 229.011719 C 516.917969 227.765625 502.546875 225.65625 489.476562 230.527344 C 494.738281 213.902344 481.667969 176.757812 481.667969 176.757812 C 502.222656 184.878906 527.4375 226.304688 524.183594 229.011719 Z M 617.671875 362.703125 C 617.671875 362.703125 621.253906 366.710938 612.359375 381.222656 C 603.519531 395.734375 597.554688 402.070312 597.554688 402.070312 L 611.601562 402.070312 C 611.601562 402.070312 627.109375 375.210938 625.535156 365.574219 C 623.910156 355.988281 617.671875 362.703125 617.671875 362.703125 Z M 418.058594 208.707031 C 413.992188 208.328125 408.839844 210.382812 409.871094 223.8125 C 409.980469 224.300781 410.035156 224.625 410.085938 224.84375 C 410.085938 225.003906 410.085938 225.113281 410.085938 225.113281 C 410.085938 225.113281 410.085938 225.058594 410.085938 224.949219 C 410.085938 225.058594 410.085938 225.113281 410.085938 225.113281 C 410.085938 225.113281 410.085938 225.003906 410.085938 224.84375 C 410.414062 222.839844 412.851562 210.601562 422.558594 209.953125 C 420.824219 209.898438 419.359375 209.464844 418.058594 208.707031 Z M 391.648438 247.585938 C 391.757812 248.070312 391.867188 248.398438 391.867188 248.558594 C 391.867188 248.613281 391.867188 248.667969 391.867188 248.667969 C 391.867188 248.667969 391.867188 248.667969 391.867188 248.613281 C 391.867188 248.667969 391.867188 248.667969 391.867188 248.667969 C 391.867188 248.667969 391.867188 248.613281 391.867188 248.558594 C 391.976562 247.855469 392.898438 243.414062 396.367188 243.199219 C 395.824219 243.144531 395.390625 243.035156 394.957031 242.820312 C 393.492188 242.65625 391.324219 243.144531 391.648438 247.585938 Z M 391.648438 247.585938 " fill-opacity="0.3" fill-rule="nonzero"/></g><g clip-path="url(#54e9d33754)"><path fill="#2b0806" d="M 522.9375 308.933594 C 523.371094 317.816406 510.410156 323.339844 504.769531 310.992188 C 492.027344 323.71875 487.039062 308.933594 487.039062 308.933594 C 463.664062 325.179688 462.6875 365.574219 501.570312 365.574219 C 543.273438 365.574219 538.824219 320.847656 522.9375 308.933594 Z M 586.003906 248.777344 C 604.496094 255.21875 616.316406 273.574219 616.316406 273.574219 C 616.316406 273.574219 613.390625 261.554688 605.742188 255.109375 C 598.421875 248.992188 591.753906 245.039062 591.753906 245.039062 C 591.753906 245.039062 600.644531 209.625 604.765625 202.371094 C 604.820312 202.371094 593.109375 213.851562 586.003906 248.777344 Z M 627.054688 370.664062 C 628.628906 358.046875 620.167969 358.589844 617.402344 360.972656 C 619.84375 354.691406 610.027344 350.140625 604.875 355.449219 C 605.960938 346.351562 597.011719 341.316406 583.5625 352.089844 C 571.417969 361.890625 547.828125 385.769531 533.890625 402.070312 C 538.71875 402.070312 540.5625 402.070312 540.5625 402.070312 C 540.5625 402.070312 562.359375 377.972656 574.722656 365.628906 C 587.089844 353.28125 594.789062 349.761719 599.453125 352.6875 C 602.382812 354.582031 601.945312 360.917969 601.945312 360.917969 C 601.945312 360.917969 608.507812 355.285156 612.628906 357.722656 C 615.992188 359.671875 614.257812 363.460938 612.683594 366.925781 C 618.054688 361.566406 624.558594 363.785156 623.097656 371.800781 C 622.011719 378.082031 613.769531 394.597656 610.027344 401.960938 L 617.023438 401.960938 C 617.023438 401.960938 627.976562 393.027344 632.585938 384.578125 C 632.585938 376.132812 631.449219 377.648438 631.449219 377.648438 C 631.449219 377.648438 628.085938 382.957031 620.546875 391.1875 C 621.847656 389.019531 626.351562 376.1875 627.054688 370.664062 Z M 544.300781 279.910156 C 533.347656 290.847656 533.347656 308.71875 544.300781 319.710938 C 555.257812 330.648438 573.152344 330.648438 584.160156 319.710938 C 595.113281 308.773438 595.113281 290.902344 584.160156 279.910156 C 573.207031 268.917969 555.363281 268.917969 544.300781 279.910156 Z M 435.738281 261.554688 C 424.785156 272.492188 424.785156 290.363281 435.738281 301.355469 C 446.691406 312.292969 464.585938 312.292969 475.59375 301.355469 C 486.605469 290.414062 486.550781 272.546875 475.59375 261.554688 C 464.640625 250.5625 446.691406 250.617188 435.738281 261.554688 Z M 633.832031 286.085938 C 645.382812 246.070312 620.003906 198.253906 620.003906 198.253906 C 617.347656 192.894531 614.148438 187.425781 610.242188 182.28125 C 605.417969 181.847656 579.929688 203.941406 554.007812 231.015625 C 554.007812 231.015625 542.40625 227.117188 527.4375 226.304688 C 523.316406 217.097656 508.945312 193.707031 481.832031 173.023438 C 476.136719 173.835938 446.855469 198.363281 433.949219 249.535156 C 409.21875 262.691406 380.804688 298.265625 388.34375 343.265625 C 388.882812 346.351562 390.078125 350.953125 390.945312 353.714844 L 388.613281 354.636719 C 388.613281 354.636719 369.6875 363.136719 381.292969 383.007812 C 392.898438 402.882812 394.089844 402.125 394.089844 402.125 L 399.1875 402.125 C 399.1875 402.125 384.492188 384.742188 382.484375 372.289062 C 381.019531 363.460938 388.179688 359.453125 391.8125 358.210938 C 409.871094 394.867188 444.035156 402.179688 444.035156 402.179688 L 457.589844 402.179688 C 457.589844 402.179688 400.816406 389.128906 393.113281 341.855469 C 390.457031 325.503906 393.546875 309.855469 398.265625 297.023438 C 398.265625 297.074219 398.265625 297.128906 398.265625 297.128906 C 415.511719 257.222656 452.386719 244.824219 452.386719 244.824219 C 447.398438 244.878906 442.570312 245.796875 438.179688 247.421875 C 444.632812 224.191406 458.730469 196.523438 481.722656 176.8125 C 496.691406 188.019531 516.210938 216.339844 521.960938 226.195312 C 517.242188 226.195312 512.199219 226.574219 507.210938 227.496094 C 507.480469 228.847656 541.917969 232.855469 555.203125 235.292969 C 564.910156 225.222656 591.804688 198.363281 608.453125 186.667969 C 618 200.203125 623.964844 220.996094 627.488281 234.15625 C 628.574219 238.976562 629.332031 243.46875 629.929688 247.691406 C 631.066406 259.117188 630.472656 272.4375 628.464844 286.789062 C 629.984375 288.359375 631.5 291.011719 632.207031 292.3125 C 632.261719 292.417969 632.316406 292.472656 632.316406 292.582031 C 635.460938 298.699219 639.582031 310.398438 640.773438 330.703125 C 643.050781 369.363281 625.699219 385.664062 625.699219 385.664062 C 625.699219 385.664062 627.378906 392.703125 622.988281 396.925781 C 654.546875 365.574219 650.699219 313.644531 633.832031 286.085938 Z M 633.832031 286.085938 " fill-opacity="1" fill-rule="nonzero"/></g><path fill="#ef5454" d="M 501.894531 359.941406 C 489.152344 359.941406 481.507812 354.796875 478.035156 347.703125 C 499.238281 323.878906 526.734375 331.621094 528.792969 332.164062 C 529.984375 345.539062 523.75 359.941406 501.894531 359.941406 Z M 501.894531 359.941406 C 489.152344 359.941406 481.507812 354.796875 478.035156 347.703125 C 499.238281 323.878906 526.734375 331.621094 528.792969 332.164062 C 529.984375 345.539062 523.75 359.941406 501.894531 359.941406 Z M 501.894531 359.941406 " fill-opacity="1" fill-rule="nonzero"/><path fill="#ffffff" d="M 439.804688 270.382812 C 438.449219 265.453125 453.253906 256.953125 456.777344 261.664062 C 462.90625 269.785156 441.539062 276.769531 439.804688 270.382812 Z M 475.378906 275.851562 C 474.078125 269.191406 465.183594 268.050781 458.1875 274.984375 C 451.191406 281.859375 440.835938 279.152344 437.363281 282.996094 C 433.785156 286.84375 439.914062 303.085938 454.445312 303.085938 C 466.648438 303.085938 478.957031 294.640625 475.378906 275.851562 Z M 548.425781 288.519531 C 547.066406 283.59375 561.871094 275.09375 565.398438 279.804688 C 571.523438 287.871094 550.160156 294.855469 548.425781 288.519531 Z M 583.996094 293.988281 C 582.695312 287.328125 573.800781 286.191406 566.808594 293.125 C 559.8125 300 549.453125 297.292969 545.984375 301.136719 C 542.40625 304.980469 548.53125 321.226562 563.066406 321.226562 C 575.210938 321.226562 587.578125 312.777344 583.996094 293.988281 Z M 583.996094 293.988281 " fill-opacity="1" fill-rule="nonzero"/></svg>