<svg xmlns="http://www.w3.org/2000/svg" xmlns:xlink="http://www.w3.org/1999/xlink" width="1366" zoomAndPan="magnify" viewBox="0 0 1024.5 576" height="768" preserveAspectRatio="xMidYMid meet" version="1.0"><defs><clipPath id="2ebd450f81"><path d="M 435 173 L 588 173 L 588 402.992188 L 435 402.992188 Z M 435 173 " clip-rule="nonzero"/></clipPath></defs><g clip-path="url(#2ebd450f81)"><path fill="#380414" d="M 551.394531 398.789062 C 558.691406 398.914062 566.074219 398.8125 573.347656 400.289062 C 571.152344 401.605469 568.730469 401.582031 566.386719 401.703125 C 542.46875 402.980469 518.527344 402.84375 494.582031 402.859375 C 479.21875 402.859375 463.863281 402.746094 448.535156 401.714844 C 446.488281 401.582031 444.375 401.566406 442.453125 400.351562 C 445.792969 399.285156 449.265625 399.324219 452.878906 399.148438 C 450.273438 396 449.703125 392.648438 451.03125 388.988281 C 451.265625 388.332031 451.191406 388.011719 450.582031 387.539062 C 440.964844 379.921875 436.46875 369.714844 435.550781 357.71875 C 434.410156 342.472656 439.363281 328.867188 446.933594 316.003906 C 448.597656 313.175781 450.496094 310.484375 452.308594 307.730469 C 452.78125 307.023438 453.066406 306.339844 452.992188 305.410156 C 451.824219 292.683594 454.257812 280.625 460.027344 269.273438 C 461.953125 265.480469 462.746094 261.535156 462.882812 257.367188 C 462.90625 256.585938 462.695312 256.003906 462.1875 255.433594 C 459.617188 252.554688 457.484375 249.390625 456.054688 245.792969 C 455.746094 245 455.449219 244.75 454.503906 245.097656 C 451.886719 246.066406 449.179688 246.824219 446.523438 247.714844 C 445.582031 248.039062 444.699219 248.1875 444.277344 247.082031 C 443.855469 245.992188 444.390625 245.246094 445.445312 244.851562 C 448.0625 243.847656 450.695312 242.890625 453.425781 242.207031 C 454.144531 242.023438 454.839844 241.972656 454.503906 240.71875 C 452.296875 232.433594 453.277344 224.347656 456.34375 216.457031 C 457.113281 214.484375 457.296875 212.5625 457.125 210.503906 C 456.21875 200.183594 456.664062 189.910156 458.613281 179.726562 C 458.773438 178.910156 458.960938 178.089844 459.246094 177.308594 C 460.402344 174.195312 462.980469 172.867188 466.285156 173.75 C 471.0625 175.027344 475.382812 177.296875 479.566406 179.863281 C 483.238281 182.132812 486.726562 184.664062 490.003906 187.46875 C 490.625 188 491.132812 188.261719 492.0625 188.050781 C 500.007812 186.328125 508 186.277344 515.957031 187.964844 C 517.546875 188.300781 518.425781 187.492188 519.433594 186.675781 C 525.226562 181.996094 531.335938 177.828125 538.210938 174.878906 C 539.078125 174.503906 539.984375 174.160156 540.90625 173.910156 C 544.703125 172.894531 547.621094 174.679688 548.265625 178.550781 C 549.296875 184.726562 549.40625 190.953125 549.171875 197.191406 C 548.972656 202.339844 548.660156 207.488281 547.929688 212.585938 C 547.769531 213.753906 547.96875 214.832031 548.363281 215.925781 C 551.34375 223.875 552.460938 232.011719 550.609375 240.398438 C 550.410156 241.289062 550.746094 241.414062 551.429688 241.550781 C 554.59375 242.195312 557.636719 243.25 560.652344 244.417969 C 561.097656 244.589844 561.558594 244.738281 561.96875 244.976562 C 562.738281 245.433594 563.359375 246.015625 562.824219 247.007812 C 562.378906 247.851562 561.71875 248.125 560.726562 247.789062 C 557.511719 246.699219 554.246094 245.730469 551.046875 244.613281 C 549.867188 244.207031 549.40625 244.515625 548.972656 245.632812 C 547.199219 250.136719 544.589844 254.117188 541.128906 257.527344 C 540.753906 257.898438 540.359375 258.234375 540.320312 258.855469 C 540.121094 261.734375 540.035156 264.574219 541.375 267.289062 C 545.074219 274.796875 547.46875 282.710938 548.449219 291.03125 C 549.058594 296.230469 549.121094 301.441406 548.351562 306.625 C 548.140625 308.050781 548.300781 309.292969 549.035156 310.570312 C 552.917969 317.367188 556.445312 324.351562 559.210938 331.679688 C 559.449219 332.300781 559.484375 332.898438 560.613281 332.761719 C 574.105469 331.125 583.351562 339.558594 586.246094 349.941406 C 589.585938 361.9375 587.757812 373.25 579.503906 382.972656 C 574.390625 389.003906 567.492188 392.027344 559.820312 393.441406 C 558.878906 393.617188 557.910156 393.914062 556.992188 393.816406 C 553.414062 393.441406 552.101562 395.675781 551.394531 398.789062 Z M 551.394531 398.789062 " fill-opacity="1" fill-rule="nonzero"/></g><path fill="#fefefe" d="M 524.941406 381.933594 C 524.84375 382.984375 524.867188 384.027344 524.59375 385.09375 C 524.261719 386.398438 524.472656 387.664062 525.699219 388.765625 C 527.847656 390.703125 529.226562 393.132812 529.1875 396.148438 C 529.175781 397.300781 528.816406 398.269531 527.460938 398.664062 C 527.523438 397.261719 527.984375 395.910156 527.449219 394.585938 C 527.25 394.089844 527.078125 393.566406 526.78125 393.144531 C 526.433594 392.648438 525.949219 392.253906 525.265625 392.625 C 524.59375 392.972656 524.867188 393.542969 524.992188 394.039062 C 525.152344 394.734375 525.464844 395.414062 525.527344 396.109375 C 525.613281 397.078125 525.515625 398.195312 524.609375 398.664062 C 523.601562 399.199219 522.359375 398.9375 521.242188 398.875 C 520.746094 398.851562 521.132812 398.316406 521.183594 398.007812 C 521.429688 396.570312 521.441406 395.140625 520.773438 393.800781 C 520.449219 393.144531 520.003906 392.476562 519.109375 392.808594 C 518.203125 393.144531 518.316406 393.878906 518.574219 394.609375 C 518.738281 395.054688 518.921875 395.503906 519.011719 395.972656 C 519.332031 397.734375 518.140625 399.171875 516.390625 399.171875 C 515.1875 399.171875 513.996094 399.171875 512.792969 399.125 C 510.558594 399.039062 509.351562 398.070312 508.992188 395.847656 C 508.039062 389.84375 508.011719 383.78125 508.160156 377.726562 C 508.496094 363.324219 510.308594 349.085938 513.300781 334.992188 C 513.546875 333.816406 513.746094 332.574219 512.308594 331.90625 C 511.636719 330.714844 512.144531 329.4375 512.070312 328.207031 C 511.921875 325.800781 511.164062 324.882812 508.746094 325.03125 C 505.691406 325.21875 502.652344 325.34375 499.597656 325.355469 C 497.4375 325.367188 495.289062 325.121094 493.144531 325.007812 C 489.78125 324.847656 488.824219 325.789062 488.785156 329.125 C 488.699219 335.304688 489.359375 341.445312 490.039062 347.558594 C 491.554688 361.242188 493.117188 374.921875 492.757812 388.730469 C 492.683594 391.65625 492.113281 394.570312 492.472656 397.511719 C 492.523438 397.871094 492.335938 398.207031 492.148438 398.515625 C 489.78125 399.84375 487.210938 399.324219 484.839844 398.886719 C 483.425781 398.640625 483.574219 396.78125 483.894531 395.464844 C 484.132812 394.523438 485.011719 393.304688 483.585938 392.910156 C 482.308594 392.5625 481.921875 393.902344 481.585938 394.945312 C 481.339844 395.714844 481.425781 396.480469 481.363281 397.25 C 481.316406 397.820312 482.433594 398.851562 481.191406 398.886719 C 480.035156 398.925781 478.273438 399.707031 477.765625 397.648438 C 477.46875 396.40625 477.378906 395.167969 478.085938 394.011719 C 478.472656 393.394531 478.671875 392.773438 477.839844 392.363281 C 477.070312 391.980469 476.609375 392.449219 476.238281 393.058594 C 475.132812 394.871094 475.53125 396.828125 475.753906 398.789062 C 473.804688 398.03125 472.988281 396.359375 473.558594 394.136719 C 474.054688 392.203125 474.972656 390.429688 476.488281 389.089844 C 477.527344 388.171875 477.664062 387.191406 477.566406 385.902344 C 475.941406 364.914062 470.34375 344.941406 462.101562 325.640625 C 458.003906 316.0625 455.859375 306.089844 456.476562 295.609375 C 457.011719 286.652344 459.542969 278.253906 463.566406 270.265625 C 464.535156 268.34375 465.453125 266.410156 465.9375 264.300781 C 466.707031 264.066406 467.351562 264.460938 467.996094 264.734375 C 477.925781 269.039062 488.378906 270.863281 499.101562 271.679688 C 507.21875 272.300781 515.261719 271.59375 523.328125 270.972656 C 525.339844 270.824219 527.289062 271.074219 529.1875 271.679688 C 531.445312 272.414062 532.875 274.039062 533.769531 276.210938 C 535.777344 281.085938 536.683594 286.207031 537.355469 291.390625 C 539.019531 304.28125 537.15625 316.832031 533.804688 329.25 C 530.453125 341.640625 527.152344 354.046875 525.699219 366.835938 C 525.203125 371.175781 524.792969 375.53125 524.746094 379.910156 C 524.730469 380.816406 524.609375 381.671875 524.273438 382.5625 C 524.1875 382.726562 524.695312 382.625 524.484375 382.527344 C 524.410156 382.488281 524.398438 382.441406 524.398438 382.378906 C 524.382812 381.96875 524.570312 381.820312 524.941406 381.933594 Z M 524.941406 381.933594 " fill-opacity="1" fill-rule="nonzero"/><path fill="#fefefe" d="M 542.183594 240.558594 C 541.539062 241.476562 541.722656 242.28125 542.519531 243.015625 C 542.714844 243.25 542.804688 243.523438 542.792969 243.832031 C 540.632812 248 537.179688 250.941406 533.308594 253.410156 C 525.875 258.160156 517.621094 260.394531 508.90625 261.226562 C 498.15625 262.253906 487.746094 260.890625 477.703125 256.933594 C 472.664062 254.949219 467.859375 252.503906 463.976562 248.597656 C 463.355469 247.976562 462.238281 247.941406 462.015625 246.886719 C 463.328125 245.210938 465.019531 243.984375 466.90625 243.027344 C 468.308594 242.765625 469.574219 242.382812 468.964844 240.484375 C 468.914062 239.28125 469.90625 238.746094 470.578125 238.039062 C 473.097656 235.421875 476.089844 233.921875 479.835938 234.183594 C 481.265625 234.28125 482.71875 234.320312 484.132812 234.160156 C 486.515625 233.886719 488.726562 233.226562 489.765625 230.722656 C 490.289062 230.078125 491.09375 229.992188 491.804688 229.730469 C 495.738281 228.265625 497.4375 225.808594 497.265625 221.816406 C 497.015625 220.339844 496.65625 218.886719 496.058594 217.523438 C 495.5625 216.382812 495.863281 215.726562 497.113281 215.453125 C 498.804688 215.082031 500.480469 214.683594 502.054688 213.902344 C 505.207031 212.3125 507.367188 209.921875 508.410156 206.546875 C 508.496094 206.261719 508.558594 205.964844 508.695312 205.703125 C 508.882812 205.332031 509.03125 204.871094 509.527344 204.871094 C 510.035156 204.871094 510.183594 205.355469 510.320312 205.726562 C 510.90625 207.351562 511.464844 209.003906 512.605469 210.355469 C 514.542969 212.785156 517.125 214.148438 520.089844 214.929688 C 522.039062 215.441406 522.125 215.636719 521.28125 217.511719 C 520.722656 218.753906 520.648438 220.042969 520.683594 221.355469 C 520.214844 225.585938 522.25 228.253906 525.984375 229.878906 C 526.46875 230.089844 526.992188 230.261719 527.375 230.648438 C 527.898438 233.203125 530.019531 233.636719 532.066406 234.121094 C 533 234.34375 533.964844 234.371094 534.921875 234.429688 C 538.460938 234.667969 540.46875 236.910156 542.109375 239.703125 C 542.28125 239.988281 542.355469 240.273438 542.183594 240.558594 Z M 542.183594 240.558594 " fill-opacity="1" fill-rule="nonzero"/><path fill="#febc6c" d="M 490.003906 230.832031 C 490.574219 231.515625 490.015625 231.914062 489.605469 232.324219 C 488.105469 233.824219 486.28125 234.617188 484.167969 234.714844 C 482.804688 234.777344 481.414062 234.828125 480.046875 234.703125 C 476.351562 234.355469 473.433594 235.832031 470.964844 238.4375 C 470.304688 239.132812 469.648438 239.800781 468.976562 240.496094 C 466.347656 239.714844 463.738281 240.386719 461.15625 240.757812 C 458.105469 241.203125 458.152344 241.277344 457.496094 238.214844 C 455.980469 231.058594 456.949219 224.136719 459.730469 217.5 C 460.761719 215.054688 460.871094 212.699219 460.648438 210.167969 C 459.71875 200.035156 460.191406 189.949219 462.199219 179.964844 C 462.300781 179.503906 462.5 179.058594 462.648438 178.613281 C 463.75 179.480469 465.351562 179.691406 466.085938 181.09375 C 464.535156 189.167969 465.636719 197.179688 466.71875 205.21875 C 467.214844 204.289062 466.867188 203.195312 467.3125 202.277344 C 468.492188 201.621094 468.246094 202.714844 468.417969 203.222656 C 468.640625 203.855469 468.046875 204.847656 469.226562 205.070312 C 469.597656 205.554688 470.007812 205.34375 470.480469 205.195312 C 473.457031 204.265625 475.878906 202.367188 478.261719 200.492188 C 482.417969 197.21875 486.75 194.316406 491.816406 192.605469 C 492.300781 192.441406 492.609375 192.09375 492.84375 191.660156 C 500.863281 189.761719 508.882812 190.121094 516.886719 191.710938 C 518.152344 191.957031 519.046875 191.671875 520.003906 190.917969 C 522.386719 189.03125 524.632812 186.945312 527.277344 185.410156 C 528.964844 185.160156 530.601562 185.632812 532.242188 185.855469 C 533.667969 186.054688 533.929688 186.761719 533.222656 188.027344 C 532.515625 189.292969 531.484375 190.308594 530.628906 191.449219 C 528.230469 194.636719 526.730469 198.085938 526.804688 202.203125 C 526.929688 208.691406 522.089844 212.5625 515.585938 211.371094 C 514.46875 211.171875 513.363281 210.875 512.257812 210.652344 C 510.816406 209.125 510.332031 207.128906 509.601562 205.09375 C 509.414062 205.367188 509.242188 205.527344 509.191406 205.714844 C 507.964844 211.347656 504.175781 214.3125 498.839844 215.664062 C 498.257812 215.8125 497.6875 216 497.089844 216.035156 C 496.011719 216.109375 496.121094 216.582031 496.507812 217.3125 C 497.238281 218.703125 497.585938 220.214844 497.734375 221.765625 C 496.929688 221.914062 496.394531 221.332031 495.785156 220.984375 C 492.148438 218.902344 488.289062 218.578125 484.304688 219.644531 C 480.046875 220.785156 479.117188 224.023438 482.046875 227.347656 C 483.625 229.132812 485.609375 230.140625 488.015625 230.277344 C 488.710938 230.300781 489.480469 230.152344 490.003906 230.832031 Z M 490.003906 230.832031 " fill-opacity="1" fill-rule="nonzero"/><path fill="#e2ddd5" d="M 524.941406 381.933594 C 524.246094 382.328125 524.695312 383.148438 524.246094 384.015625 C 524.011719 379.253906 524.382812 374.886719 524.757812 370.496094 C 525.140625 365.855469 525.835938 361.265625 526.644531 356.6875 C 527.871094 349.742188 529.558594 342.917969 531.347656 336.109375 C 533.195312 329.078125 535.292969 322.082031 536.3125 314.859375 C 537.019531 309.898438 537.652344 304.886719 537.417969 299.875 C 537.070312 292.1875 536.125 284.582031 533.59375 277.203125 C 531.804688 272.003906 527.597656 271.285156 523.09375 271.519531 C 521.132812 271.621094 519.183594 272.101562 517.222656 272.101562 C 512.308594 272.089844 507.417969 272.785156 502.503906 272.5 C 490.214844 271.792969 478.164062 269.921875 466.804688 264.859375 C 466.484375 264.710938 466.210938 264.460938 465.910156 264.265625 C 466.058594 262.726562 466.210938 261.199219 466.347656 259.75 C 489.382812 273.851562 512.691406 275.019531 536.535156 261.722656 C 536.335938 267.414062 540.0625 272.089844 541.796875 277.449219 C 546.910156 293.242188 546.367188 308.796875 540.121094 324.128906 C 535.292969 335.972656 530.9375 347.957031 528.292969 360.507812 C 526.890625 367.183594 525.738281 373.90625 525.214844 380.714844 C 525.167969 381.136719 525.03125 381.535156 524.941406 381.933594 Z M 524.941406 381.933594 " fill-opacity="1" fill-rule="nonzero"/><path fill="#fefefe" d="M 441.347656 367.890625 C 440.714844 366.625 440.367188 365.261719 440.179688 363.871094 C 438.308594 353.226562 446.324219 341.582031 456.070312 337.660156 C 456.6875 337.414062 457.296875 337.164062 457.980469 337.375 C 459.035156 337.921875 459.359375 339 459.78125 339.96875 C 463.144531 347.484375 465.789062 355.226562 466.570312 363.488281 C 466.90625 366.996094 466.804688 370.46875 464.421875 373.386719 C 461.171875 377.355469 456.9375 378.148438 452.269531 376.671875 C 447.542969 375.171875 443.832031 372.242188 441.347656 367.890625 Z M 441.347656 367.890625 " fill-opacity="1" fill-rule="nonzero"/><path fill="#fe9b51" d="M 512.257812 210.628906 C 513.386719 209.746094 514.429688 210.652344 515.484375 210.8125 C 518.875 211.335938 521.890625 210.675781 524.472656 208.332031 C 525.75 207.167969 526.457031 205.714844 526.296875 204.027344 C 525.710938 198.035156 528.058594 193.210938 531.96875 188.90625 C 532.527344 188.285156 533.53125 187.519531 533.097656 186.6875 C 532.773438 186.054688 531.609375 186.117188 530.75 186.152344 C 529.535156 186.203125 528.394531 185.84375 527.277344 185.382812 C 531.644531 182.234375 536.210938 179.40625 541.265625 177.445312 C 543.375 176.625 544.292969 177.136719 544.679688 179.378906 C 545.023438 181.378906 545.285156 183.410156 545.371094 185.433594 C 545.820312 194.613281 545.347656 203.765625 544.269531 212.882812 C 544.105469 214.25 544.417969 215.464844 544.890625 216.71875 C 547.570312 223.777344 548.675781 231.019531 547.371094 238.5625 C 547.074219 240.25 546.429688 240.808594 544.8125 240.507812 C 544.167969 240.398438 543.5 240.433594 542.839844 240.398438 C 541.6875 239.765625 542.035156 238.648438 541.972656 237.679688 C 541.699219 232.769531 540.695312 228.09375 537.640625 224.074219 C 537.03125 221.382812 535.082031 220.242188 532.613281 219.570312 C 528.953125 218.578125 525.5 219.050781 522.175781 220.761719 C 521.554688 221.085938 521.007812 221.640625 520.214844 221.503906 C 519.855469 219.472656 520.511719 217.648438 521.652344 215.835938 C 517.894531 215.007812 514.542969 213.765625 512.257812 210.628906 Z M 512.257812 210.628906 " fill-opacity="1" fill-rule="nonzero"/><path fill="#e3ded5" d="M 492.113281 398.480469 C 491.515625 395.875 491.9375 393.269531 492.039062 390.652344 C 492.238281 385.925781 492.335938 381.175781 492.039062 376.460938 C 491.640625 370.046875 491.183594 363.636719 490.414062 357.234375 C 489.78125 351.925781 489.148438 346.589844 488.785156 341.246094 C 488.515625 337.078125 488.066406 332.921875 488.117188 328.742188 C 488.152344 325.34375 489.160156 324.152344 492.460938 324.386719 C 496.222656 324.660156 499.980469 324.734375 503.753906 324.683594 C 505.667969 324.660156 507.566406 324.386719 509.476562 324.363281 C 511.527344 324.339844 512.59375 325.40625 512.628906 327.425781 C 512.65625 328.914062 512.804688 330.429688 512.28125 331.867188 C 510.59375 331.707031 510.199219 332.910156 509.898438 334.175781 C 508.671875 339.570312 507.652344 344.992188 506.871094 350.472656 C 506.746094 351.355469 506.574219 352.234375 506.425781 353.117188 C 503.941406 355.734375 499.4375 355.90625 496.855469 353.476562 C 495.972656 347.210938 495.167969 340.921875 493.902344 334.71875 C 493.652344 333.492188 493.664062 331.878906 491.753906 332.015625 C 490.449219 332.101562 490.128906 333.230469 490.5 335.367188 C 493.589844 352.84375 495.402344 370.421875 494.582031 388.195312 C 494.472656 390.578125 494.1875 392.960938 493.851562 395.328125 C 493.675781 396.554688 493.390625 397.820312 492.113281 398.480469 Z M 492.113281 398.480469 " fill-opacity="1" fill-rule="nonzero"/><path fill="#e3ded5" d="M 559.832031 354.566406 C 560.042969 365.695312 556.382812 375.320312 548.636719 383.347656 C 548.277344 383.71875 548.015625 384.128906 547.308594 383.730469 C 542.082031 380.804688 536.4375 380.839844 530.714844 381.460938 C 528.714844 381.683594 528.640625 381.683594 528.851562 379.5625 C 530.304688 365.285156 533.644531 351.441406 538.558594 337.957031 C 538.621094 337.796875 538.746094 337.660156 538.832031 337.511719 C 540.183594 337.660156 540.433594 338.988281 541.203125 339.757812 C 542.007812 340.5625 542.617188 341.542969 543.199219 342.523438 C 543.375 342.859375 543.472656 343.21875 543.375 343.601562 C 541.101562 349.085938 539.242188 354.703125 538.210938 360.570312 C 537.9375 362.121094 537.949219 363.671875 538.0625 365.222656 C 538.210938 367.382812 539.636719 369.128906 541.488281 369.589844 C 543.0625 369.984375 544.839844 369.179688 546.042969 367.394531 C 548.574219 363.597656 549.480469 359.28125 549.929688 354.839844 C 550.003906 354.132812 549.867188 353.390625 550.351562 352.769531 C 550.871094 352.472656 551.28125 352.78125 551.664062 353.042969 C 553.914062 354.542969 556.308594 355.1875 558.988281 354.417969 C 559.261719 354.355469 559.558594 354.40625 559.832031 354.566406 Z M 559.832031 354.566406 " fill-opacity="1" fill-rule="nonzero"/><path fill="#fefefe" d="M 574.242188 339.308594 C 579.640625 342.796875 582.273438 348.042969 583.550781 354.109375 C 584.136719 356.863281 584.074219 359.679688 583.886719 362.46875 C 582.671875 364.652344 581.964844 367.097656 580.238281 369.019531 C 576.835938 372.789062 572.578125 374.886719 567.628906 375.703125 C 566.757812 375.855469 565.851562 375.691406 565.914062 374.675781 C 566.074219 371.660156 565.035156 368.945312 564.164062 366.164062 C 566.746094 363.921875 568.707031 361.328125 569.265625 357.816406 C 569.960938 353.453125 568.171875 349.371094 564.339844 347.1875 C 563.359375 346.628906 562.9375 345.996094 563.011719 344.941406 C 562.972656 343.640625 562.664062 342.375 562.636719 341.070312 C 562.601562 339.234375 563.433594 338.332031 565.28125 338.195312 C 567.800781 338.007812 570.285156 338.332031 572.703125 339.039062 C 573.199219 339.1875 573.683594 339.398438 574.242188 339.308594 Z M 574.242188 339.308594 " fill-opacity="1" fill-rule="nonzero"/><path fill="#e2ded5" d="M 462.238281 246.710938 C 470.589844 254.328125 480.570312 258.507812 491.59375 260.21875 C 503.742188 262.105469 515.671875 261.074219 527.054688 256.226562 C 533.34375 253.535156 538.769531 249.566406 542.566406 243.683594 C 543.683594 243.882812 544.503906 244.480469 545.0625 245.472656 C 541.710938 253.125 536.015625 258.570312 528.480469 261.855469 C 508.609375 270.527344 489.257812 269.3125 470.714844 257.960938 C 466.371094 255.308594 462.980469 251.5625 460.597656 246.996094 C 461.082031 246.449219 461.578125 246.117188 462.238281 246.710938 Z M 462.238281 246.710938 " fill-opacity="1" fill-rule="nonzero"/><path fill="#fe9a50" d="M 559.832031 354.566406 C 556.28125 356.167969 553.253906 355.015625 550.4375 352.769531 C 549.640625 352.621094 549.28125 352.035156 548.996094 351.367188 C 548.179688 348.664062 546.824219 346.21875 545.535156 343.738281 C 544.914062 342.546875 544.132812 342.125 542.890625 342.683594 C 541.539062 340.972656 540.183594 339.25 538.832031 337.535156 C 540.222656 332.835938 542.46875 328.46875 544.070312 323.84375 C 545.113281 320.816406 546.066406 317.765625 547.011719 314.304688 C 548.328125 316.832031 549.519531 319.015625 550.636719 321.25 C 554.582031 329.125 557.820312 337.25 559.25 346.007812 C 559.722656 348.835938 560.007812 351.691406 559.832031 354.566406 Z M 559.832031 354.566406 " fill-opacity="1" fill-rule="nonzero"/><path fill="#e2dfd6" d="M 441.347656 367.890625 C 443.335938 369.6875 444.824219 371.984375 447.09375 373.496094 C 450.398438 375.691406 453.824219 377.367188 457.957031 376.574219 C 463.09375 375.582031 466.171875 371.933594 466.148438 366.613281 C 466.109375 359.964844 464.519531 353.613281 462.210938 347.433594 C 460.960938 344.085938 459.878906 340.648438 457.867188 337.636719 C 457.769531 337.449219 457.792969 337.277344 457.957031 337.113281 C 459.308594 336.507812 460.636719 335.699219 462.226562 336.246094 C 465.351562 343.503906 467.5 351.070312 469.410156 358.710938 C 471.113281 365.496094 472.292969 372.378906 473.285156 379.300781 C 473.621094 381.585938 473.632812 381.484375 471.359375 381.324219 C 465.367188 380.890625 459.480469 381.238281 454.292969 384.773438 C 453.636719 385.21875 453.277344 385.046875 452.753906 384.636719 C 447.121094 380.292969 443.382812 374.664062 441.347656 367.890625 Z M 441.347656 367.890625 " fill-opacity="1" fill-rule="nonzero"/><path fill="#c7bab2" d="M 496.855469 353.476562 C 500.105469 355.039062 503.308594 354.976562 506.425781 353.117188 C 505.53125 360.484375 504.710938 367.863281 504.539062 375.296875 C 504.363281 382.601562 504.3125 389.921875 505.617188 397.152344 C 505.742188 397.871094 505.667969 398.105469 504.898438 398.09375 C 502.378906 398.070312 499.871094 398.082031 497.203125 398.082031 C 498.308594 391.667969 498.503906 385.304688 498.457031 378.917969 C 498.394531 370.769531 497.835938 362.644531 496.878906 354.542969 C 496.84375 354.195312 496.867188 353.835938 496.855469 353.476562 Z M 496.855469 353.476562 " fill-opacity="1" fill-rule="nonzero"/><path fill="#febb6b" d="M 457.917969 337.339844 C 457.917969 337.4375 457.90625 337.535156 457.882812 337.625 C 452.992188 339.039062 449.179688 342.015625 446.050781 345.898438 C 441.84375 351.121094 439.96875 357.160156 440.179688 363.859375 C 438.765625 358.324219 438.765625 352.695312 439.324219 347.113281 C 440.28125 337.699219 443.867188 329.101562 448.285156 320.828125 C 448.375 320.679688 448.523438 320.554688 448.644531 320.429688 C 448.917969 320.417969 449.09375 320.554688 449.21875 320.777344 C 451.949219 325.851562 455.027344 330.714844 457.671875 335.824219 C 457.90625 336.285156 458.214844 336.765625 457.917969 337.339844 Z M 457.917969 337.339844 " fill-opacity="1" fill-rule="nonzero"/><path fill="#fe9a50" d="M 466.011719 180.820312 C 464.832031 180.175781 463.105469 180.347656 462.660156 178.597656 C 463.28125 176.800781 464.632812 176.988281 466.035156 177.382812 C 471.683594 179.007812 476.621094 182.011719 481.414062 185.296875 C 483.984375 187.058594 486.441406 188.96875 488.75 191.039062 C 490.015625 192.167969 491.34375 192.394531 492.859375 191.636719 C 493.726562 192.332031 492.859375 192.441406 492.484375 192.617188 C 489.992188 193.757812 487.496094 194.875 485.101562 196.214844 C 481.921875 198 479.253906 200.492188 476.277344 202.550781 C 474.363281 203.878906 472.453125 205.179688 470.15625 205.777344 C 469.695312 205.902344 469.113281 206.210938 469.460938 205.257812 C 469.574219 204.4375 470.28125 204.128906 470.828125 203.71875 C 472.625 202.367188 474.402344 200.988281 476.140625 199.550781 C 476.871094 198.980469 476.621094 198.273438 476.398438 197.578125 C 474.785156 192.527344 472.738281 187.691406 469.722656 183.289062 C 468.777344 181.949219 467.761719 180.855469 466.011719 180.820312 Z M 466.011719 180.820312 " fill-opacity="1" fill-rule="nonzero"/><path fill="#e3ded6" d="M 564.152344 366.164062 C 565.726562 368.324219 566.511719 370.71875 566.285156 373.398438 C 566.164062 374.847656 566.300781 375.554688 568.171875 375.132812 C 575.25 373.558594 580.574219 370 583.03125 362.890625 C 583.140625 362.570312 583.082031 361.539062 583.886719 362.46875 C 583.277344 372.703125 579.035156 380.777344 569.898438 385.9375 C 566.808594 385.664062 564.734375 383.542969 564.6875 380.480469 C 564.660156 379.015625 564.449219 377.515625 565.292969 376.039062 C 563.804688 375.941406 562.464844 375.703125 561.199219 375.183594 C 560.503906 374.898438 559.671875 374.664062 559.78125 373.632812 C 560.429688 371.871094 561.085938 370.121094 561.71875 368.359375 C 562.152344 367.183594 563.195312 366.734375 564.152344 366.164062 Z M 564.152344 366.164062 " fill-opacity="1" fill-rule="nonzero"/><path fill="#c9bbb5" d="M 559.78125 373.621094 C 560.851562 375.097656 562.601562 375.160156 564.113281 375.355469 C 565.46875 375.53125 565.640625 375.65625 565.40625 377.082031 C 564.972656 379.75 564.5625 382.550781 567.253906 384.585938 C 568.085938 385.21875 569.214844 385.121094 569.898438 385.9375 C 566.0625 388.46875 561.71875 389.511719 557.277344 390.179688 C 552.796875 390.851562 552.796875 390.761719 551.183594 386.65625 C 550.996094 386.199219 551.019531 385.949219 551.394531 385.589844 C 555.03125 382.191406 557.550781 378 559.78125 373.621094 Z M 559.78125 373.621094 " fill-opacity="1" fill-rule="nonzero"/><path fill="#fe9c51" d="M 457.917969 337.339844 C 455.113281 332.339844 452.332031 327.328125 449.464844 322.367188 C 449.105469 321.734375 449.007812 321.027344 448.632812 320.429688 C 450.074219 317.476562 451.972656 314.800781 453.660156 311.882812 C 454.394531 312.578125 454.292969 313.460938 454.46875 314.191406 C 456.042969 321.148438 458.886719 327.648438 461.542969 334.222656 C 461.804688 334.882812 462 335.5625 462.226562 336.246094 C 460.796875 336.605469 459.359375 336.976562 457.917969 337.339844 Z M 457.917969 337.339844 " fill-opacity="1" fill-rule="nonzero"/><path fill="#fcfdfc" d="M 542.207031 393.070312 C 542.132812 391.679688 541.761719 390.378906 541.101562 389.164062 C 540.679688 388.382812 540.121094 387.6875 539.140625 388.171875 C 538.160156 388.65625 538.570312 389.449219 538.90625 390.167969 C 539.515625 391.433594 539.8125 392.75 539.578125 394.148438 C 538.757812 394.917969 537.691406 395.214844 536.648438 395.351562 C 535.40625 395.527344 534.339844 396.257812 533.085938 396.308594 C 532.972656 392.675781 531.445312 389.632812 529.199219 386.882812 C 528.902344 386.519531 528.355469 386.210938 528.53125 385.691406 C 528.753906 385.046875 529.449219 385.242188 529.933594 385.207031 C 534.003906 384.882812 538.0625 384.636719 542.097656 385.515625 C 544.121094 385.964844 545.929688 386.882812 547.457031 388.234375 C 548.984375 389.585938 549.605469 391.359375 549.296875 393.417969 C 547.0625 393.925781 547.0625 393.925781 547.011719 391.59375 C 547.011719 391.359375 547.011719 391.125 546.898438 390.914062 C 546.863281 390.675781 546.875 390.417969 546.761719 390.21875 C 546.328125 389.410156 546.367188 387.933594 544.875 388.417969 C 543.4375 388.890625 544.441406 389.96875 544.554688 390.789062 C 544.703125 391.792969 544.789062 392.796875 544.601562 393.800781 C 543.4375 394.808594 542.867188 393.816406 542.207031 393.070312 Z M 542.207031 393.070312 " fill-opacity="1" fill-rule="nonzero"/><path fill="#febd6e" d="M 537.914062 223.9375 C 539.5625 224.964844 540.035156 226.765625 540.667969 228.378906 C 541.972656 231.664062 542.640625 235.113281 542.519531 238.671875 C 542.492188 239.28125 542.492188 239.875 542.851562 240.398438 C 542.628906 240.449219 542.40625 240.496094 542.183594 240.558594 C 541.898438 240.175781 541.539062 239.828125 541.328125 239.417969 C 539.589844 236.042969 536.695312 234.804688 533.058594 234.753906 C 530.8125 234.730469 528.839844 233.960938 527.3125 232.234375 C 526.890625 231.765625 526.519531 231.28125 527.339844 230.832031 C 527.796875 230.1875 528.492188 230.277344 529.136719 230.277344 C 532.824219 230.238281 535.367188 228.476562 536.96875 225.226562 C 537.21875 224.742188 537.367188 224.199219 537.914062 223.9375 Z M 537.914062 223.9375 " fill-opacity="1" fill-rule="nonzero"/><path fill="#fcfcfc" d="M 458.921875 391.171875 C 459.023438 390.777344 459.074219 390.355469 459.222656 389.980469 C 459.570312 389.113281 459.40625 388.582031 458.453125 388.195312 C 457.359375 387.75 457.308594 388.605469 457 389.175781 C 456.886719 389.375 456.839844 389.609375 456.765625 389.820312 C 456.105469 390.355469 455.421875 390.726562 454.59375 390.167969 C 455.757812 388.097656 457.558594 386.792969 459.753906 386.050781 C 463.9375 384.636719 468.234375 384.746094 472.539062 385.257812 C 473.878906 385.417969 473.980469 385.964844 473.183594 386.96875 C 471.484375 389.089844 470.269531 391.46875 469.695312 394.136719 C 469.5625 394.871094 469.152344 395.316406 468.367188 395.292969 C 467.175781 395.242188 466 395.105469 464.90625 394.609375 C 463.480469 393.964844 463.726562 392.761719 463.960938 391.570312 C 463.886719 390.863281 464.324219 390.328125 464.632812 389.769531 C 464.945312 389.1875 465.09375 388.667969 464.421875 388.246094 C 463.765625 387.8125 463.167969 387.933594 462.710938 388.542969 C 462.015625 389.460938 461.640625 390.527344 461.394531 391.632812 C 461.046875 392.078125 461.730469 393.21875 460.6875 393.058594 C 459.828125 392.921875 458.664062 392.597656 458.921875 391.171875 Z M 458.921875 391.171875 " fill-opacity="1" fill-rule="nonzero"/><path fill="#dddbd7" d="M 574.242188 339.308594 C 573.769531 340.117188 573.136719 339.707031 572.503906 339.546875 C 570.246094 338.964844 567.960938 338.617188 565.617188 338.714844 C 563.554688 338.800781 563.222656 339.125 563.023438 341.234375 C 562.910156 342.472656 563.582031 343.703125 562.996094 344.929688 C 562.316406 342.289062 561.644531 339.644531 560.960938 337.003906 C 560.824219 336.46875 560.976562 336.257812 561.546875 336.210938 C 566.113281 335.875 570.46875 336.394531 574.242188 339.308594 Z M 574.242188 339.308594 " fill-opacity="1" fill-rule="nonzero"/><path fill="#e5dfdd" d="M 464 391.582031 C 464.136719 392.5625 463.652344 393.914062 465.167969 394.148438 C 466.667969 394.375 468.207031 395.664062 469.722656 394.148438 C 469.660156 395.714844 469.648438 397.261719 470.765625 398.589844 C 465.898438 399.484375 462.632812 395.984375 464 391.582031 Z M 464 391.582031 " fill-opacity="1" fill-rule="nonzero"/><path fill="#e4ddd5" d="M 533.085938 396.308594 C 533.667969 395.601562 534.351562 395.253906 535.320312 395.128906 C 536.757812 394.945312 538.160156 394.484375 539.589844 394.148438 C 539.078125 398.070312 537.578125 399.039062 532.304688 398.765625 C 532.5625 397.921875 532.824219 397.113281 533.085938 396.308594 Z M 533.085938 396.308594 " fill-opacity="1" fill-rule="nonzero"/><path fill="#ede4e5" d="M 454.605469 390.179688 C 455.324219 390.070312 456.042969 389.945312 456.777344 389.832031 C 455.980469 392.773438 456.539062 395.476562 458.277344 398.007812 C 454.964844 397.835938 453.039062 393.605469 454.605469 390.179688 Z M 454.605469 390.179688 " fill-opacity="1" fill-rule="nonzero"/><path fill="#fabe79" d="M 462.238281 246.710938 C 461.691406 246.796875 461.15625 246.886719 460.613281 246.972656 C 458.847656 243.734375 458.847656 243.734375 462.472656 243.363281 C 463.949219 243.199219 465.414062 242.828125 466.917969 243.039062 C 465.488281 244.429688 464.0625 245.832031 462.238281 246.710938 Z M 462.238281 246.710938 " fill-opacity="1" fill-rule="nonzero"/><path fill="#e8e3e4" d="M 563.46875 351.269531 C 566.511719 353.527344 566.226562 359.195312 563.109375 361.710938 C 563.59375 358.300781 563.582031 354.890625 563.46875 351.269531 Z M 563.46875 351.269531 " fill-opacity="1" fill-rule="nonzero"/><path fill="#e8dddc" d="M 458.921875 391.171875 C 459.085938 392.277344 460.425781 391.96875 460.734375 393.058594 C 461.046875 392.414062 461.230469 392.027344 461.417969 391.632812 C 461.132812 394.011719 461.652344 396.222656 462.957031 398.269531 C 460.375 398.640625 458.042969 394.433594 458.921875 391.171875 Z M 458.921875 391.171875 " fill-opacity="1" fill-rule="nonzero"/><path fill="#e5dee0" d="M 542.207031 393.070312 C 543.039062 393.230469 543.636719 394.136719 544.617188 393.789062 C 544.03125 396.035156 543.335938 398.195312 540.195312 398.8125 C 541.539062 396.917969 542.257812 395.105469 542.207031 393.070312 Z M 542.207031 393.070312 " fill-opacity="1" fill-rule="nonzero"/><path fill="#e3dadc" d="M 546.910156 390.914062 C 547.558594 391.65625 547.074219 392.613281 547.382812 393.503906 C 548.015625 393.457031 548.648438 392.414062 549.308594 393.417969 C 548.984375 395.9375 547.632812 397.660156 545.347656 398.144531 C 546.800781 395.8125 547.199219 393.429688 546.910156 390.914062 Z M 546.910156 390.914062 " fill-opacity="1" fill-rule="nonzero"/><path fill="#f49f5d" d="M 545.074219 245.457031 C 544.058594 245.125 543.273438 244.453125 542.582031 243.671875 C 542.554688 243.449219 542.542969 243.238281 542.519531 243.015625 C 543.621094 243.164062 544.738281 243.300781 545.882812 243.449219 C 545.808594 244.253906 545.507812 244.886719 545.074219 245.457031 Z M 545.074219 245.457031 " fill-opacity="1" fill-rule="nonzero"/><path fill="#3b0515" d="M 490.003906 230.832031 C 486.914062 230.910156 484.046875 230.386719 481.859375 227.90625 C 481.140625 227.085938 480.53125 226.21875 480.125 225.203125 C 479.230469 222.945312 479.8125 221.234375 481.910156 220.042969 C 486.515625 217.425781 493.429688 218.167969 497.75 221.730469 C 498.789062 225.164062 495.710938 229.257812 491.515625 230.398438 C 491.007812 230.546875 490.511719 230.699219 490.003906 230.832031 Z M 490.003906 230.832031 " fill-opacity="1" fill-rule="nonzero"/><path fill="#3c0416" d="M 537.914062 223.9375 C 536.894531 228.09375 533.707031 230.699219 529.496094 230.796875 C 528.789062 230.808594 528.070312 230.820312 527.363281 230.832031 C 522.90625 229.667969 519.320312 226.292969 520.226562 221.492188 C 524.941406 217.957031 529.980469 217.609375 535.269531 220.015625 C 536.933594 220.785156 537.925781 222.039062 537.914062 223.9375 Z M 537.914062 223.9375 " fill-opacity="1" fill-rule="nonzero"/><path fill="#390917" d="M 509.949219 227.125 C 510.992188 227.210938 512.320312 226.976562 513.597656 227.496094 C 515.894531 228.441406 516.453125 230.734375 514.800781 232.546875 C 514.480469 232.894531 514.132812 233.316406 513.710938 233.464844 C 511.191406 234.394531 511.265625 236.476562 511.289062 238.597656 C 511.3125 240.621094 512.628906 241.6875 514.132812 242.65625 C 515.609375 243.609375 517.246094 244.144531 518.960938 244.402344 C 519.71875 244.527344 520.261719 244.789062 520.1875 245.609375 C 520.113281 246.425781 519.457031 246.648438 518.738281 246.613281 C 515.683594 246.488281 513.015625 245.421875 510.890625 243.226562 C 510.199219 242.507812 509.949219 242.480469 509.203125 243.25 C 507.179688 245.335938 504.636719 246.449219 501.695312 246.613281 C 500.863281 246.660156 500.007812 246.601562 499.820312 245.65625 C 499.621094 244.589844 500.515625 244.480469 501.324219 244.328125 C 502.078125 244.195312 502.835938 244.007812 503.570312 243.746094 C 507.828125 242.296875 509.367188 239.417969 508.347656 235.0625 C 508.222656 234.542969 507.914062 234.40625 507.566406 234.207031 C 507.417969 234.121094 507.242188 234.058594 507.09375 233.972656 C 504.648438 232.644531 503.59375 231.082031 504.054688 229.457031 C 504.488281 227.882812 505.964844 227.148438 508.792969 227.125 C 509.09375 227.125 509.390625 227.125 509.949219 227.125 Z M 509.949219 227.125 " fill-opacity="1" fill-rule="nonzero"/><path fill="#430315" d="M 466.011719 180.820312 C 467.238281 179.949219 468.109375 180.535156 468.914062 181.5 C 470.9375 183.96875 472.488281 186.722656 473.832031 189.613281 C 475.121094 192.378906 476.175781 195.222656 477.058594 198.148438 C 477.332031 199.042969 477.332031 199.675781 476.261719 199.910156 C 475.207031 199.808594 475.023438 198.867188 474.675781 198.160156 C 472.589844 193.917969 470.230469 189.8125 467.734375 185.457031 C 467.871094 190.394531 468.355469 195.035156 468.15625 199.6875 C 468.121094 200.503906 468.320312 201.375 467.75 202.117188 C 467.734375 203.195312 467.75 204.265625 467.710938 205.34375 C 467.6875 205.851562 467.835938 206.507812 467.078125 206.644531 C 466.222656 206.792969 466.074219 206.0625 466 205.503906 C 465.675781 203.023438 465.328125 200.53125 465.15625 198.035156 C 464.84375 193.386719 464.496094 188.734375 465.066406 184.070312 C 465.214844 182.902344 465.425781 181.8125 466.011719 180.820312 Z M 466.011719 180.820312 " fill-opacity="1" fill-rule="nonzero"/><path fill="#febeab" d="M 467.75 202.105469 C 467.75 196.214844 467.75 190.308594 467.75 184.515625 C 470.789062 189.328125 473.433594 194.664062 476.261719 199.898438 C 474.214844 201.96875 471.757812 203.519531 469.4375 205.257812 C 468.234375 205.8125 467.761719 205.515625 467.933594 204.140625 C 468.007812 203.46875 468.15625 202.738281 467.75 202.105469 Z M 467.75 202.105469 " fill-opacity="1" fill-rule="nonzero"/><path fill="#3f0214" d="M 531.347656 200.171875 C 530.132812 200.257812 529.859375 199.675781 530.230469 198.621094 C 532.464844 192.378906 535.429688 186.539062 539.789062 181.488281 C 540.273438 180.917969 540.78125 180.136719 541.699219 180.421875 C 542.640625 180.707031 542.792969 181.574219 542.925781 182.433594 C 543.5625 186.5 543.140625 190.570312 542.753906 194.613281 C 542.417969 198.0625 541.871094 201.484375 541.402344 204.921875 C 541.152344 206.695312 540.890625 206.832031 539.5625 205.914062 C 538.882812 204.746094 539.019531 203.457031 539.15625 202.230469 C 539.6875 196.996094 539.652344 191.734375 540.148438 186.339844 C 537.453125 190.347656 535.121094 194.402344 532.8125 198.457031 C 532.425781 199.117188 532.214844 199.921875 531.347656 200.171875 Z M 531.347656 200.171875 " fill-opacity="1" fill-rule="nonzero"/><path fill="#fdc0ac" d="M 531.347656 200.171875 C 534.039062 194.921875 537.167969 189.949219 540.695312 185.074219 C 540.320312 192.019531 539.9375 198.953125 539.5625 205.902344 C 536.734375 204.128906 533.992188 202.21875 531.347656 200.171875 Z M 531.347656 200.171875 " fill-opacity="1" fill-rule="nonzero"/><path fill="#fefefe" d="M 549.382812 351.28125 C 549.742188 351.777344 550.089844 352.273438 550.449219 352.769531 C 550.472656 358.128906 549.382812 363.199219 546.429688 367.753906 C 545.101562 369.800781 543.113281 370.691406 541.328125 370.160156 C 539.019531 369.464844 537.601562 367.554688 537.464844 365.125 C 537.195312 360.0625 538.746094 355.335938 540.210938 350.609375 C 540.867188 348.5 541.734375 346.46875 542.480469 344.394531 C 542.628906 343.972656 542.792969 343.628906 543.1875 343.417969 C 543.796875 343.441406 544.179688 343.835938 544.492188 344.257812 C 546.21875 346.542969 548.214844 348.625 549.382812 351.28125 Z M 549.382812 351.28125 " fill-opacity="1" fill-rule="nonzero"/><path fill="#fdc070" d="M 549.382812 351.28125 C 547.320312 348.664062 545.261719 346.035156 543.199219 343.417969 C 543.101562 343.179688 543.003906 342.933594 542.902344 342.695312 C 544.242188 341.035156 544.304688 341.007812 545.472656 342.871094 C 547.121094 345.5 548.601562 348.230469 549.382812 351.28125 Z M 549.382812 351.28125 " fill-opacity="1" fill-rule="nonzero"/><path fill="#f9f7f7" d="M 485.101562 222.882812 C 485.027344 224.84375 485 226.726562 486.378906 228.414062 C 483.609375 227.546875 482.679688 226.554688 481.960938 224.199219 C 481.664062 223.230469 481.773438 222.84375 482.804688 222.882812 C 483.523438 222.894531 484.230469 222.882812 485.101562 222.882812 Z M 485.101562 222.882812 " fill-opacity="1" fill-rule="nonzero"/><path fill="#f8f6f7" d="M 531 228.652344 C 532.179688 227.175781 532.414062 225.796875 532.453125 224.347656 C 532.464844 223.960938 532.054688 223.28125 532.875 223.230469 C 533.769531 223.179688 534.734375 223.019531 535.503906 223.539062 C 536.039062 223.898438 535.679688 224.519531 535.46875 224.992188 C 534.648438 226.789062 533.296875 227.957031 531 228.652344 Z M 531 228.652344 " fill-opacity="1" fill-rule="nonzero"/><path fill="#f8b6b4" d="M 509.75 229.34375 C 510.621094 229.417969 511.511719 229.46875 512.40625 229.570312 C 512.855469 229.617188 513.410156 229.617188 513.410156 230.324219 C 513.410156 230.847656 513.289062 231.328125 512.765625 231.492188 C 511.613281 231.839844 510.855469 232.421875 510.484375 233.699219 C 510.246094 234.542969 509.402344 234.183594 509.277344 233.5 C 509.019531 232.1875 508.175781 231.640625 507.03125 231.28125 C 506.574219 231.132812 506.113281 230.871094 506.164062 230.289062 C 506.214844 229.679688 506.796875 229.570312 507.230469 229.507812 C 508.039062 229.382812 508.882812 229.394531 509.75 229.34375 Z M 509.75 229.34375 " fill-opacity="1" fill-rule="nonzero"/><path fill="#380414" d="M 439.226562 235.460938 C 439.066406 234.679688 439.585938 233.910156 440.367188 233.761719 C 452.570312 231.515625 463.21875 233.042969 467.015625 233.75 C 467.824219 233.898438 468.332031 234.691406 468.144531 235.484375 L 468.144531 235.496094 C 467.972656 236.242188 467.253906 236.714844 466.507812 236.578125 C 462.921875 235.917969 452.53125 234.445312 440.875 236.589844 C 440.105469 236.714844 439.375 236.21875 439.226562 235.460938 Z M 439.226562 235.460938 " fill-opacity="1" fill-rule="nonzero"/><path fill="#380414" d="M 467.886719 229.878906 C 467.871094 229.878906 467.871094 229.878906 467.886719 229.878906 L 468.617188 228.652344 Z M 466.695312 229.222656 C 463.691406 227.632812 455.4375 223.652344 447.21875 223.242188 C 446.460938 223.207031 445.855469 222.585938 445.855469 221.816406 C 445.855469 220.996094 446.535156 220.351562 447.355469 220.390625 C 456.21875 220.824219 464.820312 224.980469 468.023438 226.691406 C 468.742188 227.074219 468.988281 227.980469 468.566406 228.675781 C 468.195312 229.34375 467.363281 229.582031 466.695312 229.222656 Z M 466.695312 229.222656 " fill-opacity="1" fill-rule="nonzero"/><path fill="#380414" d="M 568.78125 237.085938 C 559.027344 233.425781 547.273438 235.125 543.375 235.859375 C 542.628906 235.992188 541.898438 235.523438 541.722656 234.789062 C 541.539062 233.996094 542.046875 233.203125 542.839844 233.054688 C 544.542969 232.730469 547.605469 232.246094 551.367188 232.050781 C 556.320312 231.789062 563.382812 232.023438 569.789062 234.417969 C 570.558594 234.703125 570.929688 235.574219 570.59375 236.328125 C 570.296875 237.023438 569.5 237.347656 568.78125 237.085938 Z M 568.78125 237.085938 " fill-opacity="1" fill-rule="nonzero"/><path fill="#380414" d="M 540.695312 228.441406 C 540.371094 227.683594 540.742188 226.816406 541.511719 226.53125 C 544.800781 225.328125 553.414062 222.597656 562.847656 223.144531 C 563.65625 223.191406 564.265625 223.898438 564.1875 224.707031 C 564.113281 225.476562 563.457031 226.046875 562.6875 225.996094 C 553.835938 225.5 545.558594 228.105469 542.492188 229.222656 C 541.773438 229.46875 540.992188 229.132812 540.695312 228.441406 Z M 540.695312 228.441406 " fill-opacity="1" fill-rule="nonzero"/></svg>