<svg xmlns="http://www.w3.org/2000/svg" xmlns:xlink="http://www.w3.org/1999/xlink" width="1366" zoomAndPan="magnify" viewBox="0 0 1024.5 576" height="768" preserveAspectRatio="xMidYMid meet" version="1.0"><path fill="#ffffff" d="M 410.007812 393.5 C 410.007812 393.5 408.625 393.5 406.957031 384.347656 C 404.828125 372.894531 409.546875 351.660156 410.238281 349.992188 C 405.40625 346.367188 386.765625 328.929688 387.683594 304.816406 C 388.605469 280.703125 406.613281 256.359375 406.613281 256.359375 C 406.613281 256.359375 409.316406 205.199219 436.414062 176.195312 C 446.253906 177.171875 474.097656 201.171875 479.160156 205.660156 C 491.988281 201.746094 528.523438 202.261719 542.101562 205.542969 C 542.101562 205.542969 560.625 184.308594 586.167969 177.34375 C 590.484375 178.898438 619.59375 227.699219 614.1875 256.820312 C 622.929688 264.761719 652.675781 309.996094 611.769531 352.121094 C 619.59375 374.105469 614.648438 393.554688 614.648438 393.554688 Z M 410.007812 393.5 C 410.007812 393.5 406.957031 391.945312 406.152344 386.363281 C 404.371094 374.160156 409.433594 352.003906 410.238281 349.933594 C 405.40625 346.367188 386.765625 328.929688 387.683594 304.816406 C 388.605469 280.703125 406.613281 256.359375 406.613281 256.359375 C 406.613281 256.359375 408.167969 203.933594 435.265625 174.871094 C 445.101562 175.847656 474.671875 199.902344 479.734375 204.449219 C 492.566406 200.539062 528.578125 202.207031 542.15625 205.488281 C 542.15625 205.488281 560.738281 183.042969 586.339844 176.078125 C 590.65625 177.632812 619.710938 227.644531 614.242188 256.761719 C 622.988281 264.703125 652.734375 309.9375 611.828125 352.0625 C 619.652344 374.046875 614.1875 393.5 614.1875 393.5 Z M 410.007812 393.5 " fill-opacity="1" fill-rule="nonzero"/><path fill="#efb07d" d="M 496.476562 203.703125 C 496.476562 203.703125 530.304688 241.398438 486.410156 276.097656 C 442.511719 310.800781 386.707031 293.304688 394.242188 278.34375 C 394.242188 278.34375 401.550781 259.8125 408.453125 255.4375 C 404.253906 244.332031 414.148438 213.253906 423.183594 194.839844 C 423.183594 194.839844 432.273438 177.460938 436.414062 176.195312 C 440.558594 174.929688 467.425781 193.632812 478.238281 203.585938 C 485.144531 204.449219 496.476562 203.703125 496.476562 203.703125 Z M 583.636719 331.75 C 578.285156 323.402344 563.5 311.375 561.085938 328.238281 C 555.101562 323.519531 548.3125 325.589844 549.175781 336.699219 C 544.917969 332.382812 534.851562 331.230469 533.585938 350.335938 C 532.320312 369.441406 542.503906 393.613281 542.503906 393.613281 L 592.667969 393.613281 C 592.613281 393.613281 588.988281 340.152344 583.636719 331.75 Z M 583.636719 331.75 " fill-opacity="1" fill-rule="nonzero"/><path fill="#ef5454" d="M 434.632812 225.339844 C 434.632812 225.339844 426.347656 238.117188 419.558594 249.625 C 419.386719 209.976562 438.945312 192.710938 438.945312 192.710938 C 434 203.472656 434.632812 225.339844 434.632812 225.339844 Z M 586.6875 225.339844 C 586.6875 225.339844 594.222656 238.117188 600.953125 249.625 C 601.125 209.976562 581.566406 192.710938 581.566406 192.710938 C 586.570312 203.472656 586.6875 225.339844 586.6875 225.339844 Z M 419.558594 328.351562 C 387.226562 303.320312 399.882812 268.273438 399.882812 268.273438 C 382.105469 287.378906 383.773438 327.71875 404.542969 347.976562 C 406.039062 349.414062 407.707031 350.796875 409.488281 352.121094 C 412.480469 344.640625 416.679688 334.972656 419.558594 328.351562 Z M 620.285156 268.273438 C 620.285156 268.273438 632.769531 302.859375 601.183594 327.894531 C 603.832031 334.339844 608.261719 344.925781 611.425781 351.546875 C 612.921875 350.394531 614.359375 349.1875 615.625 347.976562 C 636.335938 327.71875 638.003906 287.378906 620.285156 268.273438 Z M 432.90625 354.710938 C 432.90625 354.710938 435.492188 338.769531 445.503906 340.898438 C 449.472656 341.761719 451.371094 346.539062 449.648438 351.085938 C 453.902344 343.316406 458.105469 344.238281 459.886719 344.8125 C 461.671875 345.386719 465.582031 348.378906 463.511719 355.285156 C 468 348.09375 473.695312 350.394531 474.902344 352.410156 C 476.109375 354.363281 478.816406 357.128906 471.738281 378.421875 C 468.285156 388.03125 466.214844 393.613281 466.214844 393.613281 L 430.027344 393.613281 Z M 591.289062 393.613281 L 555.101562 393.613281 C 555.101562 393.613281 553.03125 388.03125 549.578125 378.421875 C 542.503906 357.128906 545.207031 354.363281 546.414062 352.410156 C 547.621094 350.453125 553.316406 348.09375 557.804688 355.285156 C 555.675781 348.378906 559.589844 345.386719 561.429688 344.8125 C 563.214844 344.238281 567.414062 343.316406 571.671875 351.085938 C 569.945312 346.539062 571.84375 341.761719 575.8125 340.898438 C 585.824219 338.769531 588.414062 354.710938 588.414062 354.710938 Z M 534.621094 367.199219 L 533.640625 360.753906 C 526.394531 361.960938 518.625 363.398438 510.34375 363.398438 C 502.058594 363.398438 494.347656 361.960938 487.042969 360.753906 L 486.0625 367.199219 C 486.0625 367.199219 484.050781 374.507812 481.578125 381.183594 C 491.53125 383.65625 510.285156 384.347656 510.285156 384.347656 C 510.285156 384.347656 529.039062 383.65625 538.992188 381.183594 C 537.035156 374.046875 534.621094 367.199219 534.621094 367.199219 Z M 555.964844 209.226562 C 555.964844 209.226562 572.417969 186.839844 585.9375 179.1875 C 586.457031 177.230469 578.515625 175.734375 566.839844 184.710938 C 555.160156 193.746094 541.753906 205.429688 541.753906 205.429688 Z M 465.871094 209.226562 C 465.871094 209.226562 457.585938 187.011719 435.898438 179.1875 C 436.125 176.941406 443.605469 176.941406 453.214844 183.042969 C 462.820312 189.140625 481.460938 205.027344 481.460938 205.027344 Z M 465.871094 209.226562 " fill-opacity="0.3" fill-rule="nonzero"/><path fill="#ffffff" d="M 435.265625 177.34375 C 435.265625 177.34375 414.496094 215.902344 415.933594 258.488281 C 403.5625 268.273438 397.121094 278.34375 390.5625 295.203125 C 390.332031 284.960938 396.429688 273.335938 406.613281 256.417969 C 408.167969 234.722656 412.941406 197.371094 435.265625 177.34375 Z M 407.132812 349.761719 C 407.132812 349.761719 409.257812 349.992188 410.929688 342.335938 C 390.042969 321.390625 390.21875 296.296875 390.21875 296.296875 C 379.285156 320.238281 407.132812 349.761719 407.132812 349.761719 Z M 631.042969 296.296875 C 631.042969 296.296875 631.214844 321.390625 610.332031 342.335938 C 612 350.050781 614.128906 349.761719 614.128906 349.761719 C 614.128906 349.761719 641.972656 320.238281 631.042969 296.296875 Z M 631.042969 296.296875 " fill-opacity="1" fill-rule="nonzero"/><path fill="#89e3f7" d="M 471.679688 262.921875 C 471.679688 262.921875 458.105469 280.011719 445.792969 302.054688 C 431.46875 327.835938 431.523438 393.613281 431.523438 393.613281 L 399.308594 393.613281 C 399.308594 393.613281 399.25 328.410156 417.140625 300.671875 C 435.265625 272.53125 442.742188 272.472656 442.742188 272.472656 Z M 549.117188 262.921875 C 549.117188 262.921875 562.695312 280.011719 575.007812 302.054688 C 589.332031 327.777344 589.273438 393.613281 589.273438 393.613281 L 621.492188 393.613281 C 621.492188 393.613281 621.550781 328.410156 603.65625 300.671875 C 585.535156 272.53125 578.058594 272.472656 578.058594 272.472656 Z M 549.117188 262.921875 " fill-opacity="1" fill-rule="nonzero"/><path fill="#2b0806" d="M 622.875 393.613281 L 591.289062 393.613281 C 591.289062 393.613281 585.9375 338.480469 584.269531 323 C 610.214844 402.992188 598.421875 325.820312 596.179688 314.195312 C 603.601562 328.296875 607.859375 380.550781 612.691406 366.566406 C 617.464844 352.582031 605.039062 307.636719 605.613281 308.554688 C 622.011719 333.992188 622.875 393.613281 622.875 393.613281 Z M 398.445312 393.613281 L 430.027344 393.613281 C 430.027344 393.613281 435.378906 338.480469 437.046875 323 C 411.101562 402.992188 422.894531 325.820312 425.136719 314.195312 C 417.71875 328.296875 413.460938 380.550781 408.625 366.566406 C 403.851562 352.582031 416.277344 307.691406 415.703125 308.554688 C 399.363281 333.992188 398.445312 393.613281 398.445312 393.613281 Z M 398.445312 393.613281 " fill-opacity="0.2" fill-rule="nonzero"/><path fill="#2b0806" d="M 530.191406 239.210938 C 526.394531 236.90625 529.210938 231.210938 533.007812 233.511719 C 536.175781 235.816406 538.1875 238.40625 543.652344 239.382812 C 545.492188 239.726562 547.164062 240.304688 547.164062 241.972656 C 547.21875 243.582031 544.746094 244.042969 542.90625 243.757812 C 538.589844 243.066406 533.929688 241.511719 530.191406 239.210938 Z M 620.398438 346.019531 C 651.0625 309.707031 628.742188 271.550781 617.351562 256.761719 C 616.027344 205.660156 591.175781 172.855469 584.902344 173.605469 C 563.617188 179.300781 543.136719 200.191406 540.144531 203.300781 C 527.890625 200.078125 516.554688 199.730469 510.976562 199.847656 C 505.394531 199.789062 494.0625 200.078125 481.808594 203.300781 C 478.757812 200.191406 458.277344 179.300781 436.988281 173.605469 C 430.660156 172.855469 405.867188 205.601562 404.484375 256.703125 C 393.152344 271.4375 371 309.304688 401.03125 345.445312 C 400.457031 349.128906 399.941406 353.042969 399.535156 357.070312 C 398.097656 372.664062 396.429688 384.636719 395.625 393.554688 L 400.34375 393.554688 C 400.34375 393.554688 401.320312 356.726562 408.511719 328.179688 C 415.875 299.117188 435.265625 279.035156 439.808594 274.601562 C 440.730469 274.429688 441.707031 274.257812 442.800781 273.96875 C 450.28125 272.128906 459.3125 270.054688 466.5625 267.753906 C 456.207031 278.917969 435.492188 306.828125 431.238281 355 C 429.796875 371.515625 428.128906 384.117188 427.324219 393.554688 L 431.984375 393.554688 C 431.984375 393.554688 432.675781 366.507812 437.046875 340.035156 C 439.636719 333.417969 442.167969 329.160156 445.964844 325.417969 C 453.5 317.996094 461.039062 323.980469 458.277344 333.933594 C 460.578125 330.308594 463.167969 326.394531 467.019531 328.410156 C 471.796875 330.828125 470.414062 340.4375 470.414062 340.4375 C 470.414062 340.4375 476.339844 334.453125 479.851562 336.066406 C 485.488281 338.652344 487.15625 349.761719 482.898438 368.925781 C 481.980469 373.183594 479.277344 383.140625 476.339844 393.554688 L 481.347656 393.554688 C 481.863281 391.65625 482.265625 390.101562 482.496094 389.066406 L 482.554688 388.835938 L 483.878906 383.253906 C 486.753906 370.9375 488.25 361.5 489.054688 354.136719 C 491.183594 334.914062 479.332031 328.179688 474.097656 333.761719 C 475.132812 323.863281 466.160156 320.8125 460.980469 325.707031 C 461.269531 323.921875 460.40625 321.332031 458.390625 319.605469 C 455.285156 317.1875 453.15625 317.878906 453.15625 317.878906 C 451.144531 317.996094 448.726562 318.742188 445.964844 320.640625 C 443.375 322.367188 441.363281 324.726562 439.234375 328.066406 C 439.519531 326.855469 439.75 325.707031 440.039062 324.554688 C 446.484375 297.679688 464.257812 274.832031 472.085938 265.796875 C 476.398438 264.011719 479.332031 262.113281 479.734375 260.042969 C 480.3125 256.933594 439.636719 260.90625 436.472656 263.035156 C 431.871094 266.085938 436.933594 267.925781 439.867188 266.777344 C 433.367188 269.652344 429.453125 275.003906 436.011719 275.0625 C 431.121094 278.917969 410.46875 297.277344 402.066406 338.769531 C 391.195312 324.265625 378.539062 295.261719 409.316406 257.453125 C 408.398438 245.828125 411.214844 205.945312 435.898438 179.242188 C 439.347656 177.519531 457.644531 187.820312 476.285156 204.96875 C 472.832031 206.121094 469.324219 207.558594 465.929688 209.226562 C 467.25 210.722656 484.511719 205.140625 510.976562 205.140625 C 537.441406 205.140625 554.757812 210.722656 556.023438 209.226562 C 552.628906 207.5 549.117188 206.121094 545.667969 204.96875 C 564.308594 187.820312 582.601562 177.460938 586.054688 179.242188 C 606.824219 204.164062 614.015625 238.632812 612.402344 257.453125 C 643.527344 295.722656 630.179688 325.015625 619.25 339.34375 C 610.90625 297.390625 590.082031 278.917969 585.132812 275.0625 C 591.75 275.003906 587.78125 269.652344 581.277344 266.777344 C 584.210938 267.925781 589.273438 266.144531 584.671875 263.035156 C 581.507812 260.90625 540.832031 256.933594 541.410156 260.042969 C 541.8125 262.113281 544.746094 264.011719 549.0625 265.796875 C 556.886719 274.890625 574.664062 297.679688 581.105469 324.554688 C 581.394531 325.820312 581.679688 327.085938 581.96875 328.351562 C 579.78125 324.84375 577.710938 322.425781 575.066406 320.640625 C 572.304688 318.800781 569.886719 317.996094 567.875 317.878906 C 567.875 317.878906 565.746094 317.1875 562.636719 319.605469 C 560.625 321.332031 559.761719 323.921875 560.050781 325.707031 C 554.871094 320.8125 545.898438 323.863281 546.933594 333.761719 C 541.695312 328.179688 529.84375 334.972656 531.972656 354.136719 C 532.78125 361.5 534.332031 370.996094 537.152344 383.253906 L 538.476562 388.835938 L 538.53125 389.066406 C 538.761719 390.101562 539.164062 391.65625 539.683594 393.554688 L 544.6875 393.554688 C 541.753906 383.082031 539.050781 373.125 538.128906 368.925781 C 533.929688 349.820312 535.542969 338.710938 541.179688 336.066406 C 544.746094 334.394531 550.613281 340.4375 550.613281 340.4375 C 550.613281 340.4375 549.234375 330.886719 554.007812 328.410156 C 557.863281 326.453125 560.394531 330.308594 562.753906 333.933594 C 559.992188 324.035156 567.527344 318.050781 575.066406 325.417969 C 578.976562 329.273438 581.566406 333.648438 584.210938 340.554688 C 588.527344 366.851562 589.21875 393.554688 589.21875 393.554688 L 593.878906 393.554688 C 593.074219 384.117188 591.402344 371.515625 589.964844 355 C 585.707031 306.886719 564.996094 278.917969 554.640625 267.753906 C 561.890625 270.054688 570.921875 272.128906 578.402344 273.96875 C 579.496094 274.257812 580.53125 274.429688 581.394531 274.601562 C 585.9375 279.035156 605.328125 299.117188 612.691406 328.179688 C 619.941406 356.726562 620.859375 393.554688 620.859375 393.554688 L 625.519531 393.554688 C 624.714844 384.636719 623.046875 372.664062 621.609375 357.070312 C 621.433594 353.273438 620.976562 349.589844 620.398438 346.019531 Z M 486.238281 233.511719 C 483.074219 235.816406 481.058594 238.40625 475.59375 239.382812 C 473.753906 239.726562 472.085938 240.304688 472.085938 241.972656 C 472.027344 243.582031 474.5 244.042969 476.339844 243.757812 C 480.65625 243.066406 485.316406 241.511719 489.054688 239.210938 C 492.851562 236.851562 490.035156 231.210938 486.238281 233.511719 Z M 522.25 275.351562 C 521.386719 278.402344 520.121094 280.644531 519.085938 280.300781 C 517.992188 279.953125 517.074219 272.53125 516.902344 268.386719 C 514.773438 266.316406 512.527344 264.992188 510.34375 264.933594 C 499.066406 265.394531 487.101562 297.621094 490.722656 299.925781 C 495.382812 302.800781 505.335938 303.953125 510.34375 303.953125 C 515.347656 303.953125 525.242188 302.800781 529.960938 299.925781 C 532.203125 298.484375 528.292969 285.132812 522.25 275.351562 Z M 581.625 192.710938 C 581.625 192.710938 586.570312 213.484375 583.867188 230.519531 C 587.953125 232.246094 601.011719 249.625 601.011719 249.625 C 601.011719 249.625 598.769531 238 589.503906 228.046875 C 591.519531 216.765625 587.894531 198.582031 581.625 192.710938 Z M 431.0625 228.046875 C 421.800781 238 419.558594 249.625 419.558594 249.625 C 419.558594 249.625 432.675781 232.246094 436.703125 230.519531 C 434 213.484375 438.945312 192.710938 438.945312 192.710938 C 432.617188 198.582031 428.992188 216.765625 431.0625 228.046875 Z M 431.0625 228.046875 " fill-opacity="1" fill-rule="nonzero"/><path fill="#ef5454" d="M 524.78125 290.082031 C 525.875 293.707031 526.164062 296.472656 525.300781 297.046875 C 521.734375 299.289062 514.082031 300.152344 510.285156 300.152344 C 506.429688 300.152344 498.835938 299.289062 495.269531 297.046875 C 494.519531 296.585938 494.636719 294.457031 495.382812 291.578125 C 509.535156 277.769531 520.121094 285.078125 524.78125 290.082031 Z M 524.78125 290.082031 C 525.875 293.707031 526.164062 296.472656 525.300781 297.046875 C 521.734375 299.289062 514.082031 300.152344 510.285156 300.152344 C 506.429688 300.152344 498.835938 299.289062 495.269531 297.046875 C 494.519531 296.585938 494.636719 294.457031 495.382812 291.578125 C 509.535156 277.769531 520.121094 285.078125 524.78125 290.082031 Z M 524.78125 290.082031 " fill-opacity="1" fill-rule="nonzero"/></svg>